%TF.GenerationSoftware,KiCad,Pcbnew,7.0.8*%
%TF.CreationDate,2023-12-09T13:02:37-08:00*%
%TF.ProjectId,LED_board,4c45445f-626f-4617-9264-2e6b69636164,rev?*%
%TF.SameCoordinates,Original*%
%TF.FileFunction,Paste,Top*%
%TF.FilePolarity,Positive*%
%FSLAX46Y46*%
G04 Gerber Fmt 4.6, Leading zero omitted, Abs format (unit mm)*
G04 Created by KiCad (PCBNEW 7.0.8) date 2023-12-09 13:02:37*
%MOMM*%
%LPD*%
G01*
G04 APERTURE LIST*
G04 Aperture macros list*
%AMRoundRect*
0 Rectangle with rounded corners*
0 $1 Rounding radius*
0 $2 $3 $4 $5 $6 $7 $8 $9 X,Y pos of 4 corners*
0 Add a 4 corners polygon primitive as box body*
4,1,4,$2,$3,$4,$5,$6,$7,$8,$9,$2,$3,0*
0 Add four circle primitives for the rounded corners*
1,1,$1+$1,$2,$3*
1,1,$1+$1,$4,$5*
1,1,$1+$1,$6,$7*
1,1,$1+$1,$8,$9*
0 Add four rect primitives between the rounded corners*
20,1,$1+$1,$2,$3,$4,$5,0*
20,1,$1+$1,$4,$5,$6,$7,0*
20,1,$1+$1,$6,$7,$8,$9,0*
20,1,$1+$1,$8,$9,$2,$3,0*%
G04 Aperture macros list end*
%ADD10RoundRect,0.381000X0.381000X-0.762000X0.381000X0.762000X-0.381000X0.762000X-0.381000X-0.762000X0*%
%ADD11RoundRect,0.381000X-0.762000X-0.381000X0.762000X-0.381000X0.762000X0.381000X-0.762000X0.381000X0*%
G04 APERTURE END LIST*
D10*
%TO.C,J1*%
X-11240000Y-371720000D03*
X-8440000Y-371720000D03*
X-5640000Y-371720000D03*
X-2840000Y-371720000D03*
%TD*%
D11*
%TO.C,U10*%
X-4700000Y-331800000D03*
X-4700000Y-334600000D03*
X-4700000Y-337400000D03*
X-4700000Y-340200000D03*
X4700000Y-331800000D03*
X4700000Y-334600000D03*
X4700000Y-337400000D03*
X4700000Y-340200000D03*
%TD*%
%TO.C,U9*%
X187300000Y-355800000D03*
X187300000Y-358600000D03*
X187300000Y-361400000D03*
X187300000Y-364200000D03*
X196700000Y-355800000D03*
X196700000Y-358600000D03*
X196700000Y-361400000D03*
X196700000Y-364200000D03*
%TD*%
%TO.C,U8*%
X163300000Y-355800000D03*
X163300000Y-358600000D03*
X163300000Y-361400000D03*
X163300000Y-364200000D03*
X172700000Y-355800000D03*
X172700000Y-358600000D03*
X172700000Y-361400000D03*
X172700000Y-364200000D03*
%TD*%
%TO.C,U7*%
X139300000Y-355800000D03*
X139300000Y-358600000D03*
X139300000Y-361400000D03*
X139300000Y-364200000D03*
X148700000Y-355800000D03*
X148700000Y-358600000D03*
X148700000Y-361400000D03*
X148700000Y-364200000D03*
%TD*%
%TO.C,U6*%
X115300000Y-355800000D03*
X115300000Y-358600000D03*
X115300000Y-361400000D03*
X115300000Y-364200000D03*
X124700000Y-355800000D03*
X124700000Y-358600000D03*
X124700000Y-361400000D03*
X124700000Y-364200000D03*
%TD*%
%TO.C,U5*%
X91300000Y-355800000D03*
X91300000Y-358600000D03*
X91300000Y-361400000D03*
X91300000Y-364200000D03*
X100700000Y-355800000D03*
X100700000Y-358600000D03*
X100700000Y-361400000D03*
X100700000Y-364200000D03*
%TD*%
%TO.C,U4*%
X67300000Y-355800000D03*
X67300000Y-358600000D03*
X67300000Y-361400000D03*
X67300000Y-364200000D03*
X76700000Y-355800000D03*
X76700000Y-358600000D03*
X76700000Y-361400000D03*
X76700000Y-364200000D03*
%TD*%
%TO.C,U3*%
X43300000Y-355800000D03*
X43300000Y-358600000D03*
X43300000Y-361400000D03*
X43300000Y-364200000D03*
X52700000Y-355800000D03*
X52700000Y-358600000D03*
X52700000Y-361400000D03*
X52700000Y-364200000D03*
%TD*%
%TO.C,U2*%
X19300000Y-355800000D03*
X19300000Y-358600000D03*
X19300000Y-361400000D03*
X19300000Y-364200000D03*
X28700000Y-355800000D03*
X28700000Y-358600000D03*
X28700000Y-361400000D03*
X28700000Y-364200000D03*
%TD*%
%TO.C,U1*%
X-4700000Y-355800000D03*
X-4700000Y-358600000D03*
X-4700000Y-361400000D03*
X-4700000Y-364200000D03*
X4700000Y-355800000D03*
X4700000Y-358600000D03*
X4700000Y-361400000D03*
X4700000Y-364200000D03*
%TD*%
%TO.C,U18*%
X187300000Y-331800000D03*
X187300000Y-334600000D03*
X187300000Y-337400000D03*
X187300000Y-340200000D03*
X196700000Y-331800000D03*
X196700000Y-334600000D03*
X196700000Y-337400000D03*
X196700000Y-340200000D03*
%TD*%
%TO.C,U17*%
X163300000Y-331800000D03*
X163300000Y-334600000D03*
X163300000Y-337400000D03*
X163300000Y-340200000D03*
X172700000Y-331800000D03*
X172700000Y-334600000D03*
X172700000Y-337400000D03*
X172700000Y-340200000D03*
%TD*%
%TO.C,U16*%
X139300000Y-331800000D03*
X139300000Y-334600000D03*
X139300000Y-337400000D03*
X139300000Y-340200000D03*
X148700000Y-331800000D03*
X148700000Y-334600000D03*
X148700000Y-337400000D03*
X148700000Y-340200000D03*
%TD*%
%TO.C,U15*%
X115300000Y-331800000D03*
X115300000Y-334600000D03*
X115300000Y-337400000D03*
X115300000Y-340200000D03*
X124700000Y-331800000D03*
X124700000Y-334600000D03*
X124700000Y-337400000D03*
X124700000Y-340200000D03*
%TD*%
%TO.C,U14*%
X91300000Y-331800000D03*
X91300000Y-334600000D03*
X91300000Y-337400000D03*
X91300000Y-340200000D03*
X100700000Y-331800000D03*
X100700000Y-334600000D03*
X100700000Y-337400000D03*
X100700000Y-340200000D03*
%TD*%
%TO.C,U13*%
X67300000Y-331800000D03*
X67300000Y-334600000D03*
X67300000Y-337400000D03*
X67300000Y-340200000D03*
X76700000Y-331800000D03*
X76700000Y-334600000D03*
X76700000Y-337400000D03*
X76700000Y-340200000D03*
%TD*%
%TO.C,U12*%
X43300000Y-331800000D03*
X43300000Y-334600000D03*
X43300000Y-337400000D03*
X43300000Y-340200000D03*
X52700000Y-331800000D03*
X52700000Y-334600000D03*
X52700000Y-337400000D03*
X52700000Y-340200000D03*
%TD*%
%TO.C,U11*%
X19300000Y-331800000D03*
X19300000Y-334600000D03*
X19300000Y-337400000D03*
X19300000Y-340200000D03*
X28700000Y-331800000D03*
X28700000Y-334600000D03*
X28700000Y-337400000D03*
X28700000Y-340200000D03*
%TD*%
%TO.C,U27*%
X187300000Y-307800000D03*
X187300000Y-310600000D03*
X187300000Y-313400000D03*
X187300000Y-316200000D03*
X196700000Y-307800000D03*
X196700000Y-310600000D03*
X196700000Y-313400000D03*
X196700000Y-316200000D03*
%TD*%
%TO.C,U26*%
X163300000Y-307800000D03*
X163300000Y-310600000D03*
X163300000Y-313400000D03*
X163300000Y-316200000D03*
X172700000Y-307800000D03*
X172700000Y-310600000D03*
X172700000Y-313400000D03*
X172700000Y-316200000D03*
%TD*%
%TO.C,U25*%
X139300000Y-307800000D03*
X139300000Y-310600000D03*
X139300000Y-313400000D03*
X139300000Y-316200000D03*
X148700000Y-307800000D03*
X148700000Y-310600000D03*
X148700000Y-313400000D03*
X148700000Y-316200000D03*
%TD*%
%TO.C,U24*%
X115300000Y-307800000D03*
X115300000Y-310600000D03*
X115300000Y-313400000D03*
X115300000Y-316200000D03*
X124700000Y-307800000D03*
X124700000Y-310600000D03*
X124700000Y-313400000D03*
X124700000Y-316200000D03*
%TD*%
%TO.C,U23*%
X91300000Y-307800000D03*
X91300000Y-310600000D03*
X91300000Y-313400000D03*
X91300000Y-316200000D03*
X100700000Y-307800000D03*
X100700000Y-310600000D03*
X100700000Y-313400000D03*
X100700000Y-316200000D03*
%TD*%
%TO.C,U22*%
X67300000Y-307800000D03*
X67300000Y-310600000D03*
X67300000Y-313400000D03*
X67300000Y-316200000D03*
X76700000Y-307800000D03*
X76700000Y-310600000D03*
X76700000Y-313400000D03*
X76700000Y-316200000D03*
%TD*%
%TO.C,U21*%
X43300000Y-307800000D03*
X43300000Y-310600000D03*
X43300000Y-313400000D03*
X43300000Y-316200000D03*
X52700000Y-307800000D03*
X52700000Y-310600000D03*
X52700000Y-313400000D03*
X52700000Y-316200000D03*
%TD*%
%TO.C,U20*%
X19300000Y-307800000D03*
X19300000Y-310600000D03*
X19300000Y-313400000D03*
X19300000Y-316200000D03*
X28700000Y-307800000D03*
X28700000Y-310600000D03*
X28700000Y-313400000D03*
X28700000Y-316200000D03*
%TD*%
%TO.C,U19*%
X-4700000Y-307800000D03*
X-4700000Y-310600000D03*
X-4700000Y-313400000D03*
X-4700000Y-316200000D03*
X4700000Y-307800000D03*
X4700000Y-310600000D03*
X4700000Y-313400000D03*
X4700000Y-316200000D03*
%TD*%
%TO.C,U36*%
X187300000Y-283800000D03*
X187300000Y-286600000D03*
X187300000Y-289400000D03*
X187300000Y-292200000D03*
X196700000Y-283800000D03*
X196700000Y-286600000D03*
X196700000Y-289400000D03*
X196700000Y-292200000D03*
%TD*%
%TO.C,U35*%
X163300000Y-283800000D03*
X163300000Y-286600000D03*
X163300000Y-289400000D03*
X163300000Y-292200000D03*
X172700000Y-283800000D03*
X172700000Y-286600000D03*
X172700000Y-289400000D03*
X172700000Y-292200000D03*
%TD*%
%TO.C,U34*%
X139300000Y-283800000D03*
X139300000Y-286600000D03*
X139300000Y-289400000D03*
X139300000Y-292200000D03*
X148700000Y-283800000D03*
X148700000Y-286600000D03*
X148700000Y-289400000D03*
X148700000Y-292200000D03*
%TD*%
%TO.C,U33*%
X115300000Y-283800000D03*
X115300000Y-286600000D03*
X115300000Y-289400000D03*
X115300000Y-292200000D03*
X124700000Y-283800000D03*
X124700000Y-286600000D03*
X124700000Y-289400000D03*
X124700000Y-292200000D03*
%TD*%
%TO.C,U32*%
X91300000Y-283800000D03*
X91300000Y-286600000D03*
X91300000Y-289400000D03*
X91300000Y-292200000D03*
X100700000Y-283800000D03*
X100700000Y-286600000D03*
X100700000Y-289400000D03*
X100700000Y-292200000D03*
%TD*%
%TO.C,U31*%
X67300000Y-283800000D03*
X67300000Y-286600000D03*
X67300000Y-289400000D03*
X67300000Y-292200000D03*
X76700000Y-283800000D03*
X76700000Y-286600000D03*
X76700000Y-289400000D03*
X76700000Y-292200000D03*
%TD*%
%TO.C,U30*%
X43300000Y-283800000D03*
X43300000Y-286600000D03*
X43300000Y-289400000D03*
X43300000Y-292200000D03*
X52700000Y-283800000D03*
X52700000Y-286600000D03*
X52700000Y-289400000D03*
X52700000Y-292200000D03*
%TD*%
%TO.C,U29*%
X19300000Y-283800000D03*
X19300000Y-286600000D03*
X19300000Y-289400000D03*
X19300000Y-292200000D03*
X28700000Y-283800000D03*
X28700000Y-286600000D03*
X28700000Y-289400000D03*
X28700000Y-292200000D03*
%TD*%
%TO.C,U28*%
X-4700000Y-283800000D03*
X-4700000Y-286600000D03*
X-4700000Y-289400000D03*
X-4700000Y-292200000D03*
X4700000Y-283800000D03*
X4700000Y-286600000D03*
X4700000Y-289400000D03*
X4700000Y-292200000D03*
%TD*%
%TO.C,U45*%
X187300000Y-259800000D03*
X187300000Y-262600000D03*
X187300000Y-265400000D03*
X187300000Y-268200000D03*
X196700000Y-259800000D03*
X196700000Y-262600000D03*
X196700000Y-265400000D03*
X196700000Y-268200000D03*
%TD*%
%TO.C,U44*%
X163300000Y-259800000D03*
X163300000Y-262600000D03*
X163300000Y-265400000D03*
X163300000Y-268200000D03*
X172700000Y-259800000D03*
X172700000Y-262600000D03*
X172700000Y-265400000D03*
X172700000Y-268200000D03*
%TD*%
%TO.C,U43*%
X139300000Y-259800000D03*
X139300000Y-262600000D03*
X139300000Y-265400000D03*
X139300000Y-268200000D03*
X148700000Y-259800000D03*
X148700000Y-262600000D03*
X148700000Y-265400000D03*
X148700000Y-268200000D03*
%TD*%
%TO.C,U42*%
X115300000Y-259800000D03*
X115300000Y-262600000D03*
X115300000Y-265400000D03*
X115300000Y-268200000D03*
X124700000Y-259800000D03*
X124700000Y-262600000D03*
X124700000Y-265400000D03*
X124700000Y-268200000D03*
%TD*%
%TO.C,U41*%
X91300000Y-259800000D03*
X91300000Y-262600000D03*
X91300000Y-265400000D03*
X91300000Y-268200000D03*
X100700000Y-259800000D03*
X100700000Y-262600000D03*
X100700000Y-265400000D03*
X100700000Y-268200000D03*
%TD*%
%TO.C,U40*%
X67300000Y-259800000D03*
X67300000Y-262600000D03*
X67300000Y-265400000D03*
X67300000Y-268200000D03*
X76700000Y-259800000D03*
X76700000Y-262600000D03*
X76700000Y-265400000D03*
X76700000Y-268200000D03*
%TD*%
%TO.C,U39*%
X43300000Y-259800000D03*
X43300000Y-262600000D03*
X43300000Y-265400000D03*
X43300000Y-268200000D03*
X52700000Y-259800000D03*
X52700000Y-262600000D03*
X52700000Y-265400000D03*
X52700000Y-268200000D03*
%TD*%
%TO.C,U38*%
X19300000Y-259800000D03*
X19300000Y-262600000D03*
X19300000Y-265400000D03*
X19300000Y-268200000D03*
X28700000Y-259800000D03*
X28700000Y-262600000D03*
X28700000Y-265400000D03*
X28700000Y-268200000D03*
%TD*%
%TO.C,U37*%
X-4700000Y-259800000D03*
X-4700000Y-262600000D03*
X-4700000Y-265400000D03*
X-4700000Y-268200000D03*
X4700000Y-259800000D03*
X4700000Y-262600000D03*
X4700000Y-265400000D03*
X4700000Y-268200000D03*
%TD*%
%TO.C,U54*%
X187300000Y-235800000D03*
X187300000Y-238600000D03*
X187300000Y-241400000D03*
X187300000Y-244200000D03*
X196700000Y-235800000D03*
X196700000Y-238600000D03*
X196700000Y-241400000D03*
X196700000Y-244200000D03*
%TD*%
%TO.C,U53*%
X163300000Y-235800000D03*
X163300000Y-238600000D03*
X163300000Y-241400000D03*
X163300000Y-244200000D03*
X172700000Y-235800000D03*
X172700000Y-238600000D03*
X172700000Y-241400000D03*
X172700000Y-244200000D03*
%TD*%
%TO.C,U52*%
X139300000Y-235800000D03*
X139300000Y-238600000D03*
X139300000Y-241400000D03*
X139300000Y-244200000D03*
X148700000Y-235800000D03*
X148700000Y-238600000D03*
X148700000Y-241400000D03*
X148700000Y-244200000D03*
%TD*%
%TO.C,U51*%
X115300000Y-235800000D03*
X115300000Y-238600000D03*
X115300000Y-241400000D03*
X115300000Y-244200000D03*
X124700000Y-235800000D03*
X124700000Y-238600000D03*
X124700000Y-241400000D03*
X124700000Y-244200000D03*
%TD*%
%TO.C,U50*%
X91300000Y-235800000D03*
X91300000Y-238600000D03*
X91300000Y-241400000D03*
X91300000Y-244200000D03*
X100700000Y-235800000D03*
X100700000Y-238600000D03*
X100700000Y-241400000D03*
X100700000Y-244200000D03*
%TD*%
%TO.C,U49*%
X67300000Y-235800000D03*
X67300000Y-238600000D03*
X67300000Y-241400000D03*
X67300000Y-244200000D03*
X76700000Y-235800000D03*
X76700000Y-238600000D03*
X76700000Y-241400000D03*
X76700000Y-244200000D03*
%TD*%
%TO.C,U48*%
X43300000Y-235800000D03*
X43300000Y-238600000D03*
X43300000Y-241400000D03*
X43300000Y-244200000D03*
X52700000Y-235800000D03*
X52700000Y-238600000D03*
X52700000Y-241400000D03*
X52700000Y-244200000D03*
%TD*%
%TO.C,U47*%
X19300000Y-235800000D03*
X19300000Y-238600000D03*
X19300000Y-241400000D03*
X19300000Y-244200000D03*
X28700000Y-235800000D03*
X28700000Y-238600000D03*
X28700000Y-241400000D03*
X28700000Y-244200000D03*
%TD*%
%TO.C,U46*%
X-4700000Y-235800000D03*
X-4700000Y-238600000D03*
X-4700000Y-241400000D03*
X-4700000Y-244200000D03*
X4700000Y-235800000D03*
X4700000Y-238600000D03*
X4700000Y-241400000D03*
X4700000Y-244200000D03*
%TD*%
%TO.C,U63*%
X187300000Y-211800000D03*
X187300000Y-214600000D03*
X187300000Y-217400000D03*
X187300000Y-220200000D03*
X196700000Y-211800000D03*
X196700000Y-214600000D03*
X196700000Y-217400000D03*
X196700000Y-220200000D03*
%TD*%
%TO.C,U62*%
X163300000Y-211800000D03*
X163300000Y-214600000D03*
X163300000Y-217400000D03*
X163300000Y-220200000D03*
X172700000Y-211800000D03*
X172700000Y-214600000D03*
X172700000Y-217400000D03*
X172700000Y-220200000D03*
%TD*%
%TO.C,U61*%
X139300000Y-211800000D03*
X139300000Y-214600000D03*
X139300000Y-217400000D03*
X139300000Y-220200000D03*
X148700000Y-211800000D03*
X148700000Y-214600000D03*
X148700000Y-217400000D03*
X148700000Y-220200000D03*
%TD*%
%TO.C,U60*%
X115300000Y-211800000D03*
X115300000Y-214600000D03*
X115300000Y-217400000D03*
X115300000Y-220200000D03*
X124700000Y-211800000D03*
X124700000Y-214600000D03*
X124700000Y-217400000D03*
X124700000Y-220200000D03*
%TD*%
%TO.C,U59*%
X91300000Y-211800000D03*
X91300000Y-214600000D03*
X91300000Y-217400000D03*
X91300000Y-220200000D03*
X100700000Y-211800000D03*
X100700000Y-214600000D03*
X100700000Y-217400000D03*
X100700000Y-220200000D03*
%TD*%
%TO.C,U58*%
X67300000Y-211800000D03*
X67300000Y-214600000D03*
X67300000Y-217400000D03*
X67300000Y-220200000D03*
X76700000Y-211800000D03*
X76700000Y-214600000D03*
X76700000Y-217400000D03*
X76700000Y-220200000D03*
%TD*%
%TO.C,U57*%
X43300000Y-211800000D03*
X43300000Y-214600000D03*
X43300000Y-217400000D03*
X43300000Y-220200000D03*
X52700000Y-211800000D03*
X52700000Y-214600000D03*
X52700000Y-217400000D03*
X52700000Y-220200000D03*
%TD*%
%TO.C,U56*%
X19300000Y-211800000D03*
X19300000Y-214600000D03*
X19300000Y-217400000D03*
X19300000Y-220200000D03*
X28700000Y-211800000D03*
X28700000Y-214600000D03*
X28700000Y-217400000D03*
X28700000Y-220200000D03*
%TD*%
%TO.C,U55*%
X-4700000Y-211800000D03*
X-4700000Y-214600000D03*
X-4700000Y-217400000D03*
X-4700000Y-220200000D03*
X4700000Y-211800000D03*
X4700000Y-214600000D03*
X4700000Y-217400000D03*
X4700000Y-220200000D03*
%TD*%
%TO.C,U72*%
X187300000Y-187800000D03*
X187300000Y-190600000D03*
X187300000Y-193400000D03*
X187300000Y-196200000D03*
X196700000Y-187800000D03*
X196700000Y-190600000D03*
X196700000Y-193400000D03*
X196700000Y-196200000D03*
%TD*%
%TO.C,U71*%
X163300000Y-187800000D03*
X163300000Y-190600000D03*
X163300000Y-193400000D03*
X163300000Y-196200000D03*
X172700000Y-187800000D03*
X172700000Y-190600000D03*
X172700000Y-193400000D03*
X172700000Y-196200000D03*
%TD*%
%TO.C,U70*%
X139300000Y-187800000D03*
X139300000Y-190600000D03*
X139300000Y-193400000D03*
X139300000Y-196200000D03*
X148700000Y-187800000D03*
X148700000Y-190600000D03*
X148700000Y-193400000D03*
X148700000Y-196200000D03*
%TD*%
%TO.C,U69*%
X115300000Y-187800000D03*
X115300000Y-190600000D03*
X115300000Y-193400000D03*
X115300000Y-196200000D03*
X124700000Y-187800000D03*
X124700000Y-190600000D03*
X124700000Y-193400000D03*
X124700000Y-196200000D03*
%TD*%
%TO.C,U68*%
X91300000Y-187800000D03*
X91300000Y-190600000D03*
X91300000Y-193400000D03*
X91300000Y-196200000D03*
X100700000Y-187800000D03*
X100700000Y-190600000D03*
X100700000Y-193400000D03*
X100700000Y-196200000D03*
%TD*%
%TO.C,U67*%
X67300000Y-187800000D03*
X67300000Y-190600000D03*
X67300000Y-193400000D03*
X67300000Y-196200000D03*
X76700000Y-187800000D03*
X76700000Y-190600000D03*
X76700000Y-193400000D03*
X76700000Y-196200000D03*
%TD*%
%TO.C,U66*%
X43300000Y-187800000D03*
X43300000Y-190600000D03*
X43300000Y-193400000D03*
X43300000Y-196200000D03*
X52700000Y-187800000D03*
X52700000Y-190600000D03*
X52700000Y-193400000D03*
X52700000Y-196200000D03*
%TD*%
%TO.C,U65*%
X19300000Y-187800000D03*
X19300000Y-190600000D03*
X19300000Y-193400000D03*
X19300000Y-196200000D03*
X28700000Y-187800000D03*
X28700000Y-190600000D03*
X28700000Y-193400000D03*
X28700000Y-196200000D03*
%TD*%
%TO.C,U64*%
X-4700000Y-187800000D03*
X-4700000Y-190600000D03*
X-4700000Y-193400000D03*
X-4700000Y-196200000D03*
X4700000Y-187800000D03*
X4700000Y-190600000D03*
X4700000Y-193400000D03*
X4700000Y-196200000D03*
%TD*%
%TO.C,U81*%
X187300000Y-163800000D03*
X187300000Y-166600000D03*
X187300000Y-169400000D03*
X187300000Y-172200000D03*
X196700000Y-163800000D03*
X196700000Y-166600000D03*
X196700000Y-169400000D03*
X196700000Y-172200000D03*
%TD*%
%TO.C,U80*%
X163300000Y-163800000D03*
X163300000Y-166600000D03*
X163300000Y-169400000D03*
X163300000Y-172200000D03*
X172700000Y-163800000D03*
X172700000Y-166600000D03*
X172700000Y-169400000D03*
X172700000Y-172200000D03*
%TD*%
%TO.C,U79*%
X139300000Y-163800000D03*
X139300000Y-166600000D03*
X139300000Y-169400000D03*
X139300000Y-172200000D03*
X148700000Y-163800000D03*
X148700000Y-166600000D03*
X148700000Y-169400000D03*
X148700000Y-172200000D03*
%TD*%
%TO.C,U78*%
X115300000Y-163800000D03*
X115300000Y-166600000D03*
X115300000Y-169400000D03*
X115300000Y-172200000D03*
X124700000Y-163800000D03*
X124700000Y-166600000D03*
X124700000Y-169400000D03*
X124700000Y-172200000D03*
%TD*%
%TO.C,U77*%
X91300000Y-163800000D03*
X91300000Y-166600000D03*
X91300000Y-169400000D03*
X91300000Y-172200000D03*
X100700000Y-163800000D03*
X100700000Y-166600000D03*
X100700000Y-169400000D03*
X100700000Y-172200000D03*
%TD*%
%TO.C,U76*%
X67300000Y-163800000D03*
X67300000Y-166600000D03*
X67300000Y-169400000D03*
X67300000Y-172200000D03*
X76700000Y-163800000D03*
X76700000Y-166600000D03*
X76700000Y-169400000D03*
X76700000Y-172200000D03*
%TD*%
%TO.C,U75*%
X43300000Y-163800000D03*
X43300000Y-166600000D03*
X43300000Y-169400000D03*
X43300000Y-172200000D03*
X52700000Y-163800000D03*
X52700000Y-166600000D03*
X52700000Y-169400000D03*
X52700000Y-172200000D03*
%TD*%
%TO.C,U74*%
X19300000Y-163800000D03*
X19300000Y-166600000D03*
X19300000Y-169400000D03*
X19300000Y-172200000D03*
X28700000Y-163800000D03*
X28700000Y-166600000D03*
X28700000Y-169400000D03*
X28700000Y-172200000D03*
%TD*%
%TO.C,U73*%
X-4700000Y-163800000D03*
X-4700000Y-166600000D03*
X-4700000Y-169400000D03*
X-4700000Y-172200000D03*
X4700000Y-163800000D03*
X4700000Y-166600000D03*
X4700000Y-169400000D03*
X4700000Y-172200000D03*
%TD*%
%TO.C,U90*%
X187300000Y-139800000D03*
X187300000Y-142600000D03*
X187300000Y-145400000D03*
X187300000Y-148200000D03*
X196700000Y-139800000D03*
X196700000Y-142600000D03*
X196700000Y-145400000D03*
X196700000Y-148200000D03*
%TD*%
%TO.C,U89*%
X163300000Y-139800000D03*
X163300000Y-142600000D03*
X163300000Y-145400000D03*
X163300000Y-148200000D03*
X172700000Y-139800000D03*
X172700000Y-142600000D03*
X172700000Y-145400000D03*
X172700000Y-148200000D03*
%TD*%
%TO.C,U88*%
X139300000Y-139800000D03*
X139300000Y-142600000D03*
X139300000Y-145400000D03*
X139300000Y-148200000D03*
X148700000Y-139800000D03*
X148700000Y-142600000D03*
X148700000Y-145400000D03*
X148700000Y-148200000D03*
%TD*%
%TO.C,U87*%
X115300000Y-139800000D03*
X115300000Y-142600000D03*
X115300000Y-145400000D03*
X115300000Y-148200000D03*
X124700000Y-139800000D03*
X124700000Y-142600000D03*
X124700000Y-145400000D03*
X124700000Y-148200000D03*
%TD*%
%TO.C,U86*%
X91300000Y-139800000D03*
X91300000Y-142600000D03*
X91300000Y-145400000D03*
X91300000Y-148200000D03*
X100700000Y-139800000D03*
X100700000Y-142600000D03*
X100700000Y-145400000D03*
X100700000Y-148200000D03*
%TD*%
%TO.C,U85*%
X67300000Y-139800000D03*
X67300000Y-142600000D03*
X67300000Y-145400000D03*
X67300000Y-148200000D03*
X76700000Y-139800000D03*
X76700000Y-142600000D03*
X76700000Y-145400000D03*
X76700000Y-148200000D03*
%TD*%
%TO.C,U84*%
X43300000Y-139800000D03*
X43300000Y-142600000D03*
X43300000Y-145400000D03*
X43300000Y-148200000D03*
X52700000Y-139800000D03*
X52700000Y-142600000D03*
X52700000Y-145400000D03*
X52700000Y-148200000D03*
%TD*%
%TO.C,U83*%
X19300000Y-139800000D03*
X19300000Y-142600000D03*
X19300000Y-145400000D03*
X19300000Y-148200000D03*
X28700000Y-139800000D03*
X28700000Y-142600000D03*
X28700000Y-145400000D03*
X28700000Y-148200000D03*
%TD*%
%TO.C,U82*%
X-4700000Y-139800000D03*
X-4700000Y-142600000D03*
X-4700000Y-145400000D03*
X-4700000Y-148200000D03*
X4700000Y-139800000D03*
X4700000Y-142600000D03*
X4700000Y-145400000D03*
X4700000Y-148200000D03*
%TD*%
%TO.C,U99*%
X187300000Y-115800000D03*
X187300000Y-118600000D03*
X187300000Y-121400000D03*
X187300000Y-124200000D03*
X196700000Y-115800000D03*
X196700000Y-118600000D03*
X196700000Y-121400000D03*
X196700000Y-124200000D03*
%TD*%
%TO.C,U98*%
X163300000Y-115800000D03*
X163300000Y-118600000D03*
X163300000Y-121400000D03*
X163300000Y-124200000D03*
X172700000Y-115800000D03*
X172700000Y-118600000D03*
X172700000Y-121400000D03*
X172700000Y-124200000D03*
%TD*%
%TO.C,U97*%
X139300000Y-115800000D03*
X139300000Y-118600000D03*
X139300000Y-121400000D03*
X139300000Y-124200000D03*
X148700000Y-115800000D03*
X148700000Y-118600000D03*
X148700000Y-121400000D03*
X148700000Y-124200000D03*
%TD*%
%TO.C,U96*%
X115300000Y-115800000D03*
X115300000Y-118600000D03*
X115300000Y-121400000D03*
X115300000Y-124200000D03*
X124700000Y-115800000D03*
X124700000Y-118600000D03*
X124700000Y-121400000D03*
X124700000Y-124200000D03*
%TD*%
%TO.C,U95*%
X91300000Y-115800000D03*
X91300000Y-118600000D03*
X91300000Y-121400000D03*
X91300000Y-124200000D03*
X100700000Y-115800000D03*
X100700000Y-118600000D03*
X100700000Y-121400000D03*
X100700000Y-124200000D03*
%TD*%
%TO.C,U94*%
X67300000Y-115800000D03*
X67300000Y-118600000D03*
X67300000Y-121400000D03*
X67300000Y-124200000D03*
X76700000Y-115800000D03*
X76700000Y-118600000D03*
X76700000Y-121400000D03*
X76700000Y-124200000D03*
%TD*%
%TO.C,U93*%
X43300000Y-115800000D03*
X43300000Y-118600000D03*
X43300000Y-121400000D03*
X43300000Y-124200000D03*
X52700000Y-115800000D03*
X52700000Y-118600000D03*
X52700000Y-121400000D03*
X52700000Y-124200000D03*
%TD*%
%TO.C,U92*%
X19300000Y-115800000D03*
X19300000Y-118600000D03*
X19300000Y-121400000D03*
X19300000Y-124200000D03*
X28700000Y-115800000D03*
X28700000Y-118600000D03*
X28700000Y-121400000D03*
X28700000Y-124200000D03*
%TD*%
%TO.C,U91*%
X-4700000Y-115800000D03*
X-4700000Y-118600000D03*
X-4700000Y-121400000D03*
X-4700000Y-124200000D03*
X4700000Y-115800000D03*
X4700000Y-118600000D03*
X4700000Y-121400000D03*
X4700000Y-124200000D03*
%TD*%
%TO.C,U108*%
X187300000Y-91800000D03*
X187300000Y-94600000D03*
X187300000Y-97400000D03*
X187300000Y-100200000D03*
X196700000Y-91800000D03*
X196700000Y-94600000D03*
X196700000Y-97400000D03*
X196700000Y-100200000D03*
%TD*%
%TO.C,U107*%
X163300000Y-91800000D03*
X163300000Y-94600000D03*
X163300000Y-97400000D03*
X163300000Y-100200000D03*
X172700000Y-91800000D03*
X172700000Y-94600000D03*
X172700000Y-97400000D03*
X172700000Y-100200000D03*
%TD*%
%TO.C,U106*%
X139300000Y-91800000D03*
X139300000Y-94600000D03*
X139300000Y-97400000D03*
X139300000Y-100200000D03*
X148700000Y-91800000D03*
X148700000Y-94600000D03*
X148700000Y-97400000D03*
X148700000Y-100200000D03*
%TD*%
%TO.C,U105*%
X115300000Y-91800000D03*
X115300000Y-94600000D03*
X115300000Y-97400000D03*
X115300000Y-100200000D03*
X124700000Y-91800000D03*
X124700000Y-94600000D03*
X124700000Y-97400000D03*
X124700000Y-100200000D03*
%TD*%
%TO.C,U104*%
X91300000Y-91800000D03*
X91300000Y-94600000D03*
X91300000Y-97400000D03*
X91300000Y-100200000D03*
X100700000Y-91800000D03*
X100700000Y-94600000D03*
X100700000Y-97400000D03*
X100700000Y-100200000D03*
%TD*%
%TO.C,U103*%
X67300000Y-91800000D03*
X67300000Y-94600000D03*
X67300000Y-97400000D03*
X67300000Y-100200000D03*
X76700000Y-91800000D03*
X76700000Y-94600000D03*
X76700000Y-97400000D03*
X76700000Y-100200000D03*
%TD*%
%TO.C,U102*%
X43300000Y-91800000D03*
X43300000Y-94600000D03*
X43300000Y-97400000D03*
X43300000Y-100200000D03*
X52700000Y-91800000D03*
X52700000Y-94600000D03*
X52700000Y-97400000D03*
X52700000Y-100200000D03*
%TD*%
%TO.C,U101*%
X19300000Y-91800000D03*
X19300000Y-94600000D03*
X19300000Y-97400000D03*
X19300000Y-100200000D03*
X28700000Y-91800000D03*
X28700000Y-94600000D03*
X28700000Y-97400000D03*
X28700000Y-100200000D03*
%TD*%
%TO.C,U100*%
X-4700000Y-91800000D03*
X-4700000Y-94600000D03*
X-4700000Y-97400000D03*
X-4700000Y-100200000D03*
X4700000Y-91800000D03*
X4700000Y-94600000D03*
X4700000Y-97400000D03*
X4700000Y-100200000D03*
%TD*%
%TO.C,U117*%
X187300000Y-67800000D03*
X187300000Y-70600000D03*
X187300000Y-73400000D03*
X187300000Y-76200000D03*
X196700000Y-67800000D03*
X196700000Y-70600000D03*
X196700000Y-73400000D03*
X196700000Y-76200000D03*
%TD*%
%TO.C,U116*%
X163300000Y-67800000D03*
X163300000Y-70600000D03*
X163300000Y-73400000D03*
X163300000Y-76200000D03*
X172700000Y-67800000D03*
X172700000Y-70600000D03*
X172700000Y-73400000D03*
X172700000Y-76200000D03*
%TD*%
%TO.C,U115*%
X139300000Y-67800000D03*
X139300000Y-70600000D03*
X139300000Y-73400000D03*
X139300000Y-76200000D03*
X148700000Y-67800000D03*
X148700000Y-70600000D03*
X148700000Y-73400000D03*
X148700000Y-76200000D03*
%TD*%
%TO.C,U114*%
X115300000Y-67800000D03*
X115300000Y-70600000D03*
X115300000Y-73400000D03*
X115300000Y-76200000D03*
X124700000Y-67800000D03*
X124700000Y-70600000D03*
X124700000Y-73400000D03*
X124700000Y-76200000D03*
%TD*%
%TO.C,U113*%
X91300000Y-67800000D03*
X91300000Y-70600000D03*
X91300000Y-73400000D03*
X91300000Y-76200000D03*
X100700000Y-67800000D03*
X100700000Y-70600000D03*
X100700000Y-73400000D03*
X100700000Y-76200000D03*
%TD*%
%TO.C,U112*%
X67300000Y-67800000D03*
X67300000Y-70600000D03*
X67300000Y-73400000D03*
X67300000Y-76200000D03*
X76700000Y-67800000D03*
X76700000Y-70600000D03*
X76700000Y-73400000D03*
X76700000Y-76200000D03*
%TD*%
%TO.C,U111*%
X52700000Y-76200000D03*
X52700000Y-73400000D03*
X52700000Y-70600000D03*
X52700000Y-67800000D03*
X43300000Y-76200000D03*
X43300000Y-73400000D03*
X43300000Y-70600000D03*
X43300000Y-67800000D03*
%TD*%
%TO.C,U110*%
X19300000Y-67800000D03*
X19300000Y-70600000D03*
X19300000Y-73400000D03*
X19300000Y-76200000D03*
X28700000Y-67800000D03*
X28700000Y-70600000D03*
X28700000Y-73400000D03*
X28700000Y-76200000D03*
%TD*%
%TO.C,U109*%
X-4700000Y-67800000D03*
X-4700000Y-70600000D03*
X-4700000Y-73400000D03*
X-4700000Y-76200000D03*
X4700000Y-67800000D03*
X4700000Y-70600000D03*
X4700000Y-73400000D03*
X4700000Y-76200000D03*
%TD*%
%TO.C,U126*%
X187300000Y-43800000D03*
X187300000Y-46600000D03*
X187300000Y-49400000D03*
X187300000Y-52200000D03*
X196700000Y-43800000D03*
X196700000Y-46600000D03*
X196700000Y-49400000D03*
X196700000Y-52200000D03*
%TD*%
%TO.C,U125*%
X163300000Y-43800000D03*
X163300000Y-46600000D03*
X163300000Y-49400000D03*
X163300000Y-52200000D03*
X172700000Y-43800000D03*
X172700000Y-46600000D03*
X172700000Y-49400000D03*
X172700000Y-52200000D03*
%TD*%
%TO.C,U124*%
X139300000Y-43800000D03*
X139300000Y-46600000D03*
X139300000Y-49400000D03*
X139300000Y-52200000D03*
X148700000Y-43800000D03*
X148700000Y-46600000D03*
X148700000Y-49400000D03*
X148700000Y-52200000D03*
%TD*%
%TO.C,U123*%
X115300000Y-43800000D03*
X115300000Y-46600000D03*
X115300000Y-49400000D03*
X115300000Y-52200000D03*
X124700000Y-43800000D03*
X124700000Y-46600000D03*
X124700000Y-49400000D03*
X124700000Y-52200000D03*
%TD*%
%TO.C,U122*%
X91300000Y-43800000D03*
X91300000Y-46600000D03*
X91300000Y-49400000D03*
X91300000Y-52200000D03*
X100700000Y-43800000D03*
X100700000Y-46600000D03*
X100700000Y-49400000D03*
X100700000Y-52200000D03*
%TD*%
%TO.C,U121*%
X67300000Y-43800000D03*
X67300000Y-46600000D03*
X67300000Y-49400000D03*
X67300000Y-52200000D03*
X76700000Y-43800000D03*
X76700000Y-46600000D03*
X76700000Y-49400000D03*
X76700000Y-52200000D03*
%TD*%
%TO.C,U120*%
X43300000Y-43800000D03*
X43300000Y-46600000D03*
X43300000Y-49400000D03*
X43300000Y-52200000D03*
X52700000Y-43800000D03*
X52700000Y-46600000D03*
X52700000Y-49400000D03*
X52700000Y-52200000D03*
%TD*%
%TO.C,U119*%
X19300000Y-43800000D03*
X19300000Y-46600000D03*
X19300000Y-49400000D03*
X19300000Y-52200000D03*
X28700000Y-43800000D03*
X28700000Y-46600000D03*
X28700000Y-49400000D03*
X28700000Y-52200000D03*
%TD*%
%TO.C,U118*%
X-4700000Y-43800000D03*
X-4700000Y-46600000D03*
X-4700000Y-49400000D03*
X-4700000Y-52200000D03*
X4700000Y-43800000D03*
X4700000Y-46600000D03*
X4700000Y-49400000D03*
X4700000Y-52200000D03*
%TD*%
%TO.C,U135*%
X187300000Y-19800000D03*
X187300000Y-22600000D03*
X187300000Y-25400000D03*
X187300000Y-28200000D03*
X196700000Y-19800000D03*
X196700000Y-22600000D03*
X196700000Y-25400000D03*
X196700000Y-28200000D03*
%TD*%
%TO.C,U134*%
X163300000Y-19800000D03*
X163300000Y-22600000D03*
X163300000Y-25400000D03*
X163300000Y-28200000D03*
X172700000Y-19800000D03*
X172700000Y-22600000D03*
X172700000Y-25400000D03*
X172700000Y-28200000D03*
%TD*%
%TO.C,U133*%
X139300000Y-19800000D03*
X139300000Y-22600000D03*
X139300000Y-25400000D03*
X139300000Y-28200000D03*
X148700000Y-19800000D03*
X148700000Y-22600000D03*
X148700000Y-25400000D03*
X148700000Y-28200000D03*
%TD*%
%TO.C,U132*%
X115300000Y-19800000D03*
X115300000Y-22600000D03*
X115300000Y-25400000D03*
X115300000Y-28200000D03*
X124700000Y-19800000D03*
X124700000Y-22600000D03*
X124700000Y-25400000D03*
X124700000Y-28200000D03*
%TD*%
%TO.C,U131*%
X91300000Y-19800000D03*
X91300000Y-22600000D03*
X91300000Y-25400000D03*
X91300000Y-28200000D03*
X100700000Y-19800000D03*
X100700000Y-22600000D03*
X100700000Y-25400000D03*
X100700000Y-28200000D03*
%TD*%
%TO.C,U130*%
X67300000Y-19800000D03*
X67300000Y-22600000D03*
X67300000Y-25400000D03*
X67300000Y-28200000D03*
X76700000Y-19800000D03*
X76700000Y-22600000D03*
X76700000Y-25400000D03*
X76700000Y-28200000D03*
%TD*%
%TO.C,U129*%
X43300000Y-19800000D03*
X43300000Y-22600000D03*
X43300000Y-25400000D03*
X43300000Y-28200000D03*
X52700000Y-19800000D03*
X52700000Y-22600000D03*
X52700000Y-25400000D03*
X52700000Y-28200000D03*
%TD*%
%TO.C,U128*%
X19300000Y-19800000D03*
X19300000Y-22600000D03*
X19300000Y-25400000D03*
X19300000Y-28200000D03*
X28700000Y-19800000D03*
X28700000Y-22600000D03*
X28700000Y-25400000D03*
X28700000Y-28200000D03*
%TD*%
%TO.C,U127*%
X-4700000Y-19800000D03*
X-4700000Y-22600000D03*
X-4700000Y-25400000D03*
X-4700000Y-28200000D03*
X4700000Y-19800000D03*
X4700000Y-22600000D03*
X4700000Y-25400000D03*
X4700000Y-28200000D03*
%TD*%
%TO.C,U144*%
X187300000Y4200000D03*
X187300000Y1400000D03*
X187300000Y-1400000D03*
X187300000Y-4200000D03*
X196700000Y4200000D03*
X196700000Y1400000D03*
X196700000Y-1400000D03*
X196700000Y-4200000D03*
%TD*%
%TO.C,U143*%
X163300000Y4200000D03*
X163300000Y1400000D03*
X163300000Y-1400000D03*
X163300000Y-4200000D03*
X172700000Y4200000D03*
X172700000Y1400000D03*
X172700000Y-1400000D03*
X172700000Y-4200000D03*
%TD*%
%TO.C,U142*%
X139300000Y4200000D03*
X139300000Y1400000D03*
X139300000Y-1400000D03*
X139300000Y-4200000D03*
X148700000Y4200000D03*
X148700000Y1400000D03*
X148700000Y-1400000D03*
X148700000Y-4200000D03*
%TD*%
%TO.C,U141*%
X115300000Y4200000D03*
X115300000Y1400000D03*
X115300000Y-1400000D03*
X115300000Y-4200000D03*
X124700000Y4200000D03*
X124700000Y1400000D03*
X124700000Y-1400000D03*
X124700000Y-4200000D03*
%TD*%
%TO.C,U140*%
X91300000Y4200000D03*
X91300000Y1400000D03*
X91300000Y-1400000D03*
X91300000Y-4200000D03*
X100700000Y4200000D03*
X100700000Y1400000D03*
X100700000Y-1400000D03*
X100700000Y-4200000D03*
%TD*%
%TO.C,U139*%
X67300000Y4200000D03*
X67300000Y1400000D03*
X67300000Y-1400000D03*
X67300000Y-4200000D03*
X76700000Y4200000D03*
X76700000Y1400000D03*
X76700000Y-1400000D03*
X76700000Y-4200000D03*
%TD*%
%TO.C,U138*%
X43300000Y4200000D03*
X43300000Y1400000D03*
X43300000Y-1400000D03*
X43300000Y-4200000D03*
X52700000Y4200000D03*
X52700000Y1400000D03*
X52700000Y-1400000D03*
X52700000Y-4200000D03*
%TD*%
%TO.C,U137*%
X19300000Y4200000D03*
X19300000Y1400000D03*
X19300000Y-1400000D03*
X19300000Y-4200000D03*
X28700000Y4200000D03*
X28700000Y1400000D03*
X28700000Y-1400000D03*
X28700000Y-4200000D03*
%TD*%
%TO.C,U136*%
X-4700000Y4200000D03*
X-4700000Y1400000D03*
X-4700000Y-1400000D03*
X-4700000Y-4200000D03*
X4700000Y4200000D03*
X4700000Y1400000D03*
X4700000Y-1400000D03*
X4700000Y-4200000D03*
%TD*%
M02*
