%TF.GenerationSoftware,KiCad,Pcbnew,7.0.8*%
%TF.CreationDate,2023-12-09T13:02:36-08:00*%
%TF.ProjectId,LED_board,4c45445f-626f-4617-9264-2e6b69636164,rev?*%
%TF.SameCoordinates,Original*%
%TF.FileFunction,Copper,L1,Top*%
%TF.FilePolarity,Positive*%
%FSLAX46Y46*%
G04 Gerber Fmt 4.6, Leading zero omitted, Abs format (unit mm)*
G04 Created by KiCad (PCBNEW 7.0.8) date 2023-12-09 13:02:36*
%MOMM*%
%LPD*%
G01*
G04 APERTURE LIST*
G04 Aperture macros list*
%AMRoundRect*
0 Rectangle with rounded corners*
0 $1 Rounding radius*
0 $2 $3 $4 $5 $6 $7 $8 $9 X,Y pos of 4 corners*
0 Add a 4 corners polygon primitive as box body*
4,1,4,$2,$3,$4,$5,$6,$7,$8,$9,$2,$3,0*
0 Add four circle primitives for the rounded corners*
1,1,$1+$1,$2,$3*
1,1,$1+$1,$4,$5*
1,1,$1+$1,$6,$7*
1,1,$1+$1,$8,$9*
0 Add four rect primitives between the rounded corners*
20,1,$1+$1,$2,$3,$4,$5,0*
20,1,$1+$1,$4,$5,$6,$7,0*
20,1,$1+$1,$6,$7,$8,$9,0*
20,1,$1+$1,$8,$9,$2,$3,0*%
G04 Aperture macros list end*
%TA.AperFunction,SMDPad,CuDef*%
%ADD10RoundRect,0.381000X0.381000X-0.762000X0.381000X0.762000X-0.381000X0.762000X-0.381000X-0.762000X0*%
%TD*%
%TA.AperFunction,SMDPad,CuDef*%
%ADD11RoundRect,0.381000X-0.762000X-0.381000X0.762000X-0.381000X0.762000X0.381000X-0.762000X0.381000X0*%
%TD*%
%TA.AperFunction,Conductor*%
%ADD12C,0.250000*%
%TD*%
G04 APERTURE END LIST*
D10*
%TO.P,J1,1,Pin_1*%
%TO.N,Net-(J1-Pin_1)*%
X-11240000Y-371720000D03*
%TO.P,J1,2,Pin_2*%
%TO.N,Net-(J1-Pin_2)*%
X-8440000Y-371720000D03*
%TO.P,J1,3,Pin_3*%
%TO.N,Net-(J1-Pin_3)*%
X-5640000Y-371720000D03*
%TO.P,J1,4,Pin_4*%
%TO.N,Net-(J1-Pin_4)*%
X-2840000Y-371720000D03*
%TD*%
D11*
%TO.P,U10,1,Vin*%
%TO.N,Net-(U10-Vin)*%
X-4700000Y-331800000D03*
%TO.P,U10,2,Din*%
%TO.N,Net-(U10-Din)*%
X-4700000Y-334600000D03*
%TO.P,U10,3,Bin*%
%TO.N,Net-(U10-Bin)*%
X-4700000Y-337400000D03*
%TO.P,U10,4,GND*%
%TO.N,Net-(U10-GND-Pad4)*%
X-4700000Y-340200000D03*
%TO.P,U10,5,Vout*%
%TO.N,Net-(U10-Vout)*%
X4700000Y-331800000D03*
%TO.P,U10,6,Dout*%
%TO.N,Net-(U10-Dout)*%
X4700000Y-334600000D03*
%TO.P,U10,7,Bout*%
%TO.N,Net-(U10-Bout)*%
X4700000Y-337400000D03*
%TO.P,U10,8,GND*%
%TO.N,Net-(U10-GND-Pad8)*%
X4700000Y-340200000D03*
%TD*%
%TO.P,U9,1,Vin*%
%TO.N,Net-(U8-Vout)*%
X187300000Y-355800000D03*
%TO.P,U9,2,Din*%
%TO.N,Net-(U8-Dout)*%
X187300000Y-358600000D03*
%TO.P,U9,3,Bin*%
%TO.N,Net-(U8-Bout)*%
X187300000Y-361400000D03*
%TO.P,U9,4,GND*%
%TO.N,Net-(U8-GND-Pad8)*%
X187300000Y-364200000D03*
%TO.P,U9,5,Vout*%
%TO.N,Net-(U10-Vin)*%
X196700000Y-355800000D03*
%TO.P,U9,6,Dout*%
%TO.N,Net-(U10-Din)*%
X196700000Y-358600000D03*
%TO.P,U9,7,Bout*%
%TO.N,Net-(U10-Bin)*%
X196700000Y-361400000D03*
%TO.P,U9,8,GND*%
%TO.N,Net-(U10-GND-Pad4)*%
X196700000Y-364200000D03*
%TD*%
%TO.P,U8,1,Vin*%
%TO.N,Net-(U7-Vout)*%
X163300000Y-355800000D03*
%TO.P,U8,2,Din*%
%TO.N,Net-(U7-Dout)*%
X163300000Y-358600000D03*
%TO.P,U8,3,Bin*%
%TO.N,Net-(U7-Bout)*%
X163300000Y-361400000D03*
%TO.P,U8,4,GND*%
%TO.N,Net-(U7-GND-Pad8)*%
X163300000Y-364200000D03*
%TO.P,U8,5,Vout*%
%TO.N,Net-(U8-Vout)*%
X172700000Y-355800000D03*
%TO.P,U8,6,Dout*%
%TO.N,Net-(U8-Dout)*%
X172700000Y-358600000D03*
%TO.P,U8,7,Bout*%
%TO.N,Net-(U8-Bout)*%
X172700000Y-361400000D03*
%TO.P,U8,8,GND*%
%TO.N,Net-(U8-GND-Pad8)*%
X172700000Y-364200000D03*
%TD*%
%TO.P,U7,1,Vin*%
%TO.N,Net-(U6-Vout)*%
X139300000Y-355800000D03*
%TO.P,U7,2,Din*%
%TO.N,Net-(U6-Dout)*%
X139300000Y-358600000D03*
%TO.P,U7,3,Bin*%
%TO.N,Net-(U6-Bout)*%
X139300000Y-361400000D03*
%TO.P,U7,4,GND*%
%TO.N,Net-(U6-GND-Pad8)*%
X139300000Y-364200000D03*
%TO.P,U7,5,Vout*%
%TO.N,Net-(U7-Vout)*%
X148700000Y-355800000D03*
%TO.P,U7,6,Dout*%
%TO.N,Net-(U7-Dout)*%
X148700000Y-358600000D03*
%TO.P,U7,7,Bout*%
%TO.N,Net-(U7-Bout)*%
X148700000Y-361400000D03*
%TO.P,U7,8,GND*%
%TO.N,Net-(U7-GND-Pad8)*%
X148700000Y-364200000D03*
%TD*%
%TO.P,U6,1,Vin*%
%TO.N,Net-(U5-Vout)*%
X115300000Y-355800000D03*
%TO.P,U6,2,Din*%
%TO.N,Net-(U5-Dout)*%
X115300000Y-358600000D03*
%TO.P,U6,3,Bin*%
%TO.N,Net-(U5-Bout)*%
X115300000Y-361400000D03*
%TO.P,U6,4,GND*%
%TO.N,Net-(U5-GND-Pad8)*%
X115300000Y-364200000D03*
%TO.P,U6,5,Vout*%
%TO.N,Net-(U6-Vout)*%
X124700000Y-355800000D03*
%TO.P,U6,6,Dout*%
%TO.N,Net-(U6-Dout)*%
X124700000Y-358600000D03*
%TO.P,U6,7,Bout*%
%TO.N,Net-(U6-Bout)*%
X124700000Y-361400000D03*
%TO.P,U6,8,GND*%
%TO.N,Net-(U6-GND-Pad8)*%
X124700000Y-364200000D03*
%TD*%
%TO.P,U5,1,Vin*%
%TO.N,Net-(U4-Vout)*%
X91300000Y-355800000D03*
%TO.P,U5,2,Din*%
%TO.N,Net-(U4-Dout)*%
X91300000Y-358600000D03*
%TO.P,U5,3,Bin*%
%TO.N,Net-(U4-Bout)*%
X91300000Y-361400000D03*
%TO.P,U5,4,GND*%
%TO.N,Net-(U4-GND-Pad8)*%
X91300000Y-364200000D03*
%TO.P,U5,5,Vout*%
%TO.N,Net-(U5-Vout)*%
X100700000Y-355800000D03*
%TO.P,U5,6,Dout*%
%TO.N,Net-(U5-Dout)*%
X100700000Y-358600000D03*
%TO.P,U5,7,Bout*%
%TO.N,Net-(U5-Bout)*%
X100700000Y-361400000D03*
%TO.P,U5,8,GND*%
%TO.N,Net-(U5-GND-Pad8)*%
X100700000Y-364200000D03*
%TD*%
%TO.P,U4,1,Vin*%
%TO.N,Net-(U3-Vout)*%
X67300000Y-355800000D03*
%TO.P,U4,2,Din*%
%TO.N,Net-(U3-Dout)*%
X67300000Y-358600000D03*
%TO.P,U4,3,Bin*%
%TO.N,Net-(U3-Bout)*%
X67300000Y-361400000D03*
%TO.P,U4,4,GND*%
%TO.N,Net-(U3-GND-Pad8)*%
X67300000Y-364200000D03*
%TO.P,U4,5,Vout*%
%TO.N,Net-(U4-Vout)*%
X76700000Y-355800000D03*
%TO.P,U4,6,Dout*%
%TO.N,Net-(U4-Dout)*%
X76700000Y-358600000D03*
%TO.P,U4,7,Bout*%
%TO.N,Net-(U4-Bout)*%
X76700000Y-361400000D03*
%TO.P,U4,8,GND*%
%TO.N,Net-(U4-GND-Pad8)*%
X76700000Y-364200000D03*
%TD*%
%TO.P,U3,1,Vin*%
%TO.N,Net-(U2-Vout)*%
X43300000Y-355800000D03*
%TO.P,U3,2,Din*%
%TO.N,Net-(U2-Dout)*%
X43300000Y-358600000D03*
%TO.P,U3,3,Bin*%
%TO.N,Net-(U2-Bout)*%
X43300000Y-361400000D03*
%TO.P,U3,4,GND*%
%TO.N,Net-(U2-GND-Pad8)*%
X43300000Y-364200000D03*
%TO.P,U3,5,Vout*%
%TO.N,Net-(U3-Vout)*%
X52700000Y-355800000D03*
%TO.P,U3,6,Dout*%
%TO.N,Net-(U3-Dout)*%
X52700000Y-358600000D03*
%TO.P,U3,7,Bout*%
%TO.N,Net-(U3-Bout)*%
X52700000Y-361400000D03*
%TO.P,U3,8,GND*%
%TO.N,Net-(U3-GND-Pad8)*%
X52700000Y-364200000D03*
%TD*%
%TO.P,U2,1,Vin*%
%TO.N,Net-(U1-Vout)*%
X19300000Y-355800000D03*
%TO.P,U2,2,Din*%
%TO.N,Net-(U1-Dout)*%
X19300000Y-358600000D03*
%TO.P,U2,3,Bin*%
%TO.N,Net-(U1-Bout)*%
X19300000Y-361400000D03*
%TO.P,U2,4,GND*%
%TO.N,Net-(U1-GND-Pad8)*%
X19300000Y-364200000D03*
%TO.P,U2,5,Vout*%
%TO.N,Net-(U2-Vout)*%
X28700000Y-355800000D03*
%TO.P,U2,6,Dout*%
%TO.N,Net-(U2-Dout)*%
X28700000Y-358600000D03*
%TO.P,U2,7,Bout*%
%TO.N,Net-(U2-Bout)*%
X28700000Y-361400000D03*
%TO.P,U2,8,GND*%
%TO.N,Net-(U2-GND-Pad8)*%
X28700000Y-364200000D03*
%TD*%
%TO.P,U1,1,Vin*%
%TO.N,Net-(J1-Pin_1)*%
X-4700000Y-355800000D03*
%TO.P,U1,2,Din*%
%TO.N,Net-(J1-Pin_2)*%
X-4700000Y-358600000D03*
%TO.P,U1,3,Bin*%
%TO.N,Net-(J1-Pin_3)*%
X-4700000Y-361400000D03*
%TO.P,U1,4,GND*%
%TO.N,Net-(J1-Pin_4)*%
X-4700000Y-364200000D03*
%TO.P,U1,5,Vout*%
%TO.N,Net-(U1-Vout)*%
X4700000Y-355800000D03*
%TO.P,U1,6,Dout*%
%TO.N,Net-(U1-Dout)*%
X4700000Y-358600000D03*
%TO.P,U1,7,Bout*%
%TO.N,Net-(U1-Bout)*%
X4700000Y-361400000D03*
%TO.P,U1,8,GND*%
%TO.N,Net-(U1-GND-Pad8)*%
X4700000Y-364200000D03*
%TD*%
%TO.P,U18,1,Vin*%
%TO.N,Net-(U17-Vout)*%
X187300000Y-331800000D03*
%TO.P,U18,2,Din*%
%TO.N,Net-(U17-Dout)*%
X187300000Y-334600000D03*
%TO.P,U18,3,Bin*%
%TO.N,Net-(U17-Bout)*%
X187300000Y-337400000D03*
%TO.P,U18,4,GND*%
%TO.N,Net-(U17-GND-Pad8)*%
X187300000Y-340200000D03*
%TO.P,U18,5,Vout*%
%TO.N,Net-(U18-Vout)*%
X196700000Y-331800000D03*
%TO.P,U18,6,Dout*%
%TO.N,Net-(U18-Dout)*%
X196700000Y-334600000D03*
%TO.P,U18,7,Bout*%
%TO.N,Net-(U18-Bout)*%
X196700000Y-337400000D03*
%TO.P,U18,8,GND*%
%TO.N,Net-(U18-GND-Pad8)*%
X196700000Y-340200000D03*
%TD*%
%TO.P,U17,1,Vin*%
%TO.N,Net-(U16-Vout)*%
X163300000Y-331800000D03*
%TO.P,U17,2,Din*%
%TO.N,Net-(U16-Dout)*%
X163300000Y-334600000D03*
%TO.P,U17,3,Bin*%
%TO.N,Net-(U16-Bout)*%
X163300000Y-337400000D03*
%TO.P,U17,4,GND*%
%TO.N,Net-(U16-GND-Pad8)*%
X163300000Y-340200000D03*
%TO.P,U17,5,Vout*%
%TO.N,Net-(U17-Vout)*%
X172700000Y-331800000D03*
%TO.P,U17,6,Dout*%
%TO.N,Net-(U17-Dout)*%
X172700000Y-334600000D03*
%TO.P,U17,7,Bout*%
%TO.N,Net-(U17-Bout)*%
X172700000Y-337400000D03*
%TO.P,U17,8,GND*%
%TO.N,Net-(U17-GND-Pad8)*%
X172700000Y-340200000D03*
%TD*%
%TO.P,U16,1,Vin*%
%TO.N,Net-(U15-Vout)*%
X139300000Y-331800000D03*
%TO.P,U16,2,Din*%
%TO.N,Net-(U15-Dout)*%
X139300000Y-334600000D03*
%TO.P,U16,3,Bin*%
%TO.N,Net-(U15-Bout)*%
X139300000Y-337400000D03*
%TO.P,U16,4,GND*%
%TO.N,Net-(U15-GND-Pad8)*%
X139300000Y-340200000D03*
%TO.P,U16,5,Vout*%
%TO.N,Net-(U16-Vout)*%
X148700000Y-331800000D03*
%TO.P,U16,6,Dout*%
%TO.N,Net-(U16-Dout)*%
X148700000Y-334600000D03*
%TO.P,U16,7,Bout*%
%TO.N,Net-(U16-Bout)*%
X148700000Y-337400000D03*
%TO.P,U16,8,GND*%
%TO.N,Net-(U16-GND-Pad8)*%
X148700000Y-340200000D03*
%TD*%
%TO.P,U15,1,Vin*%
%TO.N,Net-(U14-Vout)*%
X115300000Y-331800000D03*
%TO.P,U15,2,Din*%
%TO.N,Net-(U14-Dout)*%
X115300000Y-334600000D03*
%TO.P,U15,3,Bin*%
%TO.N,Net-(U14-Bout)*%
X115300000Y-337400000D03*
%TO.P,U15,4,GND*%
%TO.N,Net-(U14-GND-Pad8)*%
X115300000Y-340200000D03*
%TO.P,U15,5,Vout*%
%TO.N,Net-(U15-Vout)*%
X124700000Y-331800000D03*
%TO.P,U15,6,Dout*%
%TO.N,Net-(U15-Dout)*%
X124700000Y-334600000D03*
%TO.P,U15,7,Bout*%
%TO.N,Net-(U15-Bout)*%
X124700000Y-337400000D03*
%TO.P,U15,8,GND*%
%TO.N,Net-(U15-GND-Pad8)*%
X124700000Y-340200000D03*
%TD*%
%TO.P,U14,1,Vin*%
%TO.N,Net-(U13-Vout)*%
X91300000Y-331800000D03*
%TO.P,U14,2,Din*%
%TO.N,Net-(U13-Dout)*%
X91300000Y-334600000D03*
%TO.P,U14,3,Bin*%
%TO.N,Net-(U13-Bout)*%
X91300000Y-337400000D03*
%TO.P,U14,4,GND*%
%TO.N,Net-(U13-GND-Pad8)*%
X91300000Y-340200000D03*
%TO.P,U14,5,Vout*%
%TO.N,Net-(U14-Vout)*%
X100700000Y-331800000D03*
%TO.P,U14,6,Dout*%
%TO.N,Net-(U14-Dout)*%
X100700000Y-334600000D03*
%TO.P,U14,7,Bout*%
%TO.N,Net-(U14-Bout)*%
X100700000Y-337400000D03*
%TO.P,U14,8,GND*%
%TO.N,Net-(U14-GND-Pad8)*%
X100700000Y-340200000D03*
%TD*%
%TO.P,U13,1,Vin*%
%TO.N,Net-(U12-Vout)*%
X67300000Y-331800000D03*
%TO.P,U13,2,Din*%
%TO.N,Net-(U12-Dout)*%
X67300000Y-334600000D03*
%TO.P,U13,3,Bin*%
%TO.N,Net-(U12-Bout)*%
X67300000Y-337400000D03*
%TO.P,U13,4,GND*%
%TO.N,Net-(U12-GND-Pad8)*%
X67300000Y-340200000D03*
%TO.P,U13,5,Vout*%
%TO.N,Net-(U13-Vout)*%
X76700000Y-331800000D03*
%TO.P,U13,6,Dout*%
%TO.N,Net-(U13-Dout)*%
X76700000Y-334600000D03*
%TO.P,U13,7,Bout*%
%TO.N,Net-(U13-Bout)*%
X76700000Y-337400000D03*
%TO.P,U13,8,GND*%
%TO.N,Net-(U13-GND-Pad8)*%
X76700000Y-340200000D03*
%TD*%
%TO.P,U12,1,Vin*%
%TO.N,Net-(U11-Vout)*%
X43300000Y-331800000D03*
%TO.P,U12,2,Din*%
%TO.N,Net-(U11-Dout)*%
X43300000Y-334600000D03*
%TO.P,U12,3,Bin*%
%TO.N,Net-(U11-Bout)*%
X43300000Y-337400000D03*
%TO.P,U12,4,GND*%
%TO.N,Net-(U11-GND-Pad8)*%
X43300000Y-340200000D03*
%TO.P,U12,5,Vout*%
%TO.N,Net-(U12-Vout)*%
X52700000Y-331800000D03*
%TO.P,U12,6,Dout*%
%TO.N,Net-(U12-Dout)*%
X52700000Y-334600000D03*
%TO.P,U12,7,Bout*%
%TO.N,Net-(U12-Bout)*%
X52700000Y-337400000D03*
%TO.P,U12,8,GND*%
%TO.N,Net-(U12-GND-Pad8)*%
X52700000Y-340200000D03*
%TD*%
%TO.P,U11,1,Vin*%
%TO.N,Net-(U10-Vout)*%
X19300000Y-331800000D03*
%TO.P,U11,2,Din*%
%TO.N,Net-(U10-Dout)*%
X19300000Y-334600000D03*
%TO.P,U11,3,Bin*%
%TO.N,Net-(U10-Bout)*%
X19300000Y-337400000D03*
%TO.P,U11,4,GND*%
%TO.N,Net-(U10-GND-Pad8)*%
X19300000Y-340200000D03*
%TO.P,U11,5,Vout*%
%TO.N,Net-(U11-Vout)*%
X28700000Y-331800000D03*
%TO.P,U11,6,Dout*%
%TO.N,Net-(U11-Dout)*%
X28700000Y-334600000D03*
%TO.P,U11,7,Bout*%
%TO.N,Net-(U11-Bout)*%
X28700000Y-337400000D03*
%TO.P,U11,8,GND*%
%TO.N,Net-(U11-GND-Pad8)*%
X28700000Y-340200000D03*
%TD*%
%TO.P,U27,1,Vin*%
%TO.N,Net-(U26-Vout)*%
X187300000Y-307800000D03*
%TO.P,U27,2,Din*%
%TO.N,Net-(U26-Dout)*%
X187300000Y-310600000D03*
%TO.P,U27,3,Bin*%
%TO.N,Net-(U26-Bout)*%
X187300000Y-313400000D03*
%TO.P,U27,4,GND*%
%TO.N,Net-(U26-GND-Pad8)*%
X187300000Y-316200000D03*
%TO.P,U27,5,Vout*%
%TO.N,Net-(U27-Vout)*%
X196700000Y-307800000D03*
%TO.P,U27,6,Dout*%
%TO.N,Net-(U27-Dout)*%
X196700000Y-310600000D03*
%TO.P,U27,7,Bout*%
%TO.N,Net-(U27-Bout)*%
X196700000Y-313400000D03*
%TO.P,U27,8,GND*%
%TO.N,Net-(U27-GND-Pad8)*%
X196700000Y-316200000D03*
%TD*%
%TO.P,U26,1,Vin*%
%TO.N,Net-(U25-Vout)*%
X163300000Y-307800000D03*
%TO.P,U26,2,Din*%
%TO.N,Net-(U25-Dout)*%
X163300000Y-310600000D03*
%TO.P,U26,3,Bin*%
%TO.N,Net-(U25-Bout)*%
X163300000Y-313400000D03*
%TO.P,U26,4,GND*%
%TO.N,Net-(U25-GND-Pad8)*%
X163300000Y-316200000D03*
%TO.P,U26,5,Vout*%
%TO.N,Net-(U26-Vout)*%
X172700000Y-307800000D03*
%TO.P,U26,6,Dout*%
%TO.N,Net-(U26-Dout)*%
X172700000Y-310600000D03*
%TO.P,U26,7,Bout*%
%TO.N,Net-(U26-Bout)*%
X172700000Y-313400000D03*
%TO.P,U26,8,GND*%
%TO.N,Net-(U26-GND-Pad8)*%
X172700000Y-316200000D03*
%TD*%
%TO.P,U25,1,Vin*%
%TO.N,Net-(U24-Vout)*%
X139300000Y-307800000D03*
%TO.P,U25,2,Din*%
%TO.N,Net-(U24-Dout)*%
X139300000Y-310600000D03*
%TO.P,U25,3,Bin*%
%TO.N,Net-(U24-Bout)*%
X139300000Y-313400000D03*
%TO.P,U25,4,GND*%
%TO.N,Net-(U24-GND-Pad8)*%
X139300000Y-316200000D03*
%TO.P,U25,5,Vout*%
%TO.N,Net-(U25-Vout)*%
X148700000Y-307800000D03*
%TO.P,U25,6,Dout*%
%TO.N,Net-(U25-Dout)*%
X148700000Y-310600000D03*
%TO.P,U25,7,Bout*%
%TO.N,Net-(U25-Bout)*%
X148700000Y-313400000D03*
%TO.P,U25,8,GND*%
%TO.N,Net-(U25-GND-Pad8)*%
X148700000Y-316200000D03*
%TD*%
%TO.P,U24,1,Vin*%
%TO.N,Net-(U23-Vout)*%
X115300000Y-307800000D03*
%TO.P,U24,2,Din*%
%TO.N,Net-(U23-Dout)*%
X115300000Y-310600000D03*
%TO.P,U24,3,Bin*%
%TO.N,Net-(U23-Bout)*%
X115300000Y-313400000D03*
%TO.P,U24,4,GND*%
%TO.N,Net-(U23-GND-Pad8)*%
X115300000Y-316200000D03*
%TO.P,U24,5,Vout*%
%TO.N,Net-(U24-Vout)*%
X124700000Y-307800000D03*
%TO.P,U24,6,Dout*%
%TO.N,Net-(U24-Dout)*%
X124700000Y-310600000D03*
%TO.P,U24,7,Bout*%
%TO.N,Net-(U24-Bout)*%
X124700000Y-313400000D03*
%TO.P,U24,8,GND*%
%TO.N,Net-(U24-GND-Pad8)*%
X124700000Y-316200000D03*
%TD*%
%TO.P,U23,1,Vin*%
%TO.N,Net-(U22-Vout)*%
X91300000Y-307800000D03*
%TO.P,U23,2,Din*%
%TO.N,Net-(U22-Dout)*%
X91300000Y-310600000D03*
%TO.P,U23,3,Bin*%
%TO.N,Net-(U22-Bout)*%
X91300000Y-313400000D03*
%TO.P,U23,4,GND*%
%TO.N,Net-(U22-GND-Pad8)*%
X91300000Y-316200000D03*
%TO.P,U23,5,Vout*%
%TO.N,Net-(U23-Vout)*%
X100700000Y-307800000D03*
%TO.P,U23,6,Dout*%
%TO.N,Net-(U23-Dout)*%
X100700000Y-310600000D03*
%TO.P,U23,7,Bout*%
%TO.N,Net-(U23-Bout)*%
X100700000Y-313400000D03*
%TO.P,U23,8,GND*%
%TO.N,Net-(U23-GND-Pad8)*%
X100700000Y-316200000D03*
%TD*%
%TO.P,U22,1,Vin*%
%TO.N,Net-(U21-Vout)*%
X67300000Y-307800000D03*
%TO.P,U22,2,Din*%
%TO.N,Net-(U21-Dout)*%
X67300000Y-310600000D03*
%TO.P,U22,3,Bin*%
%TO.N,Net-(U21-Bout)*%
X67300000Y-313400000D03*
%TO.P,U22,4,GND*%
%TO.N,Net-(U21-GND-Pad8)*%
X67300000Y-316200000D03*
%TO.P,U22,5,Vout*%
%TO.N,Net-(U22-Vout)*%
X76700000Y-307800000D03*
%TO.P,U22,6,Dout*%
%TO.N,Net-(U22-Dout)*%
X76700000Y-310600000D03*
%TO.P,U22,7,Bout*%
%TO.N,Net-(U22-Bout)*%
X76700000Y-313400000D03*
%TO.P,U22,8,GND*%
%TO.N,Net-(U22-GND-Pad8)*%
X76700000Y-316200000D03*
%TD*%
%TO.P,U21,1,Vin*%
%TO.N,Net-(U20-Vout)*%
X43300000Y-307800000D03*
%TO.P,U21,2,Din*%
%TO.N,Net-(U20-Dout)*%
X43300000Y-310600000D03*
%TO.P,U21,3,Bin*%
%TO.N,Net-(U20-Bout)*%
X43300000Y-313400000D03*
%TO.P,U21,4,GND*%
%TO.N,Net-(U20-GND-Pad8)*%
X43300000Y-316200000D03*
%TO.P,U21,5,Vout*%
%TO.N,Net-(U21-Vout)*%
X52700000Y-307800000D03*
%TO.P,U21,6,Dout*%
%TO.N,Net-(U21-Dout)*%
X52700000Y-310600000D03*
%TO.P,U21,7,Bout*%
%TO.N,Net-(U21-Bout)*%
X52700000Y-313400000D03*
%TO.P,U21,8,GND*%
%TO.N,Net-(U21-GND-Pad8)*%
X52700000Y-316200000D03*
%TD*%
%TO.P,U20,1,Vin*%
%TO.N,Net-(U19-Vout)*%
X19300000Y-307800000D03*
%TO.P,U20,2,Din*%
%TO.N,Net-(U19-Dout)*%
X19300000Y-310600000D03*
%TO.P,U20,3,Bin*%
%TO.N,Net-(U19-Bout)*%
X19300000Y-313400000D03*
%TO.P,U20,4,GND*%
%TO.N,Net-(U19-GND-Pad8)*%
X19300000Y-316200000D03*
%TO.P,U20,5,Vout*%
%TO.N,Net-(U20-Vout)*%
X28700000Y-307800000D03*
%TO.P,U20,6,Dout*%
%TO.N,Net-(U20-Dout)*%
X28700000Y-310600000D03*
%TO.P,U20,7,Bout*%
%TO.N,Net-(U20-Bout)*%
X28700000Y-313400000D03*
%TO.P,U20,8,GND*%
%TO.N,Net-(U20-GND-Pad8)*%
X28700000Y-316200000D03*
%TD*%
%TO.P,U19,1,Vin*%
%TO.N,Net-(U18-Vout)*%
X-4700000Y-307800000D03*
%TO.P,U19,2,Din*%
%TO.N,Net-(U18-Dout)*%
X-4700000Y-310600000D03*
%TO.P,U19,3,Bin*%
%TO.N,Net-(U18-Bout)*%
X-4700000Y-313400000D03*
%TO.P,U19,4,GND*%
%TO.N,Net-(U18-GND-Pad8)*%
X-4700000Y-316200000D03*
%TO.P,U19,5,Vout*%
%TO.N,Net-(U19-Vout)*%
X4700000Y-307800000D03*
%TO.P,U19,6,Dout*%
%TO.N,Net-(U19-Dout)*%
X4700000Y-310600000D03*
%TO.P,U19,7,Bout*%
%TO.N,Net-(U19-Bout)*%
X4700000Y-313400000D03*
%TO.P,U19,8,GND*%
%TO.N,Net-(U19-GND-Pad8)*%
X4700000Y-316200000D03*
%TD*%
%TO.P,U36,1,Vin*%
%TO.N,Net-(U35-Vout)*%
X187300000Y-283800000D03*
%TO.P,U36,2,Din*%
%TO.N,Net-(U35-Dout)*%
X187300000Y-286600000D03*
%TO.P,U36,3,Bin*%
%TO.N,Net-(U35-Bout)*%
X187300000Y-289400000D03*
%TO.P,U36,4,GND*%
%TO.N,Net-(U35-GND-Pad8)*%
X187300000Y-292200000D03*
%TO.P,U36,5,Vout*%
%TO.N,Net-(U36-Vout)*%
X196700000Y-283800000D03*
%TO.P,U36,6,Dout*%
%TO.N,Net-(U36-Dout)*%
X196700000Y-286600000D03*
%TO.P,U36,7,Bout*%
%TO.N,Net-(U36-Bout)*%
X196700000Y-289400000D03*
%TO.P,U36,8,GND*%
%TO.N,Net-(U36-GND-Pad8)*%
X196700000Y-292200000D03*
%TD*%
%TO.P,U35,1,Vin*%
%TO.N,Net-(U34-Vout)*%
X163300000Y-283800000D03*
%TO.P,U35,2,Din*%
%TO.N,Net-(U34-Dout)*%
X163300000Y-286600000D03*
%TO.P,U35,3,Bin*%
%TO.N,Net-(U34-Bout)*%
X163300000Y-289400000D03*
%TO.P,U35,4,GND*%
%TO.N,Net-(U34-GND-Pad8)*%
X163300000Y-292200000D03*
%TO.P,U35,5,Vout*%
%TO.N,Net-(U35-Vout)*%
X172700000Y-283800000D03*
%TO.P,U35,6,Dout*%
%TO.N,Net-(U35-Dout)*%
X172700000Y-286600000D03*
%TO.P,U35,7,Bout*%
%TO.N,Net-(U35-Bout)*%
X172700000Y-289400000D03*
%TO.P,U35,8,GND*%
%TO.N,Net-(U35-GND-Pad8)*%
X172700000Y-292200000D03*
%TD*%
%TO.P,U34,1,Vin*%
%TO.N,Net-(U33-Vout)*%
X139300000Y-283800000D03*
%TO.P,U34,2,Din*%
%TO.N,Net-(U33-Dout)*%
X139300000Y-286600000D03*
%TO.P,U34,3,Bin*%
%TO.N,Net-(U33-Bout)*%
X139300000Y-289400000D03*
%TO.P,U34,4,GND*%
%TO.N,Net-(U33-GND-Pad8)*%
X139300000Y-292200000D03*
%TO.P,U34,5,Vout*%
%TO.N,Net-(U34-Vout)*%
X148700000Y-283800000D03*
%TO.P,U34,6,Dout*%
%TO.N,Net-(U34-Dout)*%
X148700000Y-286600000D03*
%TO.P,U34,7,Bout*%
%TO.N,Net-(U34-Bout)*%
X148700000Y-289400000D03*
%TO.P,U34,8,GND*%
%TO.N,Net-(U34-GND-Pad8)*%
X148700000Y-292200000D03*
%TD*%
%TO.P,U33,1,Vin*%
%TO.N,Net-(U32-Vout)*%
X115300000Y-283800000D03*
%TO.P,U33,2,Din*%
%TO.N,Net-(U32-Dout)*%
X115300000Y-286600000D03*
%TO.P,U33,3,Bin*%
%TO.N,Net-(U32-Bout)*%
X115300000Y-289400000D03*
%TO.P,U33,4,GND*%
%TO.N,Net-(U32-GND-Pad8)*%
X115300000Y-292200000D03*
%TO.P,U33,5,Vout*%
%TO.N,Net-(U33-Vout)*%
X124700000Y-283800000D03*
%TO.P,U33,6,Dout*%
%TO.N,Net-(U33-Dout)*%
X124700000Y-286600000D03*
%TO.P,U33,7,Bout*%
%TO.N,Net-(U33-Bout)*%
X124700000Y-289400000D03*
%TO.P,U33,8,GND*%
%TO.N,Net-(U33-GND-Pad8)*%
X124700000Y-292200000D03*
%TD*%
%TO.P,U32,1,Vin*%
%TO.N,Net-(U31-Vout)*%
X91300000Y-283800000D03*
%TO.P,U32,2,Din*%
%TO.N,Net-(U31-Dout)*%
X91300000Y-286600000D03*
%TO.P,U32,3,Bin*%
%TO.N,Net-(U31-Bout)*%
X91300000Y-289400000D03*
%TO.P,U32,4,GND*%
%TO.N,Net-(U31-GND-Pad8)*%
X91300000Y-292200000D03*
%TO.P,U32,5,Vout*%
%TO.N,Net-(U32-Vout)*%
X100700000Y-283800000D03*
%TO.P,U32,6,Dout*%
%TO.N,Net-(U32-Dout)*%
X100700000Y-286600000D03*
%TO.P,U32,7,Bout*%
%TO.N,Net-(U32-Bout)*%
X100700000Y-289400000D03*
%TO.P,U32,8,GND*%
%TO.N,Net-(U32-GND-Pad8)*%
X100700000Y-292200000D03*
%TD*%
%TO.P,U31,1,Vin*%
%TO.N,Net-(U30-Vout)*%
X67300000Y-283800000D03*
%TO.P,U31,2,Din*%
%TO.N,Net-(U30-Dout)*%
X67300000Y-286600000D03*
%TO.P,U31,3,Bin*%
%TO.N,Net-(U30-Bout)*%
X67300000Y-289400000D03*
%TO.P,U31,4,GND*%
%TO.N,Net-(U30-GND-Pad8)*%
X67300000Y-292200000D03*
%TO.P,U31,5,Vout*%
%TO.N,Net-(U31-Vout)*%
X76700000Y-283800000D03*
%TO.P,U31,6,Dout*%
%TO.N,Net-(U31-Dout)*%
X76700000Y-286600000D03*
%TO.P,U31,7,Bout*%
%TO.N,Net-(U31-Bout)*%
X76700000Y-289400000D03*
%TO.P,U31,8,GND*%
%TO.N,Net-(U31-GND-Pad8)*%
X76700000Y-292200000D03*
%TD*%
%TO.P,U30,1,Vin*%
%TO.N,Net-(U29-Vout)*%
X43300000Y-283800000D03*
%TO.P,U30,2,Din*%
%TO.N,Net-(U29-Dout)*%
X43300000Y-286600000D03*
%TO.P,U30,3,Bin*%
%TO.N,Net-(U29-Bout)*%
X43300000Y-289400000D03*
%TO.P,U30,4,GND*%
%TO.N,Net-(U29-GND-Pad8)*%
X43300000Y-292200000D03*
%TO.P,U30,5,Vout*%
%TO.N,Net-(U30-Vout)*%
X52700000Y-283800000D03*
%TO.P,U30,6,Dout*%
%TO.N,Net-(U30-Dout)*%
X52700000Y-286600000D03*
%TO.P,U30,7,Bout*%
%TO.N,Net-(U30-Bout)*%
X52700000Y-289400000D03*
%TO.P,U30,8,GND*%
%TO.N,Net-(U30-GND-Pad8)*%
X52700000Y-292200000D03*
%TD*%
%TO.P,U29,1,Vin*%
%TO.N,Net-(U28-Vout)*%
X19300000Y-283800000D03*
%TO.P,U29,2,Din*%
%TO.N,Net-(U28-Dout)*%
X19300000Y-286600000D03*
%TO.P,U29,3,Bin*%
%TO.N,Net-(U28-Bout)*%
X19300000Y-289400000D03*
%TO.P,U29,4,GND*%
%TO.N,Net-(U28-GND-Pad8)*%
X19300000Y-292200000D03*
%TO.P,U29,5,Vout*%
%TO.N,Net-(U29-Vout)*%
X28700000Y-283800000D03*
%TO.P,U29,6,Dout*%
%TO.N,Net-(U29-Dout)*%
X28700000Y-286600000D03*
%TO.P,U29,7,Bout*%
%TO.N,Net-(U29-Bout)*%
X28700000Y-289400000D03*
%TO.P,U29,8,GND*%
%TO.N,Net-(U29-GND-Pad8)*%
X28700000Y-292200000D03*
%TD*%
%TO.P,U28,1,Vin*%
%TO.N,Net-(U27-Vout)*%
X-4700000Y-283800000D03*
%TO.P,U28,2,Din*%
%TO.N,Net-(U27-Dout)*%
X-4700000Y-286600000D03*
%TO.P,U28,3,Bin*%
%TO.N,Net-(U27-Bout)*%
X-4700000Y-289400000D03*
%TO.P,U28,4,GND*%
%TO.N,Net-(U27-GND-Pad8)*%
X-4700000Y-292200000D03*
%TO.P,U28,5,Vout*%
%TO.N,Net-(U28-Vout)*%
X4700000Y-283800000D03*
%TO.P,U28,6,Dout*%
%TO.N,Net-(U28-Dout)*%
X4700000Y-286600000D03*
%TO.P,U28,7,Bout*%
%TO.N,Net-(U28-Bout)*%
X4700000Y-289400000D03*
%TO.P,U28,8,GND*%
%TO.N,Net-(U28-GND-Pad8)*%
X4700000Y-292200000D03*
%TD*%
%TO.P,U45,1,Vin*%
%TO.N,Net-(U44-Vout)*%
X187300000Y-259800000D03*
%TO.P,U45,2,Din*%
%TO.N,Net-(U44-Dout)*%
X187300000Y-262600000D03*
%TO.P,U45,3,Bin*%
%TO.N,Net-(U44-Bout)*%
X187300000Y-265400000D03*
%TO.P,U45,4,GND*%
%TO.N,Net-(U44-GND-Pad8)*%
X187300000Y-268200000D03*
%TO.P,U45,5,Vout*%
%TO.N,Net-(U45-Vout)*%
X196700000Y-259800000D03*
%TO.P,U45,6,Dout*%
%TO.N,Net-(U45-Dout)*%
X196700000Y-262600000D03*
%TO.P,U45,7,Bout*%
%TO.N,Net-(U45-Bout)*%
X196700000Y-265400000D03*
%TO.P,U45,8,GND*%
%TO.N,Net-(U45-GND-Pad8)*%
X196700000Y-268200000D03*
%TD*%
%TO.P,U44,1,Vin*%
%TO.N,Net-(U43-Vout)*%
X163300000Y-259800000D03*
%TO.P,U44,2,Din*%
%TO.N,Net-(U43-Dout)*%
X163300000Y-262600000D03*
%TO.P,U44,3,Bin*%
%TO.N,Net-(U43-Bout)*%
X163300000Y-265400000D03*
%TO.P,U44,4,GND*%
%TO.N,Net-(U43-GND-Pad8)*%
X163300000Y-268200000D03*
%TO.P,U44,5,Vout*%
%TO.N,Net-(U44-Vout)*%
X172700000Y-259800000D03*
%TO.P,U44,6,Dout*%
%TO.N,Net-(U44-Dout)*%
X172700000Y-262600000D03*
%TO.P,U44,7,Bout*%
%TO.N,Net-(U44-Bout)*%
X172700000Y-265400000D03*
%TO.P,U44,8,GND*%
%TO.N,Net-(U44-GND-Pad8)*%
X172700000Y-268200000D03*
%TD*%
%TO.P,U43,1,Vin*%
%TO.N,Net-(U42-Vout)*%
X139300000Y-259800000D03*
%TO.P,U43,2,Din*%
%TO.N,Net-(U42-Dout)*%
X139300000Y-262600000D03*
%TO.P,U43,3,Bin*%
%TO.N,Net-(U42-Bout)*%
X139300000Y-265400000D03*
%TO.P,U43,4,GND*%
%TO.N,Net-(U42-GND-Pad8)*%
X139300000Y-268200000D03*
%TO.P,U43,5,Vout*%
%TO.N,Net-(U43-Vout)*%
X148700000Y-259800000D03*
%TO.P,U43,6,Dout*%
%TO.N,Net-(U43-Dout)*%
X148700000Y-262600000D03*
%TO.P,U43,7,Bout*%
%TO.N,Net-(U43-Bout)*%
X148700000Y-265400000D03*
%TO.P,U43,8,GND*%
%TO.N,Net-(U43-GND-Pad8)*%
X148700000Y-268200000D03*
%TD*%
%TO.P,U42,1,Vin*%
%TO.N,Net-(U41-Vout)*%
X115300000Y-259800000D03*
%TO.P,U42,2,Din*%
%TO.N,Net-(U41-Dout)*%
X115300000Y-262600000D03*
%TO.P,U42,3,Bin*%
%TO.N,Net-(U41-Bout)*%
X115300000Y-265400000D03*
%TO.P,U42,4,GND*%
%TO.N,Net-(U41-GND-Pad8)*%
X115300000Y-268200000D03*
%TO.P,U42,5,Vout*%
%TO.N,Net-(U42-Vout)*%
X124700000Y-259800000D03*
%TO.P,U42,6,Dout*%
%TO.N,Net-(U42-Dout)*%
X124700000Y-262600000D03*
%TO.P,U42,7,Bout*%
%TO.N,Net-(U42-Bout)*%
X124700000Y-265400000D03*
%TO.P,U42,8,GND*%
%TO.N,Net-(U42-GND-Pad8)*%
X124700000Y-268200000D03*
%TD*%
%TO.P,U41,1,Vin*%
%TO.N,Net-(U40-Vout)*%
X91300000Y-259800000D03*
%TO.P,U41,2,Din*%
%TO.N,Net-(U40-Dout)*%
X91300000Y-262600000D03*
%TO.P,U41,3,Bin*%
%TO.N,Net-(U40-Bout)*%
X91300000Y-265400000D03*
%TO.P,U41,4,GND*%
%TO.N,Net-(U40-GND-Pad8)*%
X91300000Y-268200000D03*
%TO.P,U41,5,Vout*%
%TO.N,Net-(U41-Vout)*%
X100700000Y-259800000D03*
%TO.P,U41,6,Dout*%
%TO.N,Net-(U41-Dout)*%
X100700000Y-262600000D03*
%TO.P,U41,7,Bout*%
%TO.N,Net-(U41-Bout)*%
X100700000Y-265400000D03*
%TO.P,U41,8,GND*%
%TO.N,Net-(U41-GND-Pad8)*%
X100700000Y-268200000D03*
%TD*%
%TO.P,U40,1,Vin*%
%TO.N,Net-(U39-Vout)*%
X67300000Y-259800000D03*
%TO.P,U40,2,Din*%
%TO.N,Net-(U39-Dout)*%
X67300000Y-262600000D03*
%TO.P,U40,3,Bin*%
%TO.N,Net-(U39-Bout)*%
X67300000Y-265400000D03*
%TO.P,U40,4,GND*%
%TO.N,Net-(U39-GND-Pad8)*%
X67300000Y-268200000D03*
%TO.P,U40,5,Vout*%
%TO.N,Net-(U40-Vout)*%
X76700000Y-259800000D03*
%TO.P,U40,6,Dout*%
%TO.N,Net-(U40-Dout)*%
X76700000Y-262600000D03*
%TO.P,U40,7,Bout*%
%TO.N,Net-(U40-Bout)*%
X76700000Y-265400000D03*
%TO.P,U40,8,GND*%
%TO.N,Net-(U40-GND-Pad8)*%
X76700000Y-268200000D03*
%TD*%
%TO.P,U39,1,Vin*%
%TO.N,Net-(U38-Vout)*%
X43300000Y-259800000D03*
%TO.P,U39,2,Din*%
%TO.N,Net-(U38-Dout)*%
X43300000Y-262600000D03*
%TO.P,U39,3,Bin*%
%TO.N,Net-(U38-Bout)*%
X43300000Y-265400000D03*
%TO.P,U39,4,GND*%
%TO.N,Net-(U38-GND-Pad8)*%
X43300000Y-268200000D03*
%TO.P,U39,5,Vout*%
%TO.N,Net-(U39-Vout)*%
X52700000Y-259800000D03*
%TO.P,U39,6,Dout*%
%TO.N,Net-(U39-Dout)*%
X52700000Y-262600000D03*
%TO.P,U39,7,Bout*%
%TO.N,Net-(U39-Bout)*%
X52700000Y-265400000D03*
%TO.P,U39,8,GND*%
%TO.N,Net-(U39-GND-Pad8)*%
X52700000Y-268200000D03*
%TD*%
%TO.P,U38,1,Vin*%
%TO.N,Net-(U37-Vout)*%
X19300000Y-259800000D03*
%TO.P,U38,2,Din*%
%TO.N,Net-(U37-Dout)*%
X19300000Y-262600000D03*
%TO.P,U38,3,Bin*%
%TO.N,Net-(U37-Bout)*%
X19300000Y-265400000D03*
%TO.P,U38,4,GND*%
%TO.N,Net-(U37-GND-Pad8)*%
X19300000Y-268200000D03*
%TO.P,U38,5,Vout*%
%TO.N,Net-(U38-Vout)*%
X28700000Y-259800000D03*
%TO.P,U38,6,Dout*%
%TO.N,Net-(U38-Dout)*%
X28700000Y-262600000D03*
%TO.P,U38,7,Bout*%
%TO.N,Net-(U38-Bout)*%
X28700000Y-265400000D03*
%TO.P,U38,8,GND*%
%TO.N,Net-(U38-GND-Pad8)*%
X28700000Y-268200000D03*
%TD*%
%TO.P,U37,1,Vin*%
%TO.N,Net-(U36-Vout)*%
X-4700000Y-259800000D03*
%TO.P,U37,2,Din*%
%TO.N,Net-(U36-Dout)*%
X-4700000Y-262600000D03*
%TO.P,U37,3,Bin*%
%TO.N,Net-(U36-Bout)*%
X-4700000Y-265400000D03*
%TO.P,U37,4,GND*%
%TO.N,Net-(U36-GND-Pad8)*%
X-4700000Y-268200000D03*
%TO.P,U37,5,Vout*%
%TO.N,Net-(U37-Vout)*%
X4700000Y-259800000D03*
%TO.P,U37,6,Dout*%
%TO.N,Net-(U37-Dout)*%
X4700000Y-262600000D03*
%TO.P,U37,7,Bout*%
%TO.N,Net-(U37-Bout)*%
X4700000Y-265400000D03*
%TO.P,U37,8,GND*%
%TO.N,Net-(U37-GND-Pad8)*%
X4700000Y-268200000D03*
%TD*%
%TO.P,U54,1,Vin*%
%TO.N,Net-(U53-Vout)*%
X187300000Y-235800000D03*
%TO.P,U54,2,Din*%
%TO.N,Net-(U53-Dout)*%
X187300000Y-238600000D03*
%TO.P,U54,3,Bin*%
%TO.N,Net-(U53-Bout)*%
X187300000Y-241400000D03*
%TO.P,U54,4,GND*%
%TO.N,Net-(U53-GND-Pad8)*%
X187300000Y-244200000D03*
%TO.P,U54,5,Vout*%
%TO.N,Net-(U54-Vout)*%
X196700000Y-235800000D03*
%TO.P,U54,6,Dout*%
%TO.N,Net-(U54-Dout)*%
X196700000Y-238600000D03*
%TO.P,U54,7,Bout*%
%TO.N,Net-(U54-Bout)*%
X196700000Y-241400000D03*
%TO.P,U54,8,GND*%
%TO.N,Net-(U54-GND-Pad8)*%
X196700000Y-244200000D03*
%TD*%
%TO.P,U53,1,Vin*%
%TO.N,Net-(U52-Vout)*%
X163300000Y-235800000D03*
%TO.P,U53,2,Din*%
%TO.N,Net-(U52-Dout)*%
X163300000Y-238600000D03*
%TO.P,U53,3,Bin*%
%TO.N,Net-(U52-Bout)*%
X163300000Y-241400000D03*
%TO.P,U53,4,GND*%
%TO.N,Net-(U52-GND-Pad8)*%
X163300000Y-244200000D03*
%TO.P,U53,5,Vout*%
%TO.N,Net-(U53-Vout)*%
X172700000Y-235800000D03*
%TO.P,U53,6,Dout*%
%TO.N,Net-(U53-Dout)*%
X172700000Y-238600000D03*
%TO.P,U53,7,Bout*%
%TO.N,Net-(U53-Bout)*%
X172700000Y-241400000D03*
%TO.P,U53,8,GND*%
%TO.N,Net-(U53-GND-Pad8)*%
X172700000Y-244200000D03*
%TD*%
%TO.P,U52,1,Vin*%
%TO.N,Net-(U51-Vout)*%
X139300000Y-235800000D03*
%TO.P,U52,2,Din*%
%TO.N,Net-(U51-Dout)*%
X139300000Y-238600000D03*
%TO.P,U52,3,Bin*%
%TO.N,Net-(U51-Bout)*%
X139300000Y-241400000D03*
%TO.P,U52,4,GND*%
%TO.N,Net-(U51-GND-Pad8)*%
X139300000Y-244200000D03*
%TO.P,U52,5,Vout*%
%TO.N,Net-(U52-Vout)*%
X148700000Y-235800000D03*
%TO.P,U52,6,Dout*%
%TO.N,Net-(U52-Dout)*%
X148700000Y-238600000D03*
%TO.P,U52,7,Bout*%
%TO.N,Net-(U52-Bout)*%
X148700000Y-241400000D03*
%TO.P,U52,8,GND*%
%TO.N,Net-(U52-GND-Pad8)*%
X148700000Y-244200000D03*
%TD*%
%TO.P,U51,1,Vin*%
%TO.N,Net-(U50-Vout)*%
X115300000Y-235800000D03*
%TO.P,U51,2,Din*%
%TO.N,Net-(U50-Dout)*%
X115300000Y-238600000D03*
%TO.P,U51,3,Bin*%
%TO.N,Net-(U50-Bout)*%
X115300000Y-241400000D03*
%TO.P,U51,4,GND*%
%TO.N,Net-(U50-GND-Pad8)*%
X115300000Y-244200000D03*
%TO.P,U51,5,Vout*%
%TO.N,Net-(U51-Vout)*%
X124700000Y-235800000D03*
%TO.P,U51,6,Dout*%
%TO.N,Net-(U51-Dout)*%
X124700000Y-238600000D03*
%TO.P,U51,7,Bout*%
%TO.N,Net-(U51-Bout)*%
X124700000Y-241400000D03*
%TO.P,U51,8,GND*%
%TO.N,Net-(U51-GND-Pad8)*%
X124700000Y-244200000D03*
%TD*%
%TO.P,U50,1,Vin*%
%TO.N,Net-(U49-Vout)*%
X91300000Y-235800000D03*
%TO.P,U50,2,Din*%
%TO.N,Net-(U49-Dout)*%
X91300000Y-238600000D03*
%TO.P,U50,3,Bin*%
%TO.N,Net-(U49-Bout)*%
X91300000Y-241400000D03*
%TO.P,U50,4,GND*%
%TO.N,Net-(U49-GND-Pad8)*%
X91300000Y-244200000D03*
%TO.P,U50,5,Vout*%
%TO.N,Net-(U50-Vout)*%
X100700000Y-235800000D03*
%TO.P,U50,6,Dout*%
%TO.N,Net-(U50-Dout)*%
X100700000Y-238600000D03*
%TO.P,U50,7,Bout*%
%TO.N,Net-(U50-Bout)*%
X100700000Y-241400000D03*
%TO.P,U50,8,GND*%
%TO.N,Net-(U50-GND-Pad8)*%
X100700000Y-244200000D03*
%TD*%
%TO.P,U49,1,Vin*%
%TO.N,Net-(U48-Vout)*%
X67300000Y-235800000D03*
%TO.P,U49,2,Din*%
%TO.N,Net-(U48-Dout)*%
X67300000Y-238600000D03*
%TO.P,U49,3,Bin*%
%TO.N,Net-(U48-Bout)*%
X67300000Y-241400000D03*
%TO.P,U49,4,GND*%
%TO.N,Net-(U48-GND-Pad8)*%
X67300000Y-244200000D03*
%TO.P,U49,5,Vout*%
%TO.N,Net-(U49-Vout)*%
X76700000Y-235800000D03*
%TO.P,U49,6,Dout*%
%TO.N,Net-(U49-Dout)*%
X76700000Y-238600000D03*
%TO.P,U49,7,Bout*%
%TO.N,Net-(U49-Bout)*%
X76700000Y-241400000D03*
%TO.P,U49,8,GND*%
%TO.N,Net-(U49-GND-Pad8)*%
X76700000Y-244200000D03*
%TD*%
%TO.P,U48,1,Vin*%
%TO.N,Net-(U47-Vout)*%
X43300000Y-235800000D03*
%TO.P,U48,2,Din*%
%TO.N,Net-(U47-Dout)*%
X43300000Y-238600000D03*
%TO.P,U48,3,Bin*%
%TO.N,Net-(U47-Bout)*%
X43300000Y-241400000D03*
%TO.P,U48,4,GND*%
%TO.N,Net-(U47-GND-Pad8)*%
X43300000Y-244200000D03*
%TO.P,U48,5,Vout*%
%TO.N,Net-(U48-Vout)*%
X52700000Y-235800000D03*
%TO.P,U48,6,Dout*%
%TO.N,Net-(U48-Dout)*%
X52700000Y-238600000D03*
%TO.P,U48,7,Bout*%
%TO.N,Net-(U48-Bout)*%
X52700000Y-241400000D03*
%TO.P,U48,8,GND*%
%TO.N,Net-(U48-GND-Pad8)*%
X52700000Y-244200000D03*
%TD*%
%TO.P,U47,1,Vin*%
%TO.N,Net-(U46-Vout)*%
X19300000Y-235800000D03*
%TO.P,U47,2,Din*%
%TO.N,Net-(U46-Dout)*%
X19300000Y-238600000D03*
%TO.P,U47,3,Bin*%
%TO.N,Net-(U46-Bout)*%
X19300000Y-241400000D03*
%TO.P,U47,4,GND*%
%TO.N,Net-(U46-GND-Pad8)*%
X19300000Y-244200000D03*
%TO.P,U47,5,Vout*%
%TO.N,Net-(U47-Vout)*%
X28700000Y-235800000D03*
%TO.P,U47,6,Dout*%
%TO.N,Net-(U47-Dout)*%
X28700000Y-238600000D03*
%TO.P,U47,7,Bout*%
%TO.N,Net-(U47-Bout)*%
X28700000Y-241400000D03*
%TO.P,U47,8,GND*%
%TO.N,Net-(U47-GND-Pad8)*%
X28700000Y-244200000D03*
%TD*%
%TO.P,U46,1,Vin*%
%TO.N,Net-(U45-Vout)*%
X-4700000Y-235800000D03*
%TO.P,U46,2,Din*%
%TO.N,Net-(U45-Dout)*%
X-4700000Y-238600000D03*
%TO.P,U46,3,Bin*%
%TO.N,Net-(U45-Bout)*%
X-4700000Y-241400000D03*
%TO.P,U46,4,GND*%
%TO.N,Net-(U45-GND-Pad8)*%
X-4700000Y-244200000D03*
%TO.P,U46,5,Vout*%
%TO.N,Net-(U46-Vout)*%
X4700000Y-235800000D03*
%TO.P,U46,6,Dout*%
%TO.N,Net-(U46-Dout)*%
X4700000Y-238600000D03*
%TO.P,U46,7,Bout*%
%TO.N,Net-(U46-Bout)*%
X4700000Y-241400000D03*
%TO.P,U46,8,GND*%
%TO.N,Net-(U46-GND-Pad8)*%
X4700000Y-244200000D03*
%TD*%
%TO.P,U63,1,Vin*%
%TO.N,Net-(U62-Vout)*%
X187300000Y-211800000D03*
%TO.P,U63,2,Din*%
%TO.N,Net-(U62-Dout)*%
X187300000Y-214600000D03*
%TO.P,U63,3,Bin*%
%TO.N,Net-(U62-Bout)*%
X187300000Y-217400000D03*
%TO.P,U63,4,GND*%
%TO.N,Net-(U62-GND-Pad8)*%
X187300000Y-220200000D03*
%TO.P,U63,5,Vout*%
%TO.N,Net-(U63-Vout)*%
X196700000Y-211800000D03*
%TO.P,U63,6,Dout*%
%TO.N,Net-(U63-Dout)*%
X196700000Y-214600000D03*
%TO.P,U63,7,Bout*%
%TO.N,Net-(U63-Bout)*%
X196700000Y-217400000D03*
%TO.P,U63,8,GND*%
%TO.N,Net-(U63-GND-Pad8)*%
X196700000Y-220200000D03*
%TD*%
%TO.P,U62,1,Vin*%
%TO.N,Net-(U61-Vout)*%
X163300000Y-211800000D03*
%TO.P,U62,2,Din*%
%TO.N,Net-(U61-Dout)*%
X163300000Y-214600000D03*
%TO.P,U62,3,Bin*%
%TO.N,Net-(U61-Bout)*%
X163300000Y-217400000D03*
%TO.P,U62,4,GND*%
%TO.N,Net-(U61-GND-Pad8)*%
X163300000Y-220200000D03*
%TO.P,U62,5,Vout*%
%TO.N,Net-(U62-Vout)*%
X172700000Y-211800000D03*
%TO.P,U62,6,Dout*%
%TO.N,Net-(U62-Dout)*%
X172700000Y-214600000D03*
%TO.P,U62,7,Bout*%
%TO.N,Net-(U62-Bout)*%
X172700000Y-217400000D03*
%TO.P,U62,8,GND*%
%TO.N,Net-(U62-GND-Pad8)*%
X172700000Y-220200000D03*
%TD*%
%TO.P,U61,1,Vin*%
%TO.N,Net-(U60-Vout)*%
X139300000Y-211800000D03*
%TO.P,U61,2,Din*%
%TO.N,Net-(U60-Dout)*%
X139300000Y-214600000D03*
%TO.P,U61,3,Bin*%
%TO.N,Net-(U60-Bout)*%
X139300000Y-217400000D03*
%TO.P,U61,4,GND*%
%TO.N,Net-(U60-GND-Pad8)*%
X139300000Y-220200000D03*
%TO.P,U61,5,Vout*%
%TO.N,Net-(U61-Vout)*%
X148700000Y-211800000D03*
%TO.P,U61,6,Dout*%
%TO.N,Net-(U61-Dout)*%
X148700000Y-214600000D03*
%TO.P,U61,7,Bout*%
%TO.N,Net-(U61-Bout)*%
X148700000Y-217400000D03*
%TO.P,U61,8,GND*%
%TO.N,Net-(U61-GND-Pad8)*%
X148700000Y-220200000D03*
%TD*%
%TO.P,U60,1,Vin*%
%TO.N,Net-(U59-Vout)*%
X115300000Y-211800000D03*
%TO.P,U60,2,Din*%
%TO.N,Net-(U59-Dout)*%
X115300000Y-214600000D03*
%TO.P,U60,3,Bin*%
%TO.N,Net-(U59-Bout)*%
X115300000Y-217400000D03*
%TO.P,U60,4,GND*%
%TO.N,Net-(U59-GND-Pad8)*%
X115300000Y-220200000D03*
%TO.P,U60,5,Vout*%
%TO.N,Net-(U60-Vout)*%
X124700000Y-211800000D03*
%TO.P,U60,6,Dout*%
%TO.N,Net-(U60-Dout)*%
X124700000Y-214600000D03*
%TO.P,U60,7,Bout*%
%TO.N,Net-(U60-Bout)*%
X124700000Y-217400000D03*
%TO.P,U60,8,GND*%
%TO.N,Net-(U60-GND-Pad8)*%
X124700000Y-220200000D03*
%TD*%
%TO.P,U59,1,Vin*%
%TO.N,Net-(U58-Vout)*%
X91300000Y-211800000D03*
%TO.P,U59,2,Din*%
%TO.N,Net-(U58-Dout)*%
X91300000Y-214600000D03*
%TO.P,U59,3,Bin*%
%TO.N,Net-(U58-Bout)*%
X91300000Y-217400000D03*
%TO.P,U59,4,GND*%
%TO.N,Net-(U58-GND-Pad8)*%
X91300000Y-220200000D03*
%TO.P,U59,5,Vout*%
%TO.N,Net-(U59-Vout)*%
X100700000Y-211800000D03*
%TO.P,U59,6,Dout*%
%TO.N,Net-(U59-Dout)*%
X100700000Y-214600000D03*
%TO.P,U59,7,Bout*%
%TO.N,Net-(U59-Bout)*%
X100700000Y-217400000D03*
%TO.P,U59,8,GND*%
%TO.N,Net-(U59-GND-Pad8)*%
X100700000Y-220200000D03*
%TD*%
%TO.P,U58,1,Vin*%
%TO.N,Net-(U57-Vout)*%
X67300000Y-211800000D03*
%TO.P,U58,2,Din*%
%TO.N,Net-(U57-Dout)*%
X67300000Y-214600000D03*
%TO.P,U58,3,Bin*%
%TO.N,Net-(U57-Bout)*%
X67300000Y-217400000D03*
%TO.P,U58,4,GND*%
%TO.N,Net-(U57-GND-Pad8)*%
X67300000Y-220200000D03*
%TO.P,U58,5,Vout*%
%TO.N,Net-(U58-Vout)*%
X76700000Y-211800000D03*
%TO.P,U58,6,Dout*%
%TO.N,Net-(U58-Dout)*%
X76700000Y-214600000D03*
%TO.P,U58,7,Bout*%
%TO.N,Net-(U58-Bout)*%
X76700000Y-217400000D03*
%TO.P,U58,8,GND*%
%TO.N,Net-(U58-GND-Pad8)*%
X76700000Y-220200000D03*
%TD*%
%TO.P,U57,1,Vin*%
%TO.N,Net-(U56-Vout)*%
X43300000Y-211800000D03*
%TO.P,U57,2,Din*%
%TO.N,Net-(U56-Dout)*%
X43300000Y-214600000D03*
%TO.P,U57,3,Bin*%
%TO.N,Net-(U56-Bout)*%
X43300000Y-217400000D03*
%TO.P,U57,4,GND*%
%TO.N,Net-(U56-GND-Pad8)*%
X43300000Y-220200000D03*
%TO.P,U57,5,Vout*%
%TO.N,Net-(U57-Vout)*%
X52700000Y-211800000D03*
%TO.P,U57,6,Dout*%
%TO.N,Net-(U57-Dout)*%
X52700000Y-214600000D03*
%TO.P,U57,7,Bout*%
%TO.N,Net-(U57-Bout)*%
X52700000Y-217400000D03*
%TO.P,U57,8,GND*%
%TO.N,Net-(U57-GND-Pad8)*%
X52700000Y-220200000D03*
%TD*%
%TO.P,U56,1,Vin*%
%TO.N,Net-(U55-Vout)*%
X19300000Y-211800000D03*
%TO.P,U56,2,Din*%
%TO.N,Net-(U55-Dout)*%
X19300000Y-214600000D03*
%TO.P,U56,3,Bin*%
%TO.N,Net-(U55-Bout)*%
X19300000Y-217400000D03*
%TO.P,U56,4,GND*%
%TO.N,Net-(U55-GND-Pad8)*%
X19300000Y-220200000D03*
%TO.P,U56,5,Vout*%
%TO.N,Net-(U56-Vout)*%
X28700000Y-211800000D03*
%TO.P,U56,6,Dout*%
%TO.N,Net-(U56-Dout)*%
X28700000Y-214600000D03*
%TO.P,U56,7,Bout*%
%TO.N,Net-(U56-Bout)*%
X28700000Y-217400000D03*
%TO.P,U56,8,GND*%
%TO.N,Net-(U56-GND-Pad8)*%
X28700000Y-220200000D03*
%TD*%
%TO.P,U55,1,Vin*%
%TO.N,Net-(U54-Vout)*%
X-4700000Y-211800000D03*
%TO.P,U55,2,Din*%
%TO.N,Net-(U54-Dout)*%
X-4700000Y-214600000D03*
%TO.P,U55,3,Bin*%
%TO.N,Net-(U54-Bout)*%
X-4700000Y-217400000D03*
%TO.P,U55,4,GND*%
%TO.N,Net-(U54-GND-Pad8)*%
X-4700000Y-220200000D03*
%TO.P,U55,5,Vout*%
%TO.N,Net-(U55-Vout)*%
X4700000Y-211800000D03*
%TO.P,U55,6,Dout*%
%TO.N,Net-(U55-Dout)*%
X4700000Y-214600000D03*
%TO.P,U55,7,Bout*%
%TO.N,Net-(U55-Bout)*%
X4700000Y-217400000D03*
%TO.P,U55,8,GND*%
%TO.N,Net-(U55-GND-Pad8)*%
X4700000Y-220200000D03*
%TD*%
%TO.P,U72,1,Vin*%
%TO.N,Net-(U71-Vout)*%
X187300000Y-187800000D03*
%TO.P,U72,2,Din*%
%TO.N,Net-(U71-Dout)*%
X187300000Y-190600000D03*
%TO.P,U72,3,Bin*%
%TO.N,Net-(U71-Bout)*%
X187300000Y-193400000D03*
%TO.P,U72,4,GND*%
%TO.N,Net-(U71-GND-Pad8)*%
X187300000Y-196200000D03*
%TO.P,U72,5,Vout*%
%TO.N,Net-(U72-Vout)*%
X196700000Y-187800000D03*
%TO.P,U72,6,Dout*%
%TO.N,Net-(U72-Dout)*%
X196700000Y-190600000D03*
%TO.P,U72,7,Bout*%
%TO.N,Net-(U72-Bout)*%
X196700000Y-193400000D03*
%TO.P,U72,8,GND*%
%TO.N,Net-(U72-GND-Pad8)*%
X196700000Y-196200000D03*
%TD*%
%TO.P,U71,1,Vin*%
%TO.N,Net-(U70-Vout)*%
X163300000Y-187800000D03*
%TO.P,U71,2,Din*%
%TO.N,Net-(U70-Dout)*%
X163300000Y-190600000D03*
%TO.P,U71,3,Bin*%
%TO.N,Net-(U70-Bout)*%
X163300000Y-193400000D03*
%TO.P,U71,4,GND*%
%TO.N,Net-(U70-GND-Pad8)*%
X163300000Y-196200000D03*
%TO.P,U71,5,Vout*%
%TO.N,Net-(U71-Vout)*%
X172700000Y-187800000D03*
%TO.P,U71,6,Dout*%
%TO.N,Net-(U71-Dout)*%
X172700000Y-190600000D03*
%TO.P,U71,7,Bout*%
%TO.N,Net-(U71-Bout)*%
X172700000Y-193400000D03*
%TO.P,U71,8,GND*%
%TO.N,Net-(U71-GND-Pad8)*%
X172700000Y-196200000D03*
%TD*%
%TO.P,U70,1,Vin*%
%TO.N,Net-(U69-Vout)*%
X139300000Y-187800000D03*
%TO.P,U70,2,Din*%
%TO.N,Net-(U69-Dout)*%
X139300000Y-190600000D03*
%TO.P,U70,3,Bin*%
%TO.N,Net-(U69-Bout)*%
X139300000Y-193400000D03*
%TO.P,U70,4,GND*%
%TO.N,Net-(U69-GND-Pad8)*%
X139300000Y-196200000D03*
%TO.P,U70,5,Vout*%
%TO.N,Net-(U70-Vout)*%
X148700000Y-187800000D03*
%TO.P,U70,6,Dout*%
%TO.N,Net-(U70-Dout)*%
X148700000Y-190600000D03*
%TO.P,U70,7,Bout*%
%TO.N,Net-(U70-Bout)*%
X148700000Y-193400000D03*
%TO.P,U70,8,GND*%
%TO.N,Net-(U70-GND-Pad8)*%
X148700000Y-196200000D03*
%TD*%
%TO.P,U69,1,Vin*%
%TO.N,Net-(U68-Vout)*%
X115300000Y-187800000D03*
%TO.P,U69,2,Din*%
%TO.N,Net-(U68-Dout)*%
X115300000Y-190600000D03*
%TO.P,U69,3,Bin*%
%TO.N,Net-(U68-Bout)*%
X115300000Y-193400000D03*
%TO.P,U69,4,GND*%
%TO.N,Net-(U68-GND-Pad8)*%
X115300000Y-196200000D03*
%TO.P,U69,5,Vout*%
%TO.N,Net-(U69-Vout)*%
X124700000Y-187800000D03*
%TO.P,U69,6,Dout*%
%TO.N,Net-(U69-Dout)*%
X124700000Y-190600000D03*
%TO.P,U69,7,Bout*%
%TO.N,Net-(U69-Bout)*%
X124700000Y-193400000D03*
%TO.P,U69,8,GND*%
%TO.N,Net-(U69-GND-Pad8)*%
X124700000Y-196200000D03*
%TD*%
%TO.P,U68,1,Vin*%
%TO.N,Net-(U67-Vout)*%
X91300000Y-187800000D03*
%TO.P,U68,2,Din*%
%TO.N,Net-(U67-Dout)*%
X91300000Y-190600000D03*
%TO.P,U68,3,Bin*%
%TO.N,Net-(U67-Bout)*%
X91300000Y-193400000D03*
%TO.P,U68,4,GND*%
%TO.N,Net-(U67-GND-Pad8)*%
X91300000Y-196200000D03*
%TO.P,U68,5,Vout*%
%TO.N,Net-(U68-Vout)*%
X100700000Y-187800000D03*
%TO.P,U68,6,Dout*%
%TO.N,Net-(U68-Dout)*%
X100700000Y-190600000D03*
%TO.P,U68,7,Bout*%
%TO.N,Net-(U68-Bout)*%
X100700000Y-193400000D03*
%TO.P,U68,8,GND*%
%TO.N,Net-(U68-GND-Pad8)*%
X100700000Y-196200000D03*
%TD*%
%TO.P,U67,1,Vin*%
%TO.N,Net-(U66-Vout)*%
X67300000Y-187800000D03*
%TO.P,U67,2,Din*%
%TO.N,Net-(U66-Dout)*%
X67300000Y-190600000D03*
%TO.P,U67,3,Bin*%
%TO.N,Net-(U66-Bout)*%
X67300000Y-193400000D03*
%TO.P,U67,4,GND*%
%TO.N,Net-(U66-GND-Pad8)*%
X67300000Y-196200000D03*
%TO.P,U67,5,Vout*%
%TO.N,Net-(U67-Vout)*%
X76700000Y-187800000D03*
%TO.P,U67,6,Dout*%
%TO.N,Net-(U67-Dout)*%
X76700000Y-190600000D03*
%TO.P,U67,7,Bout*%
%TO.N,Net-(U67-Bout)*%
X76700000Y-193400000D03*
%TO.P,U67,8,GND*%
%TO.N,Net-(U67-GND-Pad8)*%
X76700000Y-196200000D03*
%TD*%
%TO.P,U66,1,Vin*%
%TO.N,Net-(U65-Vout)*%
X43300000Y-187800000D03*
%TO.P,U66,2,Din*%
%TO.N,Net-(U65-Dout)*%
X43300000Y-190600000D03*
%TO.P,U66,3,Bin*%
%TO.N,Net-(U65-Bout)*%
X43300000Y-193400000D03*
%TO.P,U66,4,GND*%
%TO.N,Net-(U65-GND-Pad8)*%
X43300000Y-196200000D03*
%TO.P,U66,5,Vout*%
%TO.N,Net-(U66-Vout)*%
X52700000Y-187800000D03*
%TO.P,U66,6,Dout*%
%TO.N,Net-(U66-Dout)*%
X52700000Y-190600000D03*
%TO.P,U66,7,Bout*%
%TO.N,Net-(U66-Bout)*%
X52700000Y-193400000D03*
%TO.P,U66,8,GND*%
%TO.N,Net-(U66-GND-Pad8)*%
X52700000Y-196200000D03*
%TD*%
%TO.P,U65,1,Vin*%
%TO.N,Net-(U64-Vout)*%
X19300000Y-187800000D03*
%TO.P,U65,2,Din*%
%TO.N,Net-(U64-Dout)*%
X19300000Y-190600000D03*
%TO.P,U65,3,Bin*%
%TO.N,Net-(U64-Bout)*%
X19300000Y-193400000D03*
%TO.P,U65,4,GND*%
%TO.N,Net-(U64-GND-Pad8)*%
X19300000Y-196200000D03*
%TO.P,U65,5,Vout*%
%TO.N,Net-(U65-Vout)*%
X28700000Y-187800000D03*
%TO.P,U65,6,Dout*%
%TO.N,Net-(U65-Dout)*%
X28700000Y-190600000D03*
%TO.P,U65,7,Bout*%
%TO.N,Net-(U65-Bout)*%
X28700000Y-193400000D03*
%TO.P,U65,8,GND*%
%TO.N,Net-(U65-GND-Pad8)*%
X28700000Y-196200000D03*
%TD*%
%TO.P,U64,1,Vin*%
%TO.N,Net-(U63-Vout)*%
X-4700000Y-187800000D03*
%TO.P,U64,2,Din*%
%TO.N,Net-(U63-Dout)*%
X-4700000Y-190600000D03*
%TO.P,U64,3,Bin*%
%TO.N,Net-(U63-Bout)*%
X-4700000Y-193400000D03*
%TO.P,U64,4,GND*%
%TO.N,Net-(U63-GND-Pad8)*%
X-4700000Y-196200000D03*
%TO.P,U64,5,Vout*%
%TO.N,Net-(U64-Vout)*%
X4700000Y-187800000D03*
%TO.P,U64,6,Dout*%
%TO.N,Net-(U64-Dout)*%
X4700000Y-190600000D03*
%TO.P,U64,7,Bout*%
%TO.N,Net-(U64-Bout)*%
X4700000Y-193400000D03*
%TO.P,U64,8,GND*%
%TO.N,Net-(U64-GND-Pad8)*%
X4700000Y-196200000D03*
%TD*%
%TO.P,U81,1,Vin*%
%TO.N,Net-(U80-Vout)*%
X187300000Y-163800000D03*
%TO.P,U81,2,Din*%
%TO.N,Net-(U80-Dout)*%
X187300000Y-166600000D03*
%TO.P,U81,3,Bin*%
%TO.N,Net-(U80-Bout)*%
X187300000Y-169400000D03*
%TO.P,U81,4,GND*%
%TO.N,Net-(U80-GND-Pad8)*%
X187300000Y-172200000D03*
%TO.P,U81,5,Vout*%
%TO.N,Net-(U81-Vout)*%
X196700000Y-163800000D03*
%TO.P,U81,6,Dout*%
%TO.N,Net-(U81-Dout)*%
X196700000Y-166600000D03*
%TO.P,U81,7,Bout*%
%TO.N,Net-(U81-Bout)*%
X196700000Y-169400000D03*
%TO.P,U81,8,GND*%
%TO.N,Net-(U81-GND-Pad8)*%
X196700000Y-172200000D03*
%TD*%
%TO.P,U80,1,Vin*%
%TO.N,Net-(U79-Vout)*%
X163300000Y-163800000D03*
%TO.P,U80,2,Din*%
%TO.N,Net-(U79-Dout)*%
X163300000Y-166600000D03*
%TO.P,U80,3,Bin*%
%TO.N,Net-(U79-Bout)*%
X163300000Y-169400000D03*
%TO.P,U80,4,GND*%
%TO.N,Net-(U79-GND-Pad8)*%
X163300000Y-172200000D03*
%TO.P,U80,5,Vout*%
%TO.N,Net-(U80-Vout)*%
X172700000Y-163800000D03*
%TO.P,U80,6,Dout*%
%TO.N,Net-(U80-Dout)*%
X172700000Y-166600000D03*
%TO.P,U80,7,Bout*%
%TO.N,Net-(U80-Bout)*%
X172700000Y-169400000D03*
%TO.P,U80,8,GND*%
%TO.N,Net-(U80-GND-Pad8)*%
X172700000Y-172200000D03*
%TD*%
%TO.P,U79,1,Vin*%
%TO.N,Net-(U78-Vout)*%
X139300000Y-163800000D03*
%TO.P,U79,2,Din*%
%TO.N,Net-(U78-Dout)*%
X139300000Y-166600000D03*
%TO.P,U79,3,Bin*%
%TO.N,Net-(U78-Bout)*%
X139300000Y-169400000D03*
%TO.P,U79,4,GND*%
%TO.N,Net-(U78-GND-Pad8)*%
X139300000Y-172200000D03*
%TO.P,U79,5,Vout*%
%TO.N,Net-(U79-Vout)*%
X148700000Y-163800000D03*
%TO.P,U79,6,Dout*%
%TO.N,Net-(U79-Dout)*%
X148700000Y-166600000D03*
%TO.P,U79,7,Bout*%
%TO.N,Net-(U79-Bout)*%
X148700000Y-169400000D03*
%TO.P,U79,8,GND*%
%TO.N,Net-(U79-GND-Pad8)*%
X148700000Y-172200000D03*
%TD*%
%TO.P,U78,1,Vin*%
%TO.N,Net-(U77-Vout)*%
X115300000Y-163800000D03*
%TO.P,U78,2,Din*%
%TO.N,Net-(U77-Dout)*%
X115300000Y-166600000D03*
%TO.P,U78,3,Bin*%
%TO.N,Net-(U77-Bout)*%
X115300000Y-169400000D03*
%TO.P,U78,4,GND*%
%TO.N,Net-(U77-GND-Pad8)*%
X115300000Y-172200000D03*
%TO.P,U78,5,Vout*%
%TO.N,Net-(U78-Vout)*%
X124700000Y-163800000D03*
%TO.P,U78,6,Dout*%
%TO.N,Net-(U78-Dout)*%
X124700000Y-166600000D03*
%TO.P,U78,7,Bout*%
%TO.N,Net-(U78-Bout)*%
X124700000Y-169400000D03*
%TO.P,U78,8,GND*%
%TO.N,Net-(U78-GND-Pad8)*%
X124700000Y-172200000D03*
%TD*%
%TO.P,U77,1,Vin*%
%TO.N,Net-(U76-Vout)*%
X91300000Y-163800000D03*
%TO.P,U77,2,Din*%
%TO.N,Net-(U76-Dout)*%
X91300000Y-166600000D03*
%TO.P,U77,3,Bin*%
%TO.N,Net-(U76-Bout)*%
X91300000Y-169400000D03*
%TO.P,U77,4,GND*%
%TO.N,Net-(U76-GND-Pad8)*%
X91300000Y-172200000D03*
%TO.P,U77,5,Vout*%
%TO.N,Net-(U77-Vout)*%
X100700000Y-163800000D03*
%TO.P,U77,6,Dout*%
%TO.N,Net-(U77-Dout)*%
X100700000Y-166600000D03*
%TO.P,U77,7,Bout*%
%TO.N,Net-(U77-Bout)*%
X100700000Y-169400000D03*
%TO.P,U77,8,GND*%
%TO.N,Net-(U77-GND-Pad8)*%
X100700000Y-172200000D03*
%TD*%
%TO.P,U76,1,Vin*%
%TO.N,Net-(U75-Vout)*%
X67300000Y-163800000D03*
%TO.P,U76,2,Din*%
%TO.N,Net-(U75-Dout)*%
X67300000Y-166600000D03*
%TO.P,U76,3,Bin*%
%TO.N,Net-(U75-Bout)*%
X67300000Y-169400000D03*
%TO.P,U76,4,GND*%
%TO.N,Net-(U75-GND-Pad8)*%
X67300000Y-172200000D03*
%TO.P,U76,5,Vout*%
%TO.N,Net-(U76-Vout)*%
X76700000Y-163800000D03*
%TO.P,U76,6,Dout*%
%TO.N,Net-(U76-Dout)*%
X76700000Y-166600000D03*
%TO.P,U76,7,Bout*%
%TO.N,Net-(U76-Bout)*%
X76700000Y-169400000D03*
%TO.P,U76,8,GND*%
%TO.N,Net-(U76-GND-Pad8)*%
X76700000Y-172200000D03*
%TD*%
%TO.P,U75,1,Vin*%
%TO.N,Net-(U74-Vout)*%
X43300000Y-163800000D03*
%TO.P,U75,2,Din*%
%TO.N,Net-(U74-Dout)*%
X43300000Y-166600000D03*
%TO.P,U75,3,Bin*%
%TO.N,Net-(U74-Bout)*%
X43300000Y-169400000D03*
%TO.P,U75,4,GND*%
%TO.N,Net-(U74-GND-Pad8)*%
X43300000Y-172200000D03*
%TO.P,U75,5,Vout*%
%TO.N,Net-(U75-Vout)*%
X52700000Y-163800000D03*
%TO.P,U75,6,Dout*%
%TO.N,Net-(U75-Dout)*%
X52700000Y-166600000D03*
%TO.P,U75,7,Bout*%
%TO.N,Net-(U75-Bout)*%
X52700000Y-169400000D03*
%TO.P,U75,8,GND*%
%TO.N,Net-(U75-GND-Pad8)*%
X52700000Y-172200000D03*
%TD*%
%TO.P,U74,1,Vin*%
%TO.N,Net-(U73-Vout)*%
X19300000Y-163800000D03*
%TO.P,U74,2,Din*%
%TO.N,Net-(U73-Dout)*%
X19300000Y-166600000D03*
%TO.P,U74,3,Bin*%
%TO.N,Net-(U73-Bout)*%
X19300000Y-169400000D03*
%TO.P,U74,4,GND*%
%TO.N,Net-(U73-GND-Pad8)*%
X19300000Y-172200000D03*
%TO.P,U74,5,Vout*%
%TO.N,Net-(U74-Vout)*%
X28700000Y-163800000D03*
%TO.P,U74,6,Dout*%
%TO.N,Net-(U74-Dout)*%
X28700000Y-166600000D03*
%TO.P,U74,7,Bout*%
%TO.N,Net-(U74-Bout)*%
X28700000Y-169400000D03*
%TO.P,U74,8,GND*%
%TO.N,Net-(U74-GND-Pad8)*%
X28700000Y-172200000D03*
%TD*%
%TO.P,U73,1,Vin*%
%TO.N,Net-(U72-Vout)*%
X-4700000Y-163800000D03*
%TO.P,U73,2,Din*%
%TO.N,Net-(U72-Dout)*%
X-4700000Y-166600000D03*
%TO.P,U73,3,Bin*%
%TO.N,Net-(U72-Bout)*%
X-4700000Y-169400000D03*
%TO.P,U73,4,GND*%
%TO.N,Net-(U72-GND-Pad8)*%
X-4700000Y-172200000D03*
%TO.P,U73,5,Vout*%
%TO.N,Net-(U73-Vout)*%
X4700000Y-163800000D03*
%TO.P,U73,6,Dout*%
%TO.N,Net-(U73-Dout)*%
X4700000Y-166600000D03*
%TO.P,U73,7,Bout*%
%TO.N,Net-(U73-Bout)*%
X4700000Y-169400000D03*
%TO.P,U73,8,GND*%
%TO.N,Net-(U73-GND-Pad8)*%
X4700000Y-172200000D03*
%TD*%
%TO.P,U90,1,Vin*%
%TO.N,Net-(U89-Vout)*%
X187300000Y-139800000D03*
%TO.P,U90,2,Din*%
%TO.N,Net-(U89-Dout)*%
X187300000Y-142600000D03*
%TO.P,U90,3,Bin*%
%TO.N,Net-(U89-Bout)*%
X187300000Y-145400000D03*
%TO.P,U90,4,GND*%
%TO.N,Net-(U89-GND-Pad8)*%
X187300000Y-148200000D03*
%TO.P,U90,5,Vout*%
%TO.N,Net-(U90-Vout)*%
X196700000Y-139800000D03*
%TO.P,U90,6,Dout*%
%TO.N,Net-(U90-Dout)*%
X196700000Y-142600000D03*
%TO.P,U90,7,Bout*%
%TO.N,Net-(U90-Bout)*%
X196700000Y-145400000D03*
%TO.P,U90,8,GND*%
%TO.N,Net-(U90-GND-Pad8)*%
X196700000Y-148200000D03*
%TD*%
%TO.P,U89,1,Vin*%
%TO.N,Net-(U88-Vout)*%
X163300000Y-139800000D03*
%TO.P,U89,2,Din*%
%TO.N,Net-(U88-Dout)*%
X163300000Y-142600000D03*
%TO.P,U89,3,Bin*%
%TO.N,Net-(U88-Bout)*%
X163300000Y-145400000D03*
%TO.P,U89,4,GND*%
%TO.N,Net-(U88-GND-Pad8)*%
X163300000Y-148200000D03*
%TO.P,U89,5,Vout*%
%TO.N,Net-(U89-Vout)*%
X172700000Y-139800000D03*
%TO.P,U89,6,Dout*%
%TO.N,Net-(U89-Dout)*%
X172700000Y-142600000D03*
%TO.P,U89,7,Bout*%
%TO.N,Net-(U89-Bout)*%
X172700000Y-145400000D03*
%TO.P,U89,8,GND*%
%TO.N,Net-(U89-GND-Pad8)*%
X172700000Y-148200000D03*
%TD*%
%TO.P,U88,1,Vin*%
%TO.N,Net-(U87-Vout)*%
X139300000Y-139800000D03*
%TO.P,U88,2,Din*%
%TO.N,Net-(U87-Dout)*%
X139300000Y-142600000D03*
%TO.P,U88,3,Bin*%
%TO.N,Net-(U87-Bout)*%
X139300000Y-145400000D03*
%TO.P,U88,4,GND*%
%TO.N,Net-(U87-GND-Pad8)*%
X139300000Y-148200000D03*
%TO.P,U88,5,Vout*%
%TO.N,Net-(U88-Vout)*%
X148700000Y-139800000D03*
%TO.P,U88,6,Dout*%
%TO.N,Net-(U88-Dout)*%
X148700000Y-142600000D03*
%TO.P,U88,7,Bout*%
%TO.N,Net-(U88-Bout)*%
X148700000Y-145400000D03*
%TO.P,U88,8,GND*%
%TO.N,Net-(U88-GND-Pad8)*%
X148700000Y-148200000D03*
%TD*%
%TO.P,U87,1,Vin*%
%TO.N,Net-(U86-Vout)*%
X115300000Y-139800000D03*
%TO.P,U87,2,Din*%
%TO.N,Net-(U86-Dout)*%
X115300000Y-142600000D03*
%TO.P,U87,3,Bin*%
%TO.N,Net-(U86-Bout)*%
X115300000Y-145400000D03*
%TO.P,U87,4,GND*%
%TO.N,Net-(U86-GND-Pad8)*%
X115300000Y-148200000D03*
%TO.P,U87,5,Vout*%
%TO.N,Net-(U87-Vout)*%
X124700000Y-139800000D03*
%TO.P,U87,6,Dout*%
%TO.N,Net-(U87-Dout)*%
X124700000Y-142600000D03*
%TO.P,U87,7,Bout*%
%TO.N,Net-(U87-Bout)*%
X124700000Y-145400000D03*
%TO.P,U87,8,GND*%
%TO.N,Net-(U87-GND-Pad8)*%
X124700000Y-148200000D03*
%TD*%
%TO.P,U86,1,Vin*%
%TO.N,Net-(U85-Vout)*%
X91300000Y-139800000D03*
%TO.P,U86,2,Din*%
%TO.N,Net-(U85-Dout)*%
X91300000Y-142600000D03*
%TO.P,U86,3,Bin*%
%TO.N,Net-(U85-Bout)*%
X91300000Y-145400000D03*
%TO.P,U86,4,GND*%
%TO.N,Net-(U85-GND-Pad8)*%
X91300000Y-148200000D03*
%TO.P,U86,5,Vout*%
%TO.N,Net-(U86-Vout)*%
X100700000Y-139800000D03*
%TO.P,U86,6,Dout*%
%TO.N,Net-(U86-Dout)*%
X100700000Y-142600000D03*
%TO.P,U86,7,Bout*%
%TO.N,Net-(U86-Bout)*%
X100700000Y-145400000D03*
%TO.P,U86,8,GND*%
%TO.N,Net-(U86-GND-Pad8)*%
X100700000Y-148200000D03*
%TD*%
%TO.P,U85,1,Vin*%
%TO.N,Net-(U84-Vout)*%
X67300000Y-139800000D03*
%TO.P,U85,2,Din*%
%TO.N,Net-(U84-Dout)*%
X67300000Y-142600000D03*
%TO.P,U85,3,Bin*%
%TO.N,Net-(U84-Bout)*%
X67300000Y-145400000D03*
%TO.P,U85,4,GND*%
%TO.N,Net-(U84-GND-Pad8)*%
X67300000Y-148200000D03*
%TO.P,U85,5,Vout*%
%TO.N,Net-(U85-Vout)*%
X76700000Y-139800000D03*
%TO.P,U85,6,Dout*%
%TO.N,Net-(U85-Dout)*%
X76700000Y-142600000D03*
%TO.P,U85,7,Bout*%
%TO.N,Net-(U85-Bout)*%
X76700000Y-145400000D03*
%TO.P,U85,8,GND*%
%TO.N,Net-(U85-GND-Pad8)*%
X76700000Y-148200000D03*
%TD*%
%TO.P,U84,1,Vin*%
%TO.N,Net-(U83-Vout)*%
X43300000Y-139800000D03*
%TO.P,U84,2,Din*%
%TO.N,Net-(U83-Dout)*%
X43300000Y-142600000D03*
%TO.P,U84,3,Bin*%
%TO.N,Net-(U83-Bout)*%
X43300000Y-145400000D03*
%TO.P,U84,4,GND*%
%TO.N,Net-(U83-GND-Pad8)*%
X43300000Y-148200000D03*
%TO.P,U84,5,Vout*%
%TO.N,Net-(U84-Vout)*%
X52700000Y-139800000D03*
%TO.P,U84,6,Dout*%
%TO.N,Net-(U84-Dout)*%
X52700000Y-142600000D03*
%TO.P,U84,7,Bout*%
%TO.N,Net-(U84-Bout)*%
X52700000Y-145400000D03*
%TO.P,U84,8,GND*%
%TO.N,Net-(U84-GND-Pad8)*%
X52700000Y-148200000D03*
%TD*%
%TO.P,U83,1,Vin*%
%TO.N,Net-(U82-Vout)*%
X19300000Y-139800000D03*
%TO.P,U83,2,Din*%
%TO.N,Net-(U82-Dout)*%
X19300000Y-142600000D03*
%TO.P,U83,3,Bin*%
%TO.N,Net-(U82-Bout)*%
X19300000Y-145400000D03*
%TO.P,U83,4,GND*%
%TO.N,Net-(U82-GND-Pad8)*%
X19300000Y-148200000D03*
%TO.P,U83,5,Vout*%
%TO.N,Net-(U83-Vout)*%
X28700000Y-139800000D03*
%TO.P,U83,6,Dout*%
%TO.N,Net-(U83-Dout)*%
X28700000Y-142600000D03*
%TO.P,U83,7,Bout*%
%TO.N,Net-(U83-Bout)*%
X28700000Y-145400000D03*
%TO.P,U83,8,GND*%
%TO.N,Net-(U83-GND-Pad8)*%
X28700000Y-148200000D03*
%TD*%
%TO.P,U82,1,Vin*%
%TO.N,Net-(U81-Vout)*%
X-4700000Y-139800000D03*
%TO.P,U82,2,Din*%
%TO.N,Net-(U81-Dout)*%
X-4700000Y-142600000D03*
%TO.P,U82,3,Bin*%
%TO.N,Net-(U81-Bout)*%
X-4700000Y-145400000D03*
%TO.P,U82,4,GND*%
%TO.N,Net-(U81-GND-Pad8)*%
X-4700000Y-148200000D03*
%TO.P,U82,5,Vout*%
%TO.N,Net-(U82-Vout)*%
X4700000Y-139800000D03*
%TO.P,U82,6,Dout*%
%TO.N,Net-(U82-Dout)*%
X4700000Y-142600000D03*
%TO.P,U82,7,Bout*%
%TO.N,Net-(U82-Bout)*%
X4700000Y-145400000D03*
%TO.P,U82,8,GND*%
%TO.N,Net-(U82-GND-Pad8)*%
X4700000Y-148200000D03*
%TD*%
%TO.P,U99,1,Vin*%
%TO.N,Net-(U98-Vout)*%
X187300000Y-115800000D03*
%TO.P,U99,2,Din*%
%TO.N,Net-(U98-Dout)*%
X187300000Y-118600000D03*
%TO.P,U99,3,Bin*%
%TO.N,Net-(U98-Bout)*%
X187300000Y-121400000D03*
%TO.P,U99,4,GND*%
%TO.N,Net-(U98-GND-Pad8)*%
X187300000Y-124200000D03*
%TO.P,U99,5,Vout*%
%TO.N,Net-(U100-Vin)*%
X196700000Y-115800000D03*
%TO.P,U99,6,Dout*%
%TO.N,Net-(U100-Din)*%
X196700000Y-118600000D03*
%TO.P,U99,7,Bout*%
%TO.N,Net-(U100-Bin)*%
X196700000Y-121400000D03*
%TO.P,U99,8,GND*%
%TO.N,Net-(U100-GND-Pad4)*%
X196700000Y-124200000D03*
%TD*%
%TO.P,U98,1,Vin*%
%TO.N,Net-(U97-Vout)*%
X163300000Y-115800000D03*
%TO.P,U98,2,Din*%
%TO.N,Net-(U97-Dout)*%
X163300000Y-118600000D03*
%TO.P,U98,3,Bin*%
%TO.N,Net-(U97-Bout)*%
X163300000Y-121400000D03*
%TO.P,U98,4,GND*%
%TO.N,Net-(U97-GND-Pad8)*%
X163300000Y-124200000D03*
%TO.P,U98,5,Vout*%
%TO.N,Net-(U98-Vout)*%
X172700000Y-115800000D03*
%TO.P,U98,6,Dout*%
%TO.N,Net-(U98-Dout)*%
X172700000Y-118600000D03*
%TO.P,U98,7,Bout*%
%TO.N,Net-(U98-Bout)*%
X172700000Y-121400000D03*
%TO.P,U98,8,GND*%
%TO.N,Net-(U98-GND-Pad8)*%
X172700000Y-124200000D03*
%TD*%
%TO.P,U97,1,Vin*%
%TO.N,Net-(U96-Vout)*%
X139300000Y-115800000D03*
%TO.P,U97,2,Din*%
%TO.N,Net-(U96-Dout)*%
X139300000Y-118600000D03*
%TO.P,U97,3,Bin*%
%TO.N,Net-(U96-Bout)*%
X139300000Y-121400000D03*
%TO.P,U97,4,GND*%
%TO.N,Net-(U96-GND-Pad8)*%
X139300000Y-124200000D03*
%TO.P,U97,5,Vout*%
%TO.N,Net-(U97-Vout)*%
X148700000Y-115800000D03*
%TO.P,U97,6,Dout*%
%TO.N,Net-(U97-Dout)*%
X148700000Y-118600000D03*
%TO.P,U97,7,Bout*%
%TO.N,Net-(U97-Bout)*%
X148700000Y-121400000D03*
%TO.P,U97,8,GND*%
%TO.N,Net-(U97-GND-Pad8)*%
X148700000Y-124200000D03*
%TD*%
%TO.P,U96,1,Vin*%
%TO.N,Net-(U95-Vout)*%
X115300000Y-115800000D03*
%TO.P,U96,2,Din*%
%TO.N,Net-(U95-Dout)*%
X115300000Y-118600000D03*
%TO.P,U96,3,Bin*%
%TO.N,Net-(U95-Bout)*%
X115300000Y-121400000D03*
%TO.P,U96,4,GND*%
%TO.N,Net-(U95-GND-Pad8)*%
X115300000Y-124200000D03*
%TO.P,U96,5,Vout*%
%TO.N,Net-(U96-Vout)*%
X124700000Y-115800000D03*
%TO.P,U96,6,Dout*%
%TO.N,Net-(U96-Dout)*%
X124700000Y-118600000D03*
%TO.P,U96,7,Bout*%
%TO.N,Net-(U96-Bout)*%
X124700000Y-121400000D03*
%TO.P,U96,8,GND*%
%TO.N,Net-(U96-GND-Pad8)*%
X124700000Y-124200000D03*
%TD*%
%TO.P,U95,1,Vin*%
%TO.N,Net-(U94-Vout)*%
X91300000Y-115800000D03*
%TO.P,U95,2,Din*%
%TO.N,Net-(U94-Dout)*%
X91300000Y-118600000D03*
%TO.P,U95,3,Bin*%
%TO.N,Net-(U94-Bout)*%
X91300000Y-121400000D03*
%TO.P,U95,4,GND*%
%TO.N,Net-(U94-GND-Pad8)*%
X91300000Y-124200000D03*
%TO.P,U95,5,Vout*%
%TO.N,Net-(U95-Vout)*%
X100700000Y-115800000D03*
%TO.P,U95,6,Dout*%
%TO.N,Net-(U95-Dout)*%
X100700000Y-118600000D03*
%TO.P,U95,7,Bout*%
%TO.N,Net-(U95-Bout)*%
X100700000Y-121400000D03*
%TO.P,U95,8,GND*%
%TO.N,Net-(U95-GND-Pad8)*%
X100700000Y-124200000D03*
%TD*%
%TO.P,U94,1,Vin*%
%TO.N,Net-(U93-Vout)*%
X67300000Y-115800000D03*
%TO.P,U94,2,Din*%
%TO.N,Net-(U93-Dout)*%
X67300000Y-118600000D03*
%TO.P,U94,3,Bin*%
%TO.N,Net-(U93-Bout)*%
X67300000Y-121400000D03*
%TO.P,U94,4,GND*%
%TO.N,Net-(U93-GND-Pad8)*%
X67300000Y-124200000D03*
%TO.P,U94,5,Vout*%
%TO.N,Net-(U94-Vout)*%
X76700000Y-115800000D03*
%TO.P,U94,6,Dout*%
%TO.N,Net-(U94-Dout)*%
X76700000Y-118600000D03*
%TO.P,U94,7,Bout*%
%TO.N,Net-(U94-Bout)*%
X76700000Y-121400000D03*
%TO.P,U94,8,GND*%
%TO.N,Net-(U94-GND-Pad8)*%
X76700000Y-124200000D03*
%TD*%
%TO.P,U93,1,Vin*%
%TO.N,Net-(U92-Vout)*%
X43300000Y-115800000D03*
%TO.P,U93,2,Din*%
%TO.N,Net-(U92-Dout)*%
X43300000Y-118600000D03*
%TO.P,U93,3,Bin*%
%TO.N,Net-(U92-Bout)*%
X43300000Y-121400000D03*
%TO.P,U93,4,GND*%
%TO.N,Net-(U92-GND-Pad8)*%
X43300000Y-124200000D03*
%TO.P,U93,5,Vout*%
%TO.N,Net-(U93-Vout)*%
X52700000Y-115800000D03*
%TO.P,U93,6,Dout*%
%TO.N,Net-(U93-Dout)*%
X52700000Y-118600000D03*
%TO.P,U93,7,Bout*%
%TO.N,Net-(U93-Bout)*%
X52700000Y-121400000D03*
%TO.P,U93,8,GND*%
%TO.N,Net-(U93-GND-Pad8)*%
X52700000Y-124200000D03*
%TD*%
%TO.P,U92,1,Vin*%
%TO.N,Net-(U91-Vout)*%
X19300000Y-115800000D03*
%TO.P,U92,2,Din*%
%TO.N,Net-(U91-Dout)*%
X19300000Y-118600000D03*
%TO.P,U92,3,Bin*%
%TO.N,Net-(U91-Bout)*%
X19300000Y-121400000D03*
%TO.P,U92,4,GND*%
%TO.N,Net-(U91-GND-Pad8)*%
X19300000Y-124200000D03*
%TO.P,U92,5,Vout*%
%TO.N,Net-(U92-Vout)*%
X28700000Y-115800000D03*
%TO.P,U92,6,Dout*%
%TO.N,Net-(U92-Dout)*%
X28700000Y-118600000D03*
%TO.P,U92,7,Bout*%
%TO.N,Net-(U92-Bout)*%
X28700000Y-121400000D03*
%TO.P,U92,8,GND*%
%TO.N,Net-(U92-GND-Pad8)*%
X28700000Y-124200000D03*
%TD*%
%TO.P,U91,1,Vin*%
%TO.N,Net-(U90-Vout)*%
X-4700000Y-115800000D03*
%TO.P,U91,2,Din*%
%TO.N,Net-(U90-Dout)*%
X-4700000Y-118600000D03*
%TO.P,U91,3,Bin*%
%TO.N,Net-(U90-Bout)*%
X-4700000Y-121400000D03*
%TO.P,U91,4,GND*%
%TO.N,Net-(U90-GND-Pad8)*%
X-4700000Y-124200000D03*
%TO.P,U91,5,Vout*%
%TO.N,Net-(U91-Vout)*%
X4700000Y-115800000D03*
%TO.P,U91,6,Dout*%
%TO.N,Net-(U91-Dout)*%
X4700000Y-118600000D03*
%TO.P,U91,7,Bout*%
%TO.N,Net-(U91-Bout)*%
X4700000Y-121400000D03*
%TO.P,U91,8,GND*%
%TO.N,Net-(U91-GND-Pad8)*%
X4700000Y-124200000D03*
%TD*%
%TO.P,U108,1,Vin*%
%TO.N,Net-(U107-Vout)*%
X187300000Y-91800000D03*
%TO.P,U108,2,Din*%
%TO.N,Net-(U107-Dout)*%
X187300000Y-94600000D03*
%TO.P,U108,3,Bin*%
%TO.N,Net-(U107-Bout)*%
X187300000Y-97400000D03*
%TO.P,U108,4,GND*%
%TO.N,Net-(U107-GND-Pad8)*%
X187300000Y-100200000D03*
%TO.P,U108,5,Vout*%
%TO.N,Net-(U108-Vout)*%
X196700000Y-91800000D03*
%TO.P,U108,6,Dout*%
%TO.N,Net-(U108-Dout)*%
X196700000Y-94600000D03*
%TO.P,U108,7,Bout*%
%TO.N,Net-(U108-Bout)*%
X196700000Y-97400000D03*
%TO.P,U108,8,GND*%
%TO.N,Net-(U108-GND-Pad8)*%
X196700000Y-100200000D03*
%TD*%
%TO.P,U107,1,Vin*%
%TO.N,Net-(U106-Vout)*%
X163300000Y-91800000D03*
%TO.P,U107,2,Din*%
%TO.N,Net-(U106-Dout)*%
X163300000Y-94600000D03*
%TO.P,U107,3,Bin*%
%TO.N,Net-(U106-Bout)*%
X163300000Y-97400000D03*
%TO.P,U107,4,GND*%
%TO.N,Net-(U106-GND-Pad8)*%
X163300000Y-100200000D03*
%TO.P,U107,5,Vout*%
%TO.N,Net-(U107-Vout)*%
X172700000Y-91800000D03*
%TO.P,U107,6,Dout*%
%TO.N,Net-(U107-Dout)*%
X172700000Y-94600000D03*
%TO.P,U107,7,Bout*%
%TO.N,Net-(U107-Bout)*%
X172700000Y-97400000D03*
%TO.P,U107,8,GND*%
%TO.N,Net-(U107-GND-Pad8)*%
X172700000Y-100200000D03*
%TD*%
%TO.P,U106,1,Vin*%
%TO.N,Net-(U105-Vout)*%
X139300000Y-91800000D03*
%TO.P,U106,2,Din*%
%TO.N,Net-(U105-Dout)*%
X139300000Y-94600000D03*
%TO.P,U106,3,Bin*%
%TO.N,Net-(U105-Bout)*%
X139300000Y-97400000D03*
%TO.P,U106,4,GND*%
%TO.N,Net-(U105-GND-Pad8)*%
X139300000Y-100200000D03*
%TO.P,U106,5,Vout*%
%TO.N,Net-(U106-Vout)*%
X148700000Y-91800000D03*
%TO.P,U106,6,Dout*%
%TO.N,Net-(U106-Dout)*%
X148700000Y-94600000D03*
%TO.P,U106,7,Bout*%
%TO.N,Net-(U106-Bout)*%
X148700000Y-97400000D03*
%TO.P,U106,8,GND*%
%TO.N,Net-(U106-GND-Pad8)*%
X148700000Y-100200000D03*
%TD*%
%TO.P,U105,1,Vin*%
%TO.N,Net-(U104-Vout)*%
X115300000Y-91800000D03*
%TO.P,U105,2,Din*%
%TO.N,Net-(U104-Dout)*%
X115300000Y-94600000D03*
%TO.P,U105,3,Bin*%
%TO.N,Net-(U104-Bout)*%
X115300000Y-97400000D03*
%TO.P,U105,4,GND*%
%TO.N,Net-(U104-GND-Pad8)*%
X115300000Y-100200000D03*
%TO.P,U105,5,Vout*%
%TO.N,Net-(U105-Vout)*%
X124700000Y-91800000D03*
%TO.P,U105,6,Dout*%
%TO.N,Net-(U105-Dout)*%
X124700000Y-94600000D03*
%TO.P,U105,7,Bout*%
%TO.N,Net-(U105-Bout)*%
X124700000Y-97400000D03*
%TO.P,U105,8,GND*%
%TO.N,Net-(U105-GND-Pad8)*%
X124700000Y-100200000D03*
%TD*%
%TO.P,U104,1,Vin*%
%TO.N,Net-(U103-Vout)*%
X91300000Y-91800000D03*
%TO.P,U104,2,Din*%
%TO.N,Net-(U103-Dout)*%
X91300000Y-94600000D03*
%TO.P,U104,3,Bin*%
%TO.N,Net-(U103-Bout)*%
X91300000Y-97400000D03*
%TO.P,U104,4,GND*%
%TO.N,Net-(U103-GND-Pad8)*%
X91300000Y-100200000D03*
%TO.P,U104,5,Vout*%
%TO.N,Net-(U104-Vout)*%
X100700000Y-91800000D03*
%TO.P,U104,6,Dout*%
%TO.N,Net-(U104-Dout)*%
X100700000Y-94600000D03*
%TO.P,U104,7,Bout*%
%TO.N,Net-(U104-Bout)*%
X100700000Y-97400000D03*
%TO.P,U104,8,GND*%
%TO.N,Net-(U104-GND-Pad8)*%
X100700000Y-100200000D03*
%TD*%
%TO.P,U103,1,Vin*%
%TO.N,Net-(U102-Vout)*%
X67300000Y-91800000D03*
%TO.P,U103,2,Din*%
%TO.N,Net-(U102-Dout)*%
X67300000Y-94600000D03*
%TO.P,U103,3,Bin*%
%TO.N,Net-(U102-Bout)*%
X67300000Y-97400000D03*
%TO.P,U103,4,GND*%
%TO.N,Net-(U102-GND-Pad8)*%
X67300000Y-100200000D03*
%TO.P,U103,5,Vout*%
%TO.N,Net-(U103-Vout)*%
X76700000Y-91800000D03*
%TO.P,U103,6,Dout*%
%TO.N,Net-(U103-Dout)*%
X76700000Y-94600000D03*
%TO.P,U103,7,Bout*%
%TO.N,Net-(U103-Bout)*%
X76700000Y-97400000D03*
%TO.P,U103,8,GND*%
%TO.N,Net-(U103-GND-Pad8)*%
X76700000Y-100200000D03*
%TD*%
%TO.P,U102,1,Vin*%
%TO.N,Net-(U101-Vout)*%
X43300000Y-91800000D03*
%TO.P,U102,2,Din*%
%TO.N,Net-(U101-Dout)*%
X43300000Y-94600000D03*
%TO.P,U102,3,Bin*%
%TO.N,Net-(U101-Bout)*%
X43300000Y-97400000D03*
%TO.P,U102,4,GND*%
%TO.N,Net-(U101-GND-Pad8)*%
X43300000Y-100200000D03*
%TO.P,U102,5,Vout*%
%TO.N,Net-(U102-Vout)*%
X52700000Y-91800000D03*
%TO.P,U102,6,Dout*%
%TO.N,Net-(U102-Dout)*%
X52700000Y-94600000D03*
%TO.P,U102,7,Bout*%
%TO.N,Net-(U102-Bout)*%
X52700000Y-97400000D03*
%TO.P,U102,8,GND*%
%TO.N,Net-(U102-GND-Pad8)*%
X52700000Y-100200000D03*
%TD*%
%TO.P,U101,1,Vin*%
%TO.N,Net-(U100-Vout)*%
X19300000Y-91800000D03*
%TO.P,U101,2,Din*%
%TO.N,Net-(U100-Dout)*%
X19300000Y-94600000D03*
%TO.P,U101,3,Bin*%
%TO.N,Net-(U100-Bout)*%
X19300000Y-97400000D03*
%TO.P,U101,4,GND*%
%TO.N,Net-(U100-GND-Pad8)*%
X19300000Y-100200000D03*
%TO.P,U101,5,Vout*%
%TO.N,Net-(U101-Vout)*%
X28700000Y-91800000D03*
%TO.P,U101,6,Dout*%
%TO.N,Net-(U101-Dout)*%
X28700000Y-94600000D03*
%TO.P,U101,7,Bout*%
%TO.N,Net-(U101-Bout)*%
X28700000Y-97400000D03*
%TO.P,U101,8,GND*%
%TO.N,Net-(U101-GND-Pad8)*%
X28700000Y-100200000D03*
%TD*%
%TO.P,U100,1,Vin*%
%TO.N,Net-(U100-Vin)*%
X-4700000Y-91800000D03*
%TO.P,U100,2,Din*%
%TO.N,Net-(U100-Din)*%
X-4700000Y-94600000D03*
%TO.P,U100,3,Bin*%
%TO.N,Net-(U100-Bin)*%
X-4700000Y-97400000D03*
%TO.P,U100,4,GND*%
%TO.N,Net-(U100-GND-Pad4)*%
X-4700000Y-100200000D03*
%TO.P,U100,5,Vout*%
%TO.N,Net-(U100-Vout)*%
X4700000Y-91800000D03*
%TO.P,U100,6,Dout*%
%TO.N,Net-(U100-Dout)*%
X4700000Y-94600000D03*
%TO.P,U100,7,Bout*%
%TO.N,Net-(U100-Bout)*%
X4700000Y-97400000D03*
%TO.P,U100,8,GND*%
%TO.N,Net-(U100-GND-Pad8)*%
X4700000Y-100200000D03*
%TD*%
%TO.P,U117,1,Vin*%
%TO.N,Net-(U116-Vout)*%
X187300000Y-67800000D03*
%TO.P,U117,2,Din*%
%TO.N,Net-(U116-Dout)*%
X187300000Y-70600000D03*
%TO.P,U117,3,Bin*%
%TO.N,Net-(U116-Bout)*%
X187300000Y-73400000D03*
%TO.P,U117,4,GND*%
%TO.N,Net-(U116-GND-Pad8)*%
X187300000Y-76200000D03*
%TO.P,U117,5,Vout*%
%TO.N,Net-(U117-Vout)*%
X196700000Y-67800000D03*
%TO.P,U117,6,Dout*%
%TO.N,Net-(U117-Dout)*%
X196700000Y-70600000D03*
%TO.P,U117,7,Bout*%
%TO.N,Net-(U117-Bout)*%
X196700000Y-73400000D03*
%TO.P,U117,8,GND*%
%TO.N,Net-(U117-GND-Pad8)*%
X196700000Y-76200000D03*
%TD*%
%TO.P,U116,1,Vin*%
%TO.N,Net-(U115-Vout)*%
X163300000Y-67800000D03*
%TO.P,U116,2,Din*%
%TO.N,Net-(U115-Dout)*%
X163300000Y-70600000D03*
%TO.P,U116,3,Bin*%
%TO.N,Net-(U115-Bout)*%
X163300000Y-73400000D03*
%TO.P,U116,4,GND*%
%TO.N,Net-(U115-GND-Pad8)*%
X163300000Y-76200000D03*
%TO.P,U116,5,Vout*%
%TO.N,Net-(U116-Vout)*%
X172700000Y-67800000D03*
%TO.P,U116,6,Dout*%
%TO.N,Net-(U116-Dout)*%
X172700000Y-70600000D03*
%TO.P,U116,7,Bout*%
%TO.N,Net-(U116-Bout)*%
X172700000Y-73400000D03*
%TO.P,U116,8,GND*%
%TO.N,Net-(U116-GND-Pad8)*%
X172700000Y-76200000D03*
%TD*%
%TO.P,U115,1,Vin*%
%TO.N,Net-(U114-Vout)*%
X139300000Y-67800000D03*
%TO.P,U115,2,Din*%
%TO.N,Net-(U114-Dout)*%
X139300000Y-70600000D03*
%TO.P,U115,3,Bin*%
%TO.N,Net-(U114-Bout)*%
X139300000Y-73400000D03*
%TO.P,U115,4,GND*%
%TO.N,Net-(U114-GND-Pad8)*%
X139300000Y-76200000D03*
%TO.P,U115,5,Vout*%
%TO.N,Net-(U115-Vout)*%
X148700000Y-67800000D03*
%TO.P,U115,6,Dout*%
%TO.N,Net-(U115-Dout)*%
X148700000Y-70600000D03*
%TO.P,U115,7,Bout*%
%TO.N,Net-(U115-Bout)*%
X148700000Y-73400000D03*
%TO.P,U115,8,GND*%
%TO.N,Net-(U115-GND-Pad8)*%
X148700000Y-76200000D03*
%TD*%
%TO.P,U114,1,Vin*%
%TO.N,Net-(U113-Vout)*%
X115300000Y-67800000D03*
%TO.P,U114,2,Din*%
%TO.N,Net-(U113-Dout)*%
X115300000Y-70600000D03*
%TO.P,U114,3,Bin*%
%TO.N,Net-(U113-Bout)*%
X115300000Y-73400000D03*
%TO.P,U114,4,GND*%
%TO.N,Net-(U113-GND-Pad8)*%
X115300000Y-76200000D03*
%TO.P,U114,5,Vout*%
%TO.N,Net-(U114-Vout)*%
X124700000Y-67800000D03*
%TO.P,U114,6,Dout*%
%TO.N,Net-(U114-Dout)*%
X124700000Y-70600000D03*
%TO.P,U114,7,Bout*%
%TO.N,Net-(U114-Bout)*%
X124700000Y-73400000D03*
%TO.P,U114,8,GND*%
%TO.N,Net-(U114-GND-Pad8)*%
X124700000Y-76200000D03*
%TD*%
%TO.P,U113,1,Vin*%
%TO.N,Net-(U112-Vout)*%
X91300000Y-67800000D03*
%TO.P,U113,2,Din*%
%TO.N,Net-(U112-Dout)*%
X91300000Y-70600000D03*
%TO.P,U113,3,Bin*%
%TO.N,Net-(U112-Bout)*%
X91300000Y-73400000D03*
%TO.P,U113,4,GND*%
%TO.N,Net-(U112-GND-Pad8)*%
X91300000Y-76200000D03*
%TO.P,U113,5,Vout*%
%TO.N,Net-(U113-Vout)*%
X100700000Y-67800000D03*
%TO.P,U113,6,Dout*%
%TO.N,Net-(U113-Dout)*%
X100700000Y-70600000D03*
%TO.P,U113,7,Bout*%
%TO.N,Net-(U113-Bout)*%
X100700000Y-73400000D03*
%TO.P,U113,8,GND*%
%TO.N,Net-(U113-GND-Pad8)*%
X100700000Y-76200000D03*
%TD*%
%TO.P,U112,1,Vin*%
%TO.N,Net-(U111-Vout)*%
X67300000Y-67800000D03*
%TO.P,U112,2,Din*%
%TO.N,Net-(U111-Dout)*%
X67300000Y-70600000D03*
%TO.P,U112,3,Bin*%
%TO.N,Net-(U111-Bout)*%
X67300000Y-73400000D03*
%TO.P,U112,4,GND*%
%TO.N,Net-(U111-GND-Pad8)*%
X67300000Y-76200000D03*
%TO.P,U112,5,Vout*%
%TO.N,Net-(U112-Vout)*%
X76700000Y-67800000D03*
%TO.P,U112,6,Dout*%
%TO.N,Net-(U112-Dout)*%
X76700000Y-70600000D03*
%TO.P,U112,7,Bout*%
%TO.N,Net-(U112-Bout)*%
X76700000Y-73400000D03*
%TO.P,U112,8,GND*%
%TO.N,Net-(U112-GND-Pad8)*%
X76700000Y-76200000D03*
%TD*%
%TO.P,U111,8,GND*%
%TO.N,Net-(U111-GND-Pad8)*%
X52700000Y-76200000D03*
%TO.P,U111,7,Bout*%
%TO.N,Net-(U111-Bout)*%
X52700000Y-73400000D03*
%TO.P,U111,6,Dout*%
%TO.N,Net-(U111-Dout)*%
X52700000Y-70600000D03*
%TO.P,U111,5,Vout*%
%TO.N,Net-(U111-Vout)*%
X52700000Y-67800000D03*
%TO.P,U111,4,GND*%
%TO.N,Net-(U110-GND-Pad8)*%
X43300000Y-76200000D03*
%TO.P,U111,3,Bin*%
%TO.N,Net-(U110-Bout)*%
X43300000Y-73400000D03*
%TO.P,U111,2,Din*%
%TO.N,Net-(U110-Dout)*%
X43300000Y-70600000D03*
%TO.P,U111,1,Vin*%
%TO.N,Net-(U110-Vout)*%
X43300000Y-67800000D03*
%TD*%
%TO.P,U110,1,Vin*%
%TO.N,Net-(U109-Vout)*%
X19300000Y-67800000D03*
%TO.P,U110,2,Din*%
%TO.N,Net-(U109-Dout)*%
X19300000Y-70600000D03*
%TO.P,U110,3,Bin*%
%TO.N,Net-(U109-Bout)*%
X19300000Y-73400000D03*
%TO.P,U110,4,GND*%
%TO.N,Net-(U109-GND-Pad8)*%
X19300000Y-76200000D03*
%TO.P,U110,5,Vout*%
%TO.N,Net-(U110-Vout)*%
X28700000Y-67800000D03*
%TO.P,U110,6,Dout*%
%TO.N,Net-(U110-Dout)*%
X28700000Y-70600000D03*
%TO.P,U110,7,Bout*%
%TO.N,Net-(U110-Bout)*%
X28700000Y-73400000D03*
%TO.P,U110,8,GND*%
%TO.N,Net-(U110-GND-Pad8)*%
X28700000Y-76200000D03*
%TD*%
%TO.P,U109,1,Vin*%
%TO.N,Net-(U108-Vout)*%
X-4700000Y-67800000D03*
%TO.P,U109,2,Din*%
%TO.N,Net-(U108-Dout)*%
X-4700000Y-70600000D03*
%TO.P,U109,3,Bin*%
%TO.N,Net-(U108-Bout)*%
X-4700000Y-73400000D03*
%TO.P,U109,4,GND*%
%TO.N,Net-(U108-GND-Pad8)*%
X-4700000Y-76200000D03*
%TO.P,U109,5,Vout*%
%TO.N,Net-(U109-Vout)*%
X4700000Y-67800000D03*
%TO.P,U109,6,Dout*%
%TO.N,Net-(U109-Dout)*%
X4700000Y-70600000D03*
%TO.P,U109,7,Bout*%
%TO.N,Net-(U109-Bout)*%
X4700000Y-73400000D03*
%TO.P,U109,8,GND*%
%TO.N,Net-(U109-GND-Pad8)*%
X4700000Y-76200000D03*
%TD*%
%TO.P,U126,1,Vin*%
%TO.N,Net-(U125-Vout)*%
X187300000Y-43800000D03*
%TO.P,U126,2,Din*%
%TO.N,Net-(U125-Dout)*%
X187300000Y-46600000D03*
%TO.P,U126,3,Bin*%
%TO.N,Net-(U125-Bout)*%
X187300000Y-49400000D03*
%TO.P,U126,4,GND*%
%TO.N,Net-(U125-GND-Pad8)*%
X187300000Y-52200000D03*
%TO.P,U126,5,Vout*%
%TO.N,Net-(U126-Vout)*%
X196700000Y-43800000D03*
%TO.P,U126,6,Dout*%
%TO.N,Net-(U126-Dout)*%
X196700000Y-46600000D03*
%TO.P,U126,7,Bout*%
%TO.N,Net-(U126-Bout)*%
X196700000Y-49400000D03*
%TO.P,U126,8,GND*%
%TO.N,Net-(U126-GND-Pad8)*%
X196700000Y-52200000D03*
%TD*%
%TO.P,U125,1,Vin*%
%TO.N,Net-(U124-Vout)*%
X163300000Y-43800000D03*
%TO.P,U125,2,Din*%
%TO.N,Net-(U124-Dout)*%
X163300000Y-46600000D03*
%TO.P,U125,3,Bin*%
%TO.N,Net-(U124-Bout)*%
X163300000Y-49400000D03*
%TO.P,U125,4,GND*%
%TO.N,Net-(U124-GND-Pad8)*%
X163300000Y-52200000D03*
%TO.P,U125,5,Vout*%
%TO.N,Net-(U125-Vout)*%
X172700000Y-43800000D03*
%TO.P,U125,6,Dout*%
%TO.N,Net-(U125-Dout)*%
X172700000Y-46600000D03*
%TO.P,U125,7,Bout*%
%TO.N,Net-(U125-Bout)*%
X172700000Y-49400000D03*
%TO.P,U125,8,GND*%
%TO.N,Net-(U125-GND-Pad8)*%
X172700000Y-52200000D03*
%TD*%
%TO.P,U124,1,Vin*%
%TO.N,Net-(U123-Vout)*%
X139300000Y-43800000D03*
%TO.P,U124,2,Din*%
%TO.N,Net-(U123-Dout)*%
X139300000Y-46600000D03*
%TO.P,U124,3,Bin*%
%TO.N,Net-(U123-Bout)*%
X139300000Y-49400000D03*
%TO.P,U124,4,GND*%
%TO.N,Net-(U123-GND-Pad8)*%
X139300000Y-52200000D03*
%TO.P,U124,5,Vout*%
%TO.N,Net-(U124-Vout)*%
X148700000Y-43800000D03*
%TO.P,U124,6,Dout*%
%TO.N,Net-(U124-Dout)*%
X148700000Y-46600000D03*
%TO.P,U124,7,Bout*%
%TO.N,Net-(U124-Bout)*%
X148700000Y-49400000D03*
%TO.P,U124,8,GND*%
%TO.N,Net-(U124-GND-Pad8)*%
X148700000Y-52200000D03*
%TD*%
%TO.P,U123,1,Vin*%
%TO.N,Net-(U122-Vout)*%
X115300000Y-43800000D03*
%TO.P,U123,2,Din*%
%TO.N,Net-(U122-Dout)*%
X115300000Y-46600000D03*
%TO.P,U123,3,Bin*%
%TO.N,Net-(U122-Bout)*%
X115300000Y-49400000D03*
%TO.P,U123,4,GND*%
%TO.N,Net-(U122-GND-Pad8)*%
X115300000Y-52200000D03*
%TO.P,U123,5,Vout*%
%TO.N,Net-(U123-Vout)*%
X124700000Y-43800000D03*
%TO.P,U123,6,Dout*%
%TO.N,Net-(U123-Dout)*%
X124700000Y-46600000D03*
%TO.P,U123,7,Bout*%
%TO.N,Net-(U123-Bout)*%
X124700000Y-49400000D03*
%TO.P,U123,8,GND*%
%TO.N,Net-(U123-GND-Pad8)*%
X124700000Y-52200000D03*
%TD*%
%TO.P,U122,1,Vin*%
%TO.N,Net-(U121-Vout)*%
X91300000Y-43800000D03*
%TO.P,U122,2,Din*%
%TO.N,Net-(U121-Dout)*%
X91300000Y-46600000D03*
%TO.P,U122,3,Bin*%
%TO.N,Net-(U121-Bout)*%
X91300000Y-49400000D03*
%TO.P,U122,4,GND*%
%TO.N,Net-(U121-GND-Pad8)*%
X91300000Y-52200000D03*
%TO.P,U122,5,Vout*%
%TO.N,Net-(U122-Vout)*%
X100700000Y-43800000D03*
%TO.P,U122,6,Dout*%
%TO.N,Net-(U122-Dout)*%
X100700000Y-46600000D03*
%TO.P,U122,7,Bout*%
%TO.N,Net-(U122-Bout)*%
X100700000Y-49400000D03*
%TO.P,U122,8,GND*%
%TO.N,Net-(U122-GND-Pad8)*%
X100700000Y-52200000D03*
%TD*%
%TO.P,U121,1,Vin*%
%TO.N,Net-(U120-Vout)*%
X67300000Y-43800000D03*
%TO.P,U121,2,Din*%
%TO.N,Net-(U120-Dout)*%
X67300000Y-46600000D03*
%TO.P,U121,3,Bin*%
%TO.N,Net-(U120-Bout)*%
X67300000Y-49400000D03*
%TO.P,U121,4,GND*%
%TO.N,Net-(U120-GND-Pad8)*%
X67300000Y-52200000D03*
%TO.P,U121,5,Vout*%
%TO.N,Net-(U121-Vout)*%
X76700000Y-43800000D03*
%TO.P,U121,6,Dout*%
%TO.N,Net-(U121-Dout)*%
X76700000Y-46600000D03*
%TO.P,U121,7,Bout*%
%TO.N,Net-(U121-Bout)*%
X76700000Y-49400000D03*
%TO.P,U121,8,GND*%
%TO.N,Net-(U121-GND-Pad8)*%
X76700000Y-52200000D03*
%TD*%
%TO.P,U120,1,Vin*%
%TO.N,Net-(U119-Vout)*%
X43300000Y-43800000D03*
%TO.P,U120,2,Din*%
%TO.N,Net-(U119-Dout)*%
X43300000Y-46600000D03*
%TO.P,U120,3,Bin*%
%TO.N,Net-(U119-Bout)*%
X43300000Y-49400000D03*
%TO.P,U120,4,GND*%
%TO.N,Net-(U119-GND-Pad8)*%
X43300000Y-52200000D03*
%TO.P,U120,5,Vout*%
%TO.N,Net-(U120-Vout)*%
X52700000Y-43800000D03*
%TO.P,U120,6,Dout*%
%TO.N,Net-(U120-Dout)*%
X52700000Y-46600000D03*
%TO.P,U120,7,Bout*%
%TO.N,Net-(U120-Bout)*%
X52700000Y-49400000D03*
%TO.P,U120,8,GND*%
%TO.N,Net-(U120-GND-Pad8)*%
X52700000Y-52200000D03*
%TD*%
%TO.P,U119,1,Vin*%
%TO.N,Net-(U118-Vout)*%
X19300000Y-43800000D03*
%TO.P,U119,2,Din*%
%TO.N,Net-(U118-Dout)*%
X19300000Y-46600000D03*
%TO.P,U119,3,Bin*%
%TO.N,Net-(U118-Bout)*%
X19300000Y-49400000D03*
%TO.P,U119,4,GND*%
%TO.N,Net-(U118-GND-Pad8)*%
X19300000Y-52200000D03*
%TO.P,U119,5,Vout*%
%TO.N,Net-(U119-Vout)*%
X28700000Y-43800000D03*
%TO.P,U119,6,Dout*%
%TO.N,Net-(U119-Dout)*%
X28700000Y-46600000D03*
%TO.P,U119,7,Bout*%
%TO.N,Net-(U119-Bout)*%
X28700000Y-49400000D03*
%TO.P,U119,8,GND*%
%TO.N,Net-(U119-GND-Pad8)*%
X28700000Y-52200000D03*
%TD*%
%TO.P,U118,1,Vin*%
%TO.N,Net-(U117-Vout)*%
X-4700000Y-43800000D03*
%TO.P,U118,2,Din*%
%TO.N,Net-(U117-Dout)*%
X-4700000Y-46600000D03*
%TO.P,U118,3,Bin*%
%TO.N,Net-(U117-Bout)*%
X-4700000Y-49400000D03*
%TO.P,U118,4,GND*%
%TO.N,Net-(U117-GND-Pad8)*%
X-4700000Y-52200000D03*
%TO.P,U118,5,Vout*%
%TO.N,Net-(U118-Vout)*%
X4700000Y-43800000D03*
%TO.P,U118,6,Dout*%
%TO.N,Net-(U118-Dout)*%
X4700000Y-46600000D03*
%TO.P,U118,7,Bout*%
%TO.N,Net-(U118-Bout)*%
X4700000Y-49400000D03*
%TO.P,U118,8,GND*%
%TO.N,Net-(U118-GND-Pad8)*%
X4700000Y-52200000D03*
%TD*%
%TO.P,U135,1,Vin*%
%TO.N,Net-(U134-Vout)*%
X187300000Y-19800000D03*
%TO.P,U135,2,Din*%
%TO.N,Net-(U134-Dout)*%
X187300000Y-22600000D03*
%TO.P,U135,3,Bin*%
%TO.N,Net-(U134-Bout)*%
X187300000Y-25400000D03*
%TO.P,U135,4,GND*%
%TO.N,Net-(U134-GND-Pad8)*%
X187300000Y-28200000D03*
%TO.P,U135,5,Vout*%
%TO.N,Net-(U135-Vout)*%
X196700000Y-19800000D03*
%TO.P,U135,6,Dout*%
%TO.N,Net-(U135-Dout)*%
X196700000Y-22600000D03*
%TO.P,U135,7,Bout*%
%TO.N,Net-(U135-Bout)*%
X196700000Y-25400000D03*
%TO.P,U135,8,GND*%
%TO.N,Net-(U135-GND-Pad8)*%
X196700000Y-28200000D03*
%TD*%
%TO.P,U134,1,Vin*%
%TO.N,Net-(U133-Vout)*%
X163300000Y-19800000D03*
%TO.P,U134,2,Din*%
%TO.N,Net-(U133-Dout)*%
X163300000Y-22600000D03*
%TO.P,U134,3,Bin*%
%TO.N,Net-(U133-Bout)*%
X163300000Y-25400000D03*
%TO.P,U134,4,GND*%
%TO.N,Net-(U133-GND-Pad8)*%
X163300000Y-28200000D03*
%TO.P,U134,5,Vout*%
%TO.N,Net-(U134-Vout)*%
X172700000Y-19800000D03*
%TO.P,U134,6,Dout*%
%TO.N,Net-(U134-Dout)*%
X172700000Y-22600000D03*
%TO.P,U134,7,Bout*%
%TO.N,Net-(U134-Bout)*%
X172700000Y-25400000D03*
%TO.P,U134,8,GND*%
%TO.N,Net-(U134-GND-Pad8)*%
X172700000Y-28200000D03*
%TD*%
%TO.P,U133,1,Vin*%
%TO.N,Net-(U132-Vout)*%
X139300000Y-19800000D03*
%TO.P,U133,2,Din*%
%TO.N,Net-(U132-Dout)*%
X139300000Y-22600000D03*
%TO.P,U133,3,Bin*%
%TO.N,Net-(U132-Bout)*%
X139300000Y-25400000D03*
%TO.P,U133,4,GND*%
%TO.N,Net-(U132-GND-Pad8)*%
X139300000Y-28200000D03*
%TO.P,U133,5,Vout*%
%TO.N,Net-(U133-Vout)*%
X148700000Y-19800000D03*
%TO.P,U133,6,Dout*%
%TO.N,Net-(U133-Dout)*%
X148700000Y-22600000D03*
%TO.P,U133,7,Bout*%
%TO.N,Net-(U133-Bout)*%
X148700000Y-25400000D03*
%TO.P,U133,8,GND*%
%TO.N,Net-(U133-GND-Pad8)*%
X148700000Y-28200000D03*
%TD*%
%TO.P,U132,1,Vin*%
%TO.N,Net-(U131-Vout)*%
X115300000Y-19800000D03*
%TO.P,U132,2,Din*%
%TO.N,Net-(U131-Dout)*%
X115300000Y-22600000D03*
%TO.P,U132,3,Bin*%
%TO.N,Net-(U131-Bout)*%
X115300000Y-25400000D03*
%TO.P,U132,4,GND*%
%TO.N,Net-(U131-GND-Pad8)*%
X115300000Y-28200000D03*
%TO.P,U132,5,Vout*%
%TO.N,Net-(U132-Vout)*%
X124700000Y-19800000D03*
%TO.P,U132,6,Dout*%
%TO.N,Net-(U132-Dout)*%
X124700000Y-22600000D03*
%TO.P,U132,7,Bout*%
%TO.N,Net-(U132-Bout)*%
X124700000Y-25400000D03*
%TO.P,U132,8,GND*%
%TO.N,Net-(U132-GND-Pad8)*%
X124700000Y-28200000D03*
%TD*%
%TO.P,U131,1,Vin*%
%TO.N,Net-(U130-Vout)*%
X91300000Y-19800000D03*
%TO.P,U131,2,Din*%
%TO.N,Net-(U130-Dout)*%
X91300000Y-22600000D03*
%TO.P,U131,3,Bin*%
%TO.N,Net-(U130-Bout)*%
X91300000Y-25400000D03*
%TO.P,U131,4,GND*%
%TO.N,Net-(U130-GND-Pad8)*%
X91300000Y-28200000D03*
%TO.P,U131,5,Vout*%
%TO.N,Net-(U131-Vout)*%
X100700000Y-19800000D03*
%TO.P,U131,6,Dout*%
%TO.N,Net-(U131-Dout)*%
X100700000Y-22600000D03*
%TO.P,U131,7,Bout*%
%TO.N,Net-(U131-Bout)*%
X100700000Y-25400000D03*
%TO.P,U131,8,GND*%
%TO.N,Net-(U131-GND-Pad8)*%
X100700000Y-28200000D03*
%TD*%
%TO.P,U130,1,Vin*%
%TO.N,Net-(U129-Vout)*%
X67300000Y-19800000D03*
%TO.P,U130,2,Din*%
%TO.N,Net-(U129-Dout)*%
X67300000Y-22600000D03*
%TO.P,U130,3,Bin*%
%TO.N,Net-(U129-Bout)*%
X67300000Y-25400000D03*
%TO.P,U130,4,GND*%
%TO.N,Net-(U129-GND-Pad8)*%
X67300000Y-28200000D03*
%TO.P,U130,5,Vout*%
%TO.N,Net-(U130-Vout)*%
X76700000Y-19800000D03*
%TO.P,U130,6,Dout*%
%TO.N,Net-(U130-Dout)*%
X76700000Y-22600000D03*
%TO.P,U130,7,Bout*%
%TO.N,Net-(U130-Bout)*%
X76700000Y-25400000D03*
%TO.P,U130,8,GND*%
%TO.N,Net-(U130-GND-Pad8)*%
X76700000Y-28200000D03*
%TD*%
%TO.P,U129,1,Vin*%
%TO.N,Net-(U128-Vout)*%
X43300000Y-19800000D03*
%TO.P,U129,2,Din*%
%TO.N,Net-(U128-Dout)*%
X43300000Y-22600000D03*
%TO.P,U129,3,Bin*%
%TO.N,Net-(U128-Bout)*%
X43300000Y-25400000D03*
%TO.P,U129,4,GND*%
%TO.N,Net-(U128-GND-Pad8)*%
X43300000Y-28200000D03*
%TO.P,U129,5,Vout*%
%TO.N,Net-(U129-Vout)*%
X52700000Y-19800000D03*
%TO.P,U129,6,Dout*%
%TO.N,Net-(U129-Dout)*%
X52700000Y-22600000D03*
%TO.P,U129,7,Bout*%
%TO.N,Net-(U129-Bout)*%
X52700000Y-25400000D03*
%TO.P,U129,8,GND*%
%TO.N,Net-(U129-GND-Pad8)*%
X52700000Y-28200000D03*
%TD*%
%TO.P,U128,1,Vin*%
%TO.N,Net-(U127-Vout)*%
X19300000Y-19800000D03*
%TO.P,U128,2,Din*%
%TO.N,Net-(U127-Dout)*%
X19300000Y-22600000D03*
%TO.P,U128,3,Bin*%
%TO.N,Net-(U127-Bout)*%
X19300000Y-25400000D03*
%TO.P,U128,4,GND*%
%TO.N,Net-(U127-GND-Pad8)*%
X19300000Y-28200000D03*
%TO.P,U128,5,Vout*%
%TO.N,Net-(U128-Vout)*%
X28700000Y-19800000D03*
%TO.P,U128,6,Dout*%
%TO.N,Net-(U128-Dout)*%
X28700000Y-22600000D03*
%TO.P,U128,7,Bout*%
%TO.N,Net-(U128-Bout)*%
X28700000Y-25400000D03*
%TO.P,U128,8,GND*%
%TO.N,Net-(U128-GND-Pad8)*%
X28700000Y-28200000D03*
%TD*%
%TO.P,U127,1,Vin*%
%TO.N,Net-(U126-Vout)*%
X-4700000Y-19800000D03*
%TO.P,U127,2,Din*%
%TO.N,Net-(U126-Dout)*%
X-4700000Y-22600000D03*
%TO.P,U127,3,Bin*%
%TO.N,Net-(U126-Bout)*%
X-4700000Y-25400000D03*
%TO.P,U127,4,GND*%
%TO.N,Net-(U126-GND-Pad8)*%
X-4700000Y-28200000D03*
%TO.P,U127,5,Vout*%
%TO.N,Net-(U127-Vout)*%
X4700000Y-19800000D03*
%TO.P,U127,6,Dout*%
%TO.N,Net-(U127-Dout)*%
X4700000Y-22600000D03*
%TO.P,U127,7,Bout*%
%TO.N,Net-(U127-Bout)*%
X4700000Y-25400000D03*
%TO.P,U127,8,GND*%
%TO.N,Net-(U127-GND-Pad8)*%
X4700000Y-28200000D03*
%TD*%
%TO.P,U144,1,Vin*%
%TO.N,Net-(U143-Vout)*%
X187300000Y4200000D03*
%TO.P,U144,2,Din*%
%TO.N,Net-(U143-Dout)*%
X187300000Y1400000D03*
%TO.P,U144,3,Bin*%
%TO.N,Net-(U143-Bout)*%
X187300000Y-1400000D03*
%TO.P,U144,4,GND*%
%TO.N,Net-(U143-GND-Pad8)*%
X187300000Y-4200000D03*
%TO.P,U144,5,Vout*%
%TO.N,unconnected-(U144-Vout-Pad5)*%
X196700000Y4200000D03*
%TO.P,U144,6,Dout*%
%TO.N,unconnected-(U144-Dout-Pad6)*%
X196700000Y1400000D03*
%TO.P,U144,7,Bout*%
%TO.N,unconnected-(U144-Bout-Pad7)*%
X196700000Y-1400000D03*
%TO.P,U144,8,GND*%
%TO.N,unconnected-(U144-GND-Pad8)*%
X196700000Y-4200000D03*
%TD*%
%TO.P,U143,1,Vin*%
%TO.N,Net-(U142-Vout)*%
X163300000Y4200000D03*
%TO.P,U143,2,Din*%
%TO.N,Net-(U142-Dout)*%
X163300000Y1400000D03*
%TO.P,U143,3,Bin*%
%TO.N,Net-(U142-Bout)*%
X163300000Y-1400000D03*
%TO.P,U143,4,GND*%
%TO.N,Net-(U142-GND-Pad8)*%
X163300000Y-4200000D03*
%TO.P,U143,5,Vout*%
%TO.N,Net-(U143-Vout)*%
X172700000Y4200000D03*
%TO.P,U143,6,Dout*%
%TO.N,Net-(U143-Dout)*%
X172700000Y1400000D03*
%TO.P,U143,7,Bout*%
%TO.N,Net-(U143-Bout)*%
X172700000Y-1400000D03*
%TO.P,U143,8,GND*%
%TO.N,Net-(U143-GND-Pad8)*%
X172700000Y-4200000D03*
%TD*%
%TO.P,U142,1,Vin*%
%TO.N,Net-(U141-Vout)*%
X139300000Y4200000D03*
%TO.P,U142,2,Din*%
%TO.N,Net-(U141-Dout)*%
X139300000Y1400000D03*
%TO.P,U142,3,Bin*%
%TO.N,Net-(U141-Bout)*%
X139300000Y-1400000D03*
%TO.P,U142,4,GND*%
%TO.N,Net-(U141-GND-Pad8)*%
X139300000Y-4200000D03*
%TO.P,U142,5,Vout*%
%TO.N,Net-(U142-Vout)*%
X148700000Y4200000D03*
%TO.P,U142,6,Dout*%
%TO.N,Net-(U142-Dout)*%
X148700000Y1400000D03*
%TO.P,U142,7,Bout*%
%TO.N,Net-(U142-Bout)*%
X148700000Y-1400000D03*
%TO.P,U142,8,GND*%
%TO.N,Net-(U142-GND-Pad8)*%
X148700000Y-4200000D03*
%TD*%
%TO.P,U141,1,Vin*%
%TO.N,Net-(U140-Vout)*%
X115300000Y4200000D03*
%TO.P,U141,2,Din*%
%TO.N,Net-(U140-Dout)*%
X115300000Y1400000D03*
%TO.P,U141,3,Bin*%
%TO.N,Net-(U140-Bout)*%
X115300000Y-1400000D03*
%TO.P,U141,4,GND*%
%TO.N,Net-(U140-GND-Pad8)*%
X115300000Y-4200000D03*
%TO.P,U141,5,Vout*%
%TO.N,Net-(U141-Vout)*%
X124700000Y4200000D03*
%TO.P,U141,6,Dout*%
%TO.N,Net-(U141-Dout)*%
X124700000Y1400000D03*
%TO.P,U141,7,Bout*%
%TO.N,Net-(U141-Bout)*%
X124700000Y-1400000D03*
%TO.P,U141,8,GND*%
%TO.N,Net-(U141-GND-Pad8)*%
X124700000Y-4200000D03*
%TD*%
%TO.P,U140,1,Vin*%
%TO.N,Net-(U139-Vout)*%
X91300000Y4200000D03*
%TO.P,U140,2,Din*%
%TO.N,Net-(U139-Dout)*%
X91300000Y1400000D03*
%TO.P,U140,3,Bin*%
%TO.N,Net-(U139-Bout)*%
X91300000Y-1400000D03*
%TO.P,U140,4,GND*%
%TO.N,Net-(U139-GND-Pad8)*%
X91300000Y-4200000D03*
%TO.P,U140,5,Vout*%
%TO.N,Net-(U140-Vout)*%
X100700000Y4200000D03*
%TO.P,U140,6,Dout*%
%TO.N,Net-(U140-Dout)*%
X100700000Y1400000D03*
%TO.P,U140,7,Bout*%
%TO.N,Net-(U140-Bout)*%
X100700000Y-1400000D03*
%TO.P,U140,8,GND*%
%TO.N,Net-(U140-GND-Pad8)*%
X100700000Y-4200000D03*
%TD*%
%TO.P,U139,1,Vin*%
%TO.N,Net-(U138-Vout)*%
X67300000Y4200000D03*
%TO.P,U139,2,Din*%
%TO.N,Net-(U138-Dout)*%
X67300000Y1400000D03*
%TO.P,U139,3,Bin*%
%TO.N,Net-(U138-Bout)*%
X67300000Y-1400000D03*
%TO.P,U139,4,GND*%
%TO.N,Net-(U138-GND-Pad8)*%
X67300000Y-4200000D03*
%TO.P,U139,5,Vout*%
%TO.N,Net-(U139-Vout)*%
X76700000Y4200000D03*
%TO.P,U139,6,Dout*%
%TO.N,Net-(U139-Dout)*%
X76700000Y1400000D03*
%TO.P,U139,7,Bout*%
%TO.N,Net-(U139-Bout)*%
X76700000Y-1400000D03*
%TO.P,U139,8,GND*%
%TO.N,Net-(U139-GND-Pad8)*%
X76700000Y-4200000D03*
%TD*%
%TO.P,U138,1,Vin*%
%TO.N,Net-(U137-Vout)*%
X43300000Y4200000D03*
%TO.P,U138,2,Din*%
%TO.N,Net-(U137-Dout)*%
X43300000Y1400000D03*
%TO.P,U138,3,Bin*%
%TO.N,Net-(U137-Bout)*%
X43300000Y-1400000D03*
%TO.P,U138,4,GND*%
%TO.N,Net-(U137-GND-Pad8)*%
X43300000Y-4200000D03*
%TO.P,U138,5,Vout*%
%TO.N,Net-(U138-Vout)*%
X52700000Y4200000D03*
%TO.P,U138,6,Dout*%
%TO.N,Net-(U138-Dout)*%
X52700000Y1400000D03*
%TO.P,U138,7,Bout*%
%TO.N,Net-(U138-Bout)*%
X52700000Y-1400000D03*
%TO.P,U138,8,GND*%
%TO.N,Net-(U138-GND-Pad8)*%
X52700000Y-4200000D03*
%TD*%
%TO.P,U137,1,Vin*%
%TO.N,Net-(U136-Vout)*%
X19300000Y4200000D03*
%TO.P,U137,2,Din*%
%TO.N,Net-(U136-Dout)*%
X19300000Y1400000D03*
%TO.P,U137,3,Bin*%
%TO.N,Net-(U136-Bout)*%
X19300000Y-1400000D03*
%TO.P,U137,4,GND*%
%TO.N,Net-(U136-GND-Pad8)*%
X19300000Y-4200000D03*
%TO.P,U137,5,Vout*%
%TO.N,Net-(U137-Vout)*%
X28700000Y4200000D03*
%TO.P,U137,6,Dout*%
%TO.N,Net-(U137-Dout)*%
X28700000Y1400000D03*
%TO.P,U137,7,Bout*%
%TO.N,Net-(U137-Bout)*%
X28700000Y-1400000D03*
%TO.P,U137,8,GND*%
%TO.N,Net-(U137-GND-Pad8)*%
X28700000Y-4200000D03*
%TD*%
%TO.P,U136,1,Vin*%
%TO.N,Net-(U135-Vout)*%
X-4700000Y4200000D03*
%TO.P,U136,2,Din*%
%TO.N,Net-(U135-Dout)*%
X-4700000Y1400000D03*
%TO.P,U136,3,Bin*%
%TO.N,Net-(U135-Bout)*%
X-4700000Y-1400000D03*
%TO.P,U136,4,GND*%
%TO.N,Net-(U135-GND-Pad8)*%
X-4700000Y-4200000D03*
%TO.P,U136,5,Vout*%
%TO.N,Net-(U136-Vout)*%
X4700000Y4200000D03*
%TO.P,U136,6,Dout*%
%TO.N,Net-(U136-Dout)*%
X4700000Y1400000D03*
%TO.P,U136,7,Bout*%
%TO.N,Net-(U136-Bout)*%
X4700000Y-1400000D03*
%TO.P,U136,8,GND*%
%TO.N,Net-(U136-GND-Pad8)*%
X4700000Y-4200000D03*
%TD*%
D12*
%TO.N,Net-(J1-Pin_3)*%
X-5650000Y-371560000D02*
X-5650000Y-368140000D01*
X-6890000Y-366900000D02*
X-6890000Y-363590000D01*
X-5650000Y-368140000D02*
X-6890000Y-366900000D01*
X-6890000Y-363590000D02*
X-4700000Y-361400000D01*
%TO.N,Net-(J1-Pin_4)*%
X-4700000Y-364200000D02*
X-4700000Y-366470000D01*
X-2850000Y-368320000D02*
X-2850000Y-371560000D01*
X-4700000Y-366470000D02*
X-2850000Y-368320000D01*
%TO.N,Net-(J1-Pin_1)*%
X-11250000Y-371560000D02*
X-11250000Y-361340000D01*
X-5710000Y-355800000D02*
X-4700000Y-355800000D01*
X-11250000Y-361340000D02*
X-5710000Y-355800000D01*
%TO.N,Net-(J1-Pin_2)*%
X-8450000Y-371560000D02*
X-8450000Y-361290000D01*
X-8450000Y-361290000D02*
X-5760000Y-358600000D01*
X-5760000Y-358600000D02*
X-4700000Y-358600000D01*
%TO.N,Net-(U134-GND-Pad8)*%
X172700000Y-28200000D02*
X187300000Y-28200000D01*
%TO.N,Net-(U134-Bout)*%
X172700000Y-25400000D02*
X187300000Y-25400000D01*
%TO.N,Net-(U134-Dout)*%
X172700000Y-22600000D02*
X187300000Y-22600000D01*
%TO.N,Net-(U134-Vout)*%
X172700000Y-19800000D02*
X187300000Y-19800000D01*
%TO.N,Net-(U143-GND-Pad8)*%
X172700000Y-4200000D02*
X187300000Y-4200000D01*
%TO.N,Net-(U143-Bout)*%
X172700000Y-1400000D02*
X187300000Y-1400000D01*
%TO.N,Net-(U143-Dout)*%
X172700000Y1400000D02*
X187300000Y1400000D01*
%TO.N,Net-(U143-Vout)*%
X172700000Y4200000D02*
X187300000Y4200000D01*
%TO.N,Net-(U133-GND-Pad8)*%
X148700000Y-28200000D02*
X163300000Y-28200000D01*
%TO.N,Net-(U133-Bout)*%
X148700000Y-25400000D02*
X163300000Y-25400000D01*
%TO.N,Net-(U133-Dout)*%
X148700000Y-22600000D02*
X163300000Y-22600000D01*
%TO.N,Net-(U133-Vout)*%
X148700000Y-19800000D02*
X163300000Y-19800000D01*
%TO.N,Net-(U142-GND-Pad8)*%
X148700000Y-4200000D02*
X163300000Y-4200000D01*
%TO.N,Net-(U142-Bout)*%
X148700000Y-1400000D02*
X163300000Y-1400000D01*
%TO.N,Net-(U142-Dout)*%
X148700000Y1400000D02*
X163300000Y1400000D01*
%TO.N,Net-(U142-Vout)*%
X148700000Y4200000D02*
X163300000Y4200000D01*
%TO.N,Net-(U132-GND-Pad8)*%
X124700000Y-28200000D02*
X139300000Y-28200000D01*
%TO.N,Net-(U132-Bout)*%
X124700000Y-25400000D02*
X139300000Y-25400000D01*
%TO.N,Net-(U132-Dout)*%
X124700000Y-22600000D02*
X139300000Y-22600000D01*
%TO.N,Net-(U132-Vout)*%
X124700000Y-19800000D02*
X139300000Y-19800000D01*
%TO.N,Net-(U141-GND-Pad8)*%
X124700000Y-4200000D02*
X139300000Y-4200000D01*
%TO.N,Net-(U141-Bout)*%
X124700000Y-1400000D02*
X139300000Y-1400000D01*
%TO.N,Net-(U141-Dout)*%
X124700000Y1400000D02*
X139300000Y1400000D01*
%TO.N,Net-(U141-Vout)*%
X124700000Y4200000D02*
X139300000Y4200000D01*
%TO.N,Net-(U131-GND-Pad8)*%
X100700000Y-28200000D02*
X115300000Y-28200000D01*
%TO.N,Net-(U131-Bout)*%
X100700000Y-25400000D02*
X115300000Y-25400000D01*
%TO.N,Net-(U131-Dout)*%
X100700000Y-22600000D02*
X115300000Y-22600000D01*
%TO.N,Net-(U131-Vout)*%
X100700000Y-19800000D02*
X115300000Y-19800000D01*
%TO.N,Net-(U140-GND-Pad8)*%
X100700000Y-4200000D02*
X115300000Y-4200000D01*
%TO.N,Net-(U140-Bout)*%
X100700000Y-1400000D02*
X115300000Y-1400000D01*
%TO.N,Net-(U140-Dout)*%
X100700000Y1400000D02*
X115300000Y1400000D01*
%TO.N,Net-(U140-Vout)*%
X100700000Y4200000D02*
X115300000Y4200000D01*
%TO.N,Net-(U130-GND-Pad8)*%
X76700000Y-28200000D02*
X91300000Y-28200000D01*
%TO.N,Net-(U130-Bout)*%
X76700000Y-25400000D02*
X91300000Y-25400000D01*
%TO.N,Net-(U130-Dout)*%
X76700000Y-22600000D02*
X91300000Y-22600000D01*
%TO.N,Net-(U130-Vout)*%
X76700000Y-19800000D02*
X91300000Y-19800000D01*
%TO.N,Net-(U139-GND-Pad8)*%
X76700000Y-4200000D02*
X91300000Y-4200000D01*
%TO.N,Net-(U139-Bout)*%
X76700000Y-1400000D02*
X91300000Y-1400000D01*
%TO.N,Net-(U139-Dout)*%
X76700000Y1400000D02*
X91300000Y1400000D01*
%TO.N,Net-(U139-Vout)*%
X76700000Y4200000D02*
X91300000Y4200000D01*
%TO.N,Net-(U129-GND-Pad8)*%
X52700000Y-28200000D02*
X67300000Y-28200000D01*
%TO.N,Net-(U129-Bout)*%
X52700000Y-25400000D02*
X67300000Y-25400000D01*
%TO.N,Net-(U129-Dout)*%
X52700000Y-22600000D02*
X67300000Y-22600000D01*
%TO.N,Net-(U129-Vout)*%
X52700000Y-19800000D02*
X67300000Y-19800000D01*
%TO.N,Net-(U138-GND-Pad8)*%
X52700000Y-4200000D02*
X67300000Y-4200000D01*
%TO.N,Net-(U138-Bout)*%
X52700000Y-1400000D02*
X67300000Y-1400000D01*
%TO.N,Net-(U138-Dout)*%
X52700000Y1400000D02*
X67300000Y1400000D01*
%TO.N,Net-(U138-Vout)*%
X52700000Y4200000D02*
X67300000Y4200000D01*
%TO.N,Net-(U128-GND-Pad8)*%
X28700000Y-28200000D02*
X43300000Y-28200000D01*
%TO.N,Net-(U128-Bout)*%
X28700000Y-25400000D02*
X43300000Y-25400000D01*
%TO.N,Net-(U128-Dout)*%
X28700000Y-22600000D02*
X43300000Y-22600000D01*
%TO.N,Net-(U128-Vout)*%
X28700000Y-19800000D02*
X43300000Y-19800000D01*
%TO.N,Net-(U137-GND-Pad8)*%
X28700000Y-4200000D02*
X43300000Y-4200000D01*
%TO.N,Net-(U137-Bout)*%
X28700000Y-1400000D02*
X43300000Y-1400000D01*
%TO.N,Net-(U137-Dout)*%
X28700000Y1400000D02*
X43300000Y1400000D01*
%TO.N,Net-(U137-Vout)*%
X28700000Y4200000D02*
X43300000Y4200000D01*
%TO.N,Net-(U127-GND-Pad8)*%
X4700000Y-28200000D02*
X19300000Y-28200000D01*
%TO.N,Net-(U127-Bout)*%
X4700000Y-25400000D02*
X19300000Y-25400000D01*
%TO.N,Net-(U127-Dout)*%
X4700000Y-22600000D02*
X19300000Y-22600000D01*
%TO.N,Net-(U127-Vout)*%
X4700000Y-19800000D02*
X19300000Y-19800000D01*
%TO.N,Net-(U136-GND-Pad8)*%
X4700000Y-4200000D02*
X19300000Y-4200000D01*
%TO.N,Net-(U136-Bout)*%
X4700000Y-1400000D02*
X19300000Y-1400000D01*
%TO.N,Net-(U136-Dout)*%
X4700000Y1400000D02*
X19300000Y1400000D01*
%TO.N,Net-(U136-Vout)*%
X4700000Y4200000D02*
X19300000Y4200000D01*
%TO.N,Net-(U92-GND-Pad8)*%
X28700000Y-124200000D02*
X43300000Y-124200000D01*
%TO.N,Net-(U92-Bout)*%
X28700000Y-121400000D02*
X43300000Y-121400000D01*
%TO.N,Net-(U92-Dout)*%
X28700000Y-118600000D02*
X43300000Y-118600000D01*
%TO.N,Net-(U92-Vout)*%
X28700000Y-115800000D02*
X43300000Y-115800000D01*
%TO.N,Net-(U101-GND-Pad8)*%
X28700000Y-100200000D02*
X43300000Y-100200000D01*
%TO.N,Net-(U101-Bout)*%
X28700000Y-97400000D02*
X43300000Y-97400000D01*
%TO.N,Net-(U101-Dout)*%
X28700000Y-94600000D02*
X43300000Y-94600000D01*
%TO.N,Net-(U101-Vout)*%
X28700000Y-91800000D02*
X43300000Y-91800000D01*
%TO.N,Net-(U110-GND-Pad8)*%
X28700000Y-76200000D02*
X43300000Y-76200000D01*
%TO.N,Net-(U110-Bout)*%
X28700000Y-73400000D02*
X43300000Y-73400000D01*
%TO.N,Net-(U110-Dout)*%
X28700000Y-70600000D02*
X43300000Y-70600000D01*
%TO.N,Net-(U110-Vout)*%
X28700000Y-67800000D02*
X43300000Y-67800000D01*
%TO.N,Net-(U119-GND-Pad8)*%
X28700000Y-52200000D02*
X43300000Y-52200000D01*
%TO.N,Net-(U119-Bout)*%
X28700000Y-49400000D02*
X43300000Y-49400000D01*
%TO.N,Net-(U119-Dout)*%
X28700000Y-46600000D02*
X43300000Y-46600000D01*
%TO.N,Net-(U119-Vout)*%
X28700000Y-43800000D02*
X43300000Y-43800000D01*
%TO.N,Net-(U91-GND-Pad8)*%
X4700000Y-124200000D02*
X19300000Y-124200000D01*
%TO.N,Net-(U91-Bout)*%
X4700000Y-121400000D02*
X19300000Y-121400000D01*
%TO.N,Net-(U91-Dout)*%
X4700000Y-118600000D02*
X19300000Y-118600000D01*
%TO.N,Net-(U91-Vout)*%
X4700000Y-115800000D02*
X19300000Y-115800000D01*
%TO.N,Net-(U100-GND-Pad8)*%
X4700000Y-100200000D02*
X19300000Y-100200000D01*
%TO.N,Net-(U100-Bout)*%
X4700000Y-97400000D02*
X19300000Y-97400000D01*
%TO.N,Net-(U100-Dout)*%
X4700000Y-94600000D02*
X19300000Y-94600000D01*
%TO.N,Net-(U100-Vout)*%
X4700000Y-91800000D02*
X19300000Y-91800000D01*
%TO.N,Net-(U109-GND-Pad8)*%
X4700000Y-76200000D02*
X19300000Y-76200000D01*
%TO.N,Net-(U109-Bout)*%
X4700000Y-73400000D02*
X19300000Y-73400000D01*
%TO.N,Net-(U109-Dout)*%
X4700000Y-70600000D02*
X19300000Y-70600000D01*
%TO.N,Net-(U109-Vout)*%
X4700000Y-67800000D02*
X19300000Y-67800000D01*
%TO.N,Net-(U118-GND-Pad8)*%
X4700000Y-52200000D02*
X19300000Y-52200000D01*
%TO.N,Net-(U118-Bout)*%
X4700000Y-49400000D02*
X19300000Y-49400000D01*
%TO.N,Net-(U118-Dout)*%
X4700000Y-46600000D02*
X19300000Y-46600000D01*
%TO.N,Net-(U118-Vout)*%
X4700000Y-43800000D02*
X19300000Y-43800000D01*
%TO.N,Net-(U98-GND-Pad8)*%
X172700000Y-124200000D02*
X187300000Y-124200000D01*
%TO.N,Net-(U98-Bout)*%
X172700000Y-121400000D02*
X187300000Y-121400000D01*
%TO.N,Net-(U98-Dout)*%
X172700000Y-118600000D02*
X187300000Y-118600000D01*
%TO.N,Net-(U98-Vout)*%
X172700000Y-115800000D02*
X187300000Y-115800000D01*
%TO.N,Net-(U107-GND-Pad8)*%
X172700000Y-100200000D02*
X187300000Y-100200000D01*
%TO.N,Net-(U107-Bout)*%
X172700000Y-97400000D02*
X187300000Y-97400000D01*
%TO.N,Net-(U107-Dout)*%
X172700000Y-94600000D02*
X187300000Y-94600000D01*
%TO.N,Net-(U107-Vout)*%
X172700000Y-91800000D02*
X187300000Y-91800000D01*
%TO.N,Net-(U116-GND-Pad8)*%
X172700000Y-76200000D02*
X187300000Y-76200000D01*
%TO.N,Net-(U116-Bout)*%
X172700000Y-73400000D02*
X187300000Y-73400000D01*
%TO.N,Net-(U116-Dout)*%
X172700000Y-70600000D02*
X187300000Y-70600000D01*
%TO.N,Net-(U116-Vout)*%
X172700000Y-67800000D02*
X187300000Y-67800000D01*
%TO.N,Net-(U125-GND-Pad8)*%
X172700000Y-52200000D02*
X187300000Y-52200000D01*
%TO.N,Net-(U125-Bout)*%
X172700000Y-49400000D02*
X187300000Y-49400000D01*
%TO.N,Net-(U125-Dout)*%
X172700000Y-46600000D02*
X187300000Y-46600000D01*
%TO.N,Net-(U125-Vout)*%
X172700000Y-43800000D02*
X187300000Y-43800000D01*
%TO.N,Net-(U97-GND-Pad8)*%
X148700000Y-124200000D02*
X163300000Y-124200000D01*
%TO.N,Net-(U97-Bout)*%
X148700000Y-121400000D02*
X163300000Y-121400000D01*
%TO.N,Net-(U97-Dout)*%
X148700000Y-118600000D02*
X163300000Y-118600000D01*
%TO.N,Net-(U97-Vout)*%
X148700000Y-115800000D02*
X163300000Y-115800000D01*
%TO.N,Net-(U106-GND-Pad8)*%
X148700000Y-100200000D02*
X163300000Y-100200000D01*
%TO.N,Net-(U106-Bout)*%
X148700000Y-97400000D02*
X163300000Y-97400000D01*
%TO.N,Net-(U106-Dout)*%
X148700000Y-94600000D02*
X163300000Y-94600000D01*
%TO.N,Net-(U106-Vout)*%
X148700000Y-91800000D02*
X163300000Y-91800000D01*
%TO.N,Net-(U115-GND-Pad8)*%
X148700000Y-76200000D02*
X163300000Y-76200000D01*
%TO.N,Net-(U115-Bout)*%
X148700000Y-73400000D02*
X163300000Y-73400000D01*
%TO.N,Net-(U115-Dout)*%
X148700000Y-70600000D02*
X163300000Y-70600000D01*
%TO.N,Net-(U115-Vout)*%
X148700000Y-67800000D02*
X163300000Y-67800000D01*
%TO.N,Net-(U124-GND-Pad8)*%
X148700000Y-52200000D02*
X163300000Y-52200000D01*
%TO.N,Net-(U124-Bout)*%
X148700000Y-49400000D02*
X163300000Y-49400000D01*
%TO.N,Net-(U124-Dout)*%
X148700000Y-46600000D02*
X163300000Y-46600000D01*
%TO.N,Net-(U124-Vout)*%
X148700000Y-43800000D02*
X163300000Y-43800000D01*
%TO.N,Net-(U96-GND-Pad8)*%
X124700000Y-124200000D02*
X139300000Y-124200000D01*
%TO.N,Net-(U96-Bout)*%
X124700000Y-121400000D02*
X139300000Y-121400000D01*
%TO.N,Net-(U96-Dout)*%
X124700000Y-118600000D02*
X139300000Y-118600000D01*
%TO.N,Net-(U96-Vout)*%
X124700000Y-115800000D02*
X139300000Y-115800000D01*
%TO.N,Net-(U105-GND-Pad8)*%
X124700000Y-100200000D02*
X139300000Y-100200000D01*
%TO.N,Net-(U105-Bout)*%
X124700000Y-97400000D02*
X139300000Y-97400000D01*
%TO.N,Net-(U105-Dout)*%
X124700000Y-94600000D02*
X139300000Y-94600000D01*
%TO.N,Net-(U105-Vout)*%
X124700000Y-91800000D02*
X139300000Y-91800000D01*
%TO.N,Net-(U114-GND-Pad8)*%
X124700000Y-76200000D02*
X139300000Y-76200000D01*
%TO.N,Net-(U114-Bout)*%
X124700000Y-73400000D02*
X139300000Y-73400000D01*
%TO.N,Net-(U114-Dout)*%
X124700000Y-70600000D02*
X139300000Y-70600000D01*
%TO.N,Net-(U114-Vout)*%
X124700000Y-67800000D02*
X139300000Y-67800000D01*
%TO.N,Net-(U123-GND-Pad8)*%
X124700000Y-52200000D02*
X139300000Y-52200000D01*
%TO.N,Net-(U123-Bout)*%
X124700000Y-49400000D02*
X139300000Y-49400000D01*
%TO.N,Net-(U123-Dout)*%
X124700000Y-46600000D02*
X139300000Y-46600000D01*
%TO.N,Net-(U123-Vout)*%
X124700000Y-43800000D02*
X139300000Y-43800000D01*
%TO.N,Net-(U95-GND-Pad8)*%
X100700000Y-124200000D02*
X115300000Y-124200000D01*
%TO.N,Net-(U95-Bout)*%
X100700000Y-121400000D02*
X115300000Y-121400000D01*
%TO.N,Net-(U95-Dout)*%
X100700000Y-118600000D02*
X115300000Y-118600000D01*
%TO.N,Net-(U95-Vout)*%
X100700000Y-115800000D02*
X115300000Y-115800000D01*
%TO.N,Net-(U104-GND-Pad8)*%
X100700000Y-100200000D02*
X115300000Y-100200000D01*
%TO.N,Net-(U104-Bout)*%
X100700000Y-97400000D02*
X115300000Y-97400000D01*
%TO.N,Net-(U104-Dout)*%
X100700000Y-94600000D02*
X115300000Y-94600000D01*
%TO.N,Net-(U104-Vout)*%
X100700000Y-91800000D02*
X115300000Y-91800000D01*
%TO.N,Net-(U113-GND-Pad8)*%
X100700000Y-76200000D02*
X115300000Y-76200000D01*
%TO.N,Net-(U113-Bout)*%
X100700000Y-73400000D02*
X115300000Y-73400000D01*
%TO.N,Net-(U113-Dout)*%
X100700000Y-70600000D02*
X115300000Y-70600000D01*
%TO.N,Net-(U113-Vout)*%
X100700000Y-67800000D02*
X115300000Y-67800000D01*
%TO.N,Net-(U122-GND-Pad8)*%
X100700000Y-52200000D02*
X115300000Y-52200000D01*
%TO.N,Net-(U122-Bout)*%
X100700000Y-49400000D02*
X115300000Y-49400000D01*
%TO.N,Net-(U122-Dout)*%
X100700000Y-46600000D02*
X115300000Y-46600000D01*
%TO.N,Net-(U122-Vout)*%
X100700000Y-43800000D02*
X115300000Y-43800000D01*
%TO.N,Net-(U94-GND-Pad8)*%
X76700000Y-124200000D02*
X91300000Y-124200000D01*
%TO.N,Net-(U94-Bout)*%
X76700000Y-121400000D02*
X91300000Y-121400000D01*
%TO.N,Net-(U94-Dout)*%
X76700000Y-118600000D02*
X91300000Y-118600000D01*
%TO.N,Net-(U94-Vout)*%
X76700000Y-115800000D02*
X91300000Y-115800000D01*
%TO.N,Net-(U103-GND-Pad8)*%
X76700000Y-100200000D02*
X91300000Y-100200000D01*
%TO.N,Net-(U103-Bout)*%
X76700000Y-97400000D02*
X91300000Y-97400000D01*
%TO.N,Net-(U103-Dout)*%
X76700000Y-94600000D02*
X91300000Y-94600000D01*
%TO.N,Net-(U103-Vout)*%
X76700000Y-91800000D02*
X91300000Y-91800000D01*
%TO.N,Net-(U112-GND-Pad8)*%
X76700000Y-76200000D02*
X91300000Y-76200000D01*
%TO.N,Net-(U112-Bout)*%
X76700000Y-73400000D02*
X91300000Y-73400000D01*
%TO.N,Net-(U112-Dout)*%
X76700000Y-70600000D02*
X91300000Y-70600000D01*
%TO.N,Net-(U112-Vout)*%
X76700000Y-67800000D02*
X91300000Y-67800000D01*
%TO.N,Net-(U121-GND-Pad8)*%
X76700000Y-52200000D02*
X91300000Y-52200000D01*
%TO.N,Net-(U121-Bout)*%
X76700000Y-49400000D02*
X91300000Y-49400000D01*
%TO.N,Net-(U121-Dout)*%
X76700000Y-46600000D02*
X91300000Y-46600000D01*
%TO.N,Net-(U121-Vout)*%
X76700000Y-43800000D02*
X91300000Y-43800000D01*
%TO.N,Net-(U93-GND-Pad8)*%
X52700000Y-124200000D02*
X67300000Y-124200000D01*
%TO.N,Net-(U93-Bout)*%
X52700000Y-121400000D02*
X67300000Y-121400000D01*
%TO.N,Net-(U93-Dout)*%
X52700000Y-118600000D02*
X67300000Y-118600000D01*
%TO.N,Net-(U93-Vout)*%
X52700000Y-115800000D02*
X67300000Y-115800000D01*
%TO.N,Net-(U102-GND-Pad8)*%
X52700000Y-100200000D02*
X67300000Y-100200000D01*
%TO.N,Net-(U102-Bout)*%
X52700000Y-97400000D02*
X67300000Y-97400000D01*
%TO.N,Net-(U102-Dout)*%
X52700000Y-94600000D02*
X67300000Y-94600000D01*
%TO.N,Net-(U102-Vout)*%
X52700000Y-91800000D02*
X67300000Y-91800000D01*
%TO.N,Net-(U111-GND-Pad8)*%
X52700000Y-76200000D02*
X67300000Y-76200000D01*
%TO.N,Net-(U111-Bout)*%
X52700000Y-73400000D02*
X67300000Y-73400000D01*
%TO.N,Net-(U111-Dout)*%
X52700000Y-70600000D02*
X67300000Y-70600000D01*
%TO.N,Net-(U111-Vout)*%
X52700000Y-67800000D02*
X67300000Y-67800000D01*
%TO.N,Net-(U120-GND-Pad8)*%
X52700000Y-52200000D02*
X67300000Y-52200000D01*
%TO.N,Net-(U120-Bout)*%
X52700000Y-49400000D02*
X67300000Y-49400000D01*
%TO.N,Net-(U120-Dout)*%
X52700000Y-46600000D02*
X67300000Y-46600000D01*
%TO.N,Net-(U120-Vout)*%
X52700000Y-43800000D02*
X67300000Y-43800000D01*
%TO.N,Net-(U89-GND-Pad8)*%
X172700000Y-148200000D02*
X187300000Y-148200000D01*
%TO.N,Net-(U89-Bout)*%
X172700000Y-145400000D02*
X187300000Y-145400000D01*
%TO.N,Net-(U89-Dout)*%
X172700000Y-142600000D02*
X187300000Y-142600000D01*
%TO.N,Net-(U89-Vout)*%
X172700000Y-139800000D02*
X187300000Y-139800000D01*
%TO.N,Net-(U88-GND-Pad8)*%
X148700000Y-148200000D02*
X163300000Y-148200000D01*
%TO.N,Net-(U88-Bout)*%
X148700000Y-145400000D02*
X163300000Y-145400000D01*
%TO.N,Net-(U88-Dout)*%
X148700000Y-142600000D02*
X163300000Y-142600000D01*
%TO.N,Net-(U88-Vout)*%
X148700000Y-139800000D02*
X163300000Y-139800000D01*
%TO.N,Net-(U80-GND-Pad8)*%
X172700000Y-172200000D02*
X187300000Y-172200000D01*
%TO.N,Net-(U80-Bout)*%
X172700000Y-169400000D02*
X187300000Y-169400000D01*
%TO.N,Net-(U80-Dout)*%
X172700000Y-166600000D02*
X187300000Y-166600000D01*
%TO.N,Net-(U80-Vout)*%
X172700000Y-163800000D02*
X187300000Y-163800000D01*
%TO.N,Net-(U79-Vout)*%
X148700000Y-163800000D02*
X163300000Y-163800000D01*
%TO.N,Net-(U79-Dout)*%
X148700000Y-166600000D02*
X163300000Y-166600000D01*
%TO.N,Net-(U79-Bout)*%
X148700000Y-169400000D02*
X163300000Y-169400000D01*
%TO.N,Net-(U79-GND-Pad8)*%
X148700000Y-172200000D02*
X163300000Y-172200000D01*
%TO.N,Net-(U71-GND-Pad8)*%
X172700000Y-196200000D02*
X187300000Y-196200000D01*
%TO.N,Net-(U71-Bout)*%
X172700000Y-193400000D02*
X187300000Y-193400000D01*
%TO.N,Net-(U71-Dout)*%
X172700000Y-190600000D02*
X187300000Y-190600000D01*
%TO.N,Net-(U71-Vout)*%
X172700000Y-187800000D02*
X187300000Y-187800000D01*
%TO.N,Net-(U70-Vout)*%
X148700000Y-187800000D02*
X163300000Y-187800000D01*
%TO.N,Net-(U70-Dout)*%
X148700000Y-190600000D02*
X163300000Y-190600000D01*
%TO.N,Net-(U70-Bout)*%
X148700000Y-193400000D02*
X163300000Y-193400000D01*
%TO.N,Net-(U70-GND-Pad8)*%
X148700000Y-196200000D02*
X163300000Y-196200000D01*
%TO.N,Net-(U62-GND-Pad8)*%
X172700000Y-220200000D02*
X187300000Y-220200000D01*
%TO.N,Net-(U62-Bout)*%
X172700000Y-217400000D02*
X187300000Y-217400000D01*
%TO.N,Net-(U62-Dout)*%
X172700000Y-214600000D02*
X187300000Y-214600000D01*
%TO.N,Net-(U62-Vout)*%
X172700000Y-211800000D02*
X187300000Y-211800000D01*
%TO.N,Net-(U61-Vout)*%
X148700000Y-211800000D02*
X163300000Y-211800000D01*
%TO.N,Net-(U61-Dout)*%
X148700000Y-214600000D02*
X163300000Y-214600000D01*
%TO.N,Net-(U61-Bout)*%
X148700000Y-217400000D02*
X163300000Y-217400000D01*
%TO.N,Net-(U61-GND-Pad8)*%
X148700000Y-220200000D02*
X163300000Y-220200000D01*
%TO.N,Net-(U60-GND-Pad8)*%
X124700000Y-220200000D02*
X139300000Y-220200000D01*
%TO.N,Net-(U60-Bout)*%
X124700000Y-217400000D02*
X139300000Y-217400000D01*
%TO.N,Net-(U60-Dout)*%
X124700000Y-214600000D02*
X139300000Y-214600000D01*
%TO.N,Net-(U60-Vout)*%
X124700000Y-211800000D02*
X139300000Y-211800000D01*
%TO.N,Net-(U69-GND-Pad8)*%
X124700000Y-196200000D02*
X139300000Y-196200000D01*
%TO.N,Net-(U69-Bout)*%
X124700000Y-193400000D02*
X139300000Y-193400000D01*
%TO.N,Net-(U69-Dout)*%
X124700000Y-190600000D02*
X139300000Y-190600000D01*
%TO.N,Net-(U69-Vout)*%
X124700000Y-187800000D02*
X139300000Y-187800000D01*
%TO.N,Net-(U78-GND-Pad8)*%
X124700000Y-172200000D02*
X139300000Y-172200000D01*
%TO.N,Net-(U78-Bout)*%
X124700000Y-169400000D02*
X139300000Y-169400000D01*
%TO.N,Net-(U78-Dout)*%
X124700000Y-166600000D02*
X139300000Y-166600000D01*
%TO.N,Net-(U78-Vout)*%
X124700000Y-163800000D02*
X139300000Y-163800000D01*
%TO.N,Net-(U77-Dout)*%
X100700000Y-166600000D02*
X115300000Y-166600000D01*
%TO.N,Net-(U87-GND-Pad8)*%
X124700000Y-148200000D02*
X139300000Y-148200000D01*
%TO.N,Net-(U87-Bout)*%
X124700000Y-145400000D02*
X139300000Y-145400000D01*
%TO.N,Net-(U87-Dout)*%
X124700000Y-142600000D02*
X139300000Y-142600000D01*
%TO.N,Net-(U87-Vout)*%
X124700000Y-139800000D02*
X139300000Y-139800000D01*
%TO.N,Net-(U86-Vout)*%
X100700000Y-139800000D02*
X115300000Y-139800000D01*
%TO.N,Net-(U86-Dout)*%
X100700000Y-142600000D02*
X115300000Y-142600000D01*
%TO.N,Net-(U86-Bout)*%
X100700000Y-145400000D02*
X115300000Y-145400000D01*
%TO.N,Net-(U86-GND-Pad8)*%
X100700000Y-148200000D02*
X115300000Y-148200000D01*
%TO.N,Net-(U77-Vout)*%
X100700000Y-163800000D02*
X115300000Y-163800000D01*
%TO.N,Net-(U77-Bout)*%
X100700000Y-169400000D02*
X115300000Y-169400000D01*
%TO.N,Net-(U77-GND-Pad8)*%
X100700000Y-172200000D02*
X115300000Y-172200000D01*
%TO.N,Net-(U68-Vout)*%
X100700000Y-187800000D02*
X115300000Y-187800000D01*
%TO.N,Net-(U68-Dout)*%
X100700000Y-190600000D02*
X115300000Y-190600000D01*
%TO.N,Net-(U68-Bout)*%
X100700000Y-193400000D02*
X115300000Y-193400000D01*
%TO.N,Net-(U68-GND-Pad8)*%
X100700000Y-196200000D02*
X115300000Y-196200000D01*
%TO.N,Net-(U59-Vout)*%
X100700000Y-211800000D02*
X115300000Y-211800000D01*
%TO.N,Net-(U59-Dout)*%
X100700000Y-214600000D02*
X115300000Y-214600000D01*
%TO.N,Net-(U59-Bout)*%
X100700000Y-217400000D02*
X115300000Y-217400000D01*
%TO.N,Net-(U59-GND-Pad8)*%
X100700000Y-220200000D02*
X115300000Y-220200000D01*
%TO.N,Net-(U58-GND-Pad8)*%
X76700000Y-220200000D02*
X91300000Y-220200000D01*
%TO.N,Net-(U58-Bout)*%
X76700000Y-217400000D02*
X91300000Y-217400000D01*
%TO.N,Net-(U58-Dout)*%
X76700000Y-214600000D02*
X91300000Y-214600000D01*
%TO.N,Net-(U58-Vout)*%
X76700000Y-211800000D02*
X91300000Y-211800000D01*
%TO.N,Net-(U67-GND-Pad8)*%
X76700000Y-196200000D02*
X91300000Y-196200000D01*
%TO.N,Net-(U67-Bout)*%
X76700000Y-193400000D02*
X91300000Y-193400000D01*
%TO.N,Net-(U67-Dout)*%
X76700000Y-190600000D02*
X91300000Y-190600000D01*
%TO.N,Net-(U67-Vout)*%
X76700000Y-187800000D02*
X91300000Y-187800000D01*
%TO.N,Net-(U76-GND-Pad8)*%
X76700000Y-172200000D02*
X91300000Y-172200000D01*
%TO.N,Net-(U76-Bout)*%
X76700000Y-169400000D02*
X91300000Y-169400000D01*
%TO.N,Net-(U76-Dout)*%
X76700000Y-166600000D02*
X91300000Y-166600000D01*
%TO.N,Net-(U76-Vout)*%
X76700000Y-163800000D02*
X91300000Y-163800000D01*
%TO.N,Net-(U85-GND-Pad8)*%
X76700000Y-148200000D02*
X91300000Y-148200000D01*
%TO.N,Net-(U85-Bout)*%
X76700000Y-145400000D02*
X91300000Y-145400000D01*
%TO.N,Net-(U85-Dout)*%
X76700000Y-142600000D02*
X91300000Y-142600000D01*
%TO.N,Net-(U85-Vout)*%
X76700000Y-139800000D02*
X91300000Y-139800000D01*
%TO.N,Net-(U66-GND-Pad8)*%
X52700000Y-196200000D02*
X67300000Y-196200000D01*
%TO.N,Net-(U66-Bout)*%
X52700000Y-193400000D02*
X67300000Y-193400000D01*
%TO.N,Net-(U66-Dout)*%
X52700000Y-190600000D02*
X67300000Y-190600000D01*
%TO.N,Net-(U66-Vout)*%
X52700000Y-187800000D02*
X67300000Y-187800000D01*
%TO.N,Net-(U75-GND-Pad8)*%
X52700000Y-172200000D02*
X67300000Y-172200000D01*
%TO.N,Net-(U75-Bout)*%
X52700000Y-169400000D02*
X67300000Y-169400000D01*
%TO.N,Net-(U75-Dout)*%
X52700000Y-166600000D02*
X67300000Y-166600000D01*
%TO.N,Net-(U75-Vout)*%
X52700000Y-163800000D02*
X67300000Y-163800000D01*
%TO.N,Net-(U84-GND-Pad8)*%
X52700000Y-148200000D02*
X67300000Y-148200000D01*
%TO.N,Net-(U84-Bout)*%
X52700000Y-145400000D02*
X67300000Y-145400000D01*
%TO.N,Net-(U84-Dout)*%
X52700000Y-142600000D02*
X67300000Y-142600000D01*
%TO.N,Net-(U84-Vout)*%
X52700000Y-139800000D02*
X67300000Y-139800000D01*
%TO.N,Net-(U83-Vout)*%
X28700000Y-139800000D02*
X43300000Y-139800000D01*
%TO.N,Net-(U83-Dout)*%
X28700000Y-142600000D02*
X43300000Y-142600000D01*
%TO.N,Net-(U83-Bout)*%
X28700000Y-145400000D02*
X43300000Y-145400000D01*
%TO.N,Net-(U83-GND-Pad8)*%
X28700000Y-148200000D02*
X43300000Y-148200000D01*
%TO.N,Net-(U74-Vout)*%
X28700000Y-163800000D02*
X43300000Y-163800000D01*
%TO.N,Net-(U74-Dout)*%
X28700000Y-166600000D02*
X43300000Y-166600000D01*
%TO.N,Net-(U74-Bout)*%
X28700000Y-169400000D02*
X43300000Y-169400000D01*
%TO.N,Net-(U74-GND-Pad8)*%
X28700000Y-172200000D02*
X43300000Y-172200000D01*
%TO.N,Net-(U65-Vout)*%
X28700000Y-187800000D02*
X43300000Y-187800000D01*
%TO.N,Net-(U65-Dout)*%
X28700000Y-190600000D02*
X43300000Y-190600000D01*
%TO.N,Net-(U65-Bout)*%
X28700000Y-193400000D02*
X43300000Y-193400000D01*
%TO.N,Net-(U65-GND-Pad8)*%
X28700000Y-196200000D02*
X43300000Y-196200000D01*
%TO.N,Net-(U64-GND-Pad8)*%
X4700000Y-196200000D02*
X19300000Y-196200000D01*
%TO.N,Net-(U64-Bout)*%
X4700000Y-193400000D02*
X19300000Y-193400000D01*
%TO.N,Net-(U64-Dout)*%
X19300000Y-190600000D02*
X4700000Y-190600000D01*
%TO.N,Net-(U64-Vout)*%
X4700000Y-187800000D02*
X19300000Y-187800000D01*
%TO.N,Net-(U73-GND-Pad8)*%
X4700000Y-172200000D02*
X19300000Y-172200000D01*
%TO.N,Net-(U73-Bout)*%
X4700000Y-169400000D02*
X19300000Y-169400000D01*
%TO.N,Net-(U73-Dout)*%
X4700000Y-166600000D02*
X19300000Y-166600000D01*
%TO.N,Net-(U73-Vout)*%
X4700000Y-163800000D02*
X19300000Y-163800000D01*
%TO.N,Net-(U82-GND-Pad8)*%
X4700000Y-148200000D02*
X19300000Y-148200000D01*
%TO.N,Net-(U82-Bout)*%
X4700000Y-145400000D02*
X19300000Y-145400000D01*
%TO.N,Net-(U82-Dout)*%
X4700000Y-142600000D02*
X19300000Y-142600000D01*
%TO.N,Net-(U82-Vout)*%
X4700000Y-139800000D02*
X19300000Y-139800000D01*
%TO.N,Net-(U57-GND-Pad8)*%
X52700000Y-220200000D02*
X67300000Y-220200000D01*
%TO.N,Net-(U57-Bout)*%
X52700000Y-217400000D02*
X67300000Y-217400000D01*
%TO.N,Net-(U57-Dout)*%
X52700000Y-214600000D02*
X67300000Y-214600000D01*
%TO.N,Net-(U57-Vout)*%
X52700000Y-211800000D02*
X67300000Y-211800000D01*
%TO.N,Net-(U56-GND-Pad8)*%
X28700000Y-220200000D02*
X43300000Y-220200000D01*
%TO.N,Net-(U56-Bout)*%
X28700000Y-217400000D02*
X43300000Y-217400000D01*
%TO.N,Net-(U56-Dout)*%
X28700000Y-214600000D02*
X43300000Y-214600000D01*
%TO.N,Net-(U56-Vout)*%
X28700000Y-211800000D02*
X43300000Y-211800000D01*
%TO.N,Net-(U55-Vout)*%
X4700000Y-211800000D02*
X19300000Y-211800000D01*
%TO.N,Net-(U55-Dout)*%
X4700000Y-214600000D02*
X19300000Y-214600000D01*
%TO.N,Net-(U55-Bout)*%
X4700000Y-217400000D02*
X19300000Y-217400000D01*
%TO.N,Net-(U55-GND-Pad8)*%
X4700000Y-220200000D02*
X19300000Y-220200000D01*
%TO.N,Net-(U26-GND-Pad8)*%
X172700000Y-316200000D02*
X187300000Y-316200000D01*
%TO.N,Net-(U26-Bout)*%
X172700000Y-313400000D02*
X187300000Y-313400000D01*
%TO.N,Net-(U26-Dout)*%
X172700000Y-310600000D02*
X187300000Y-310600000D01*
%TO.N,Net-(U26-Vout)*%
X172700000Y-307800000D02*
X187300000Y-307800000D01*
%TO.N,Net-(U35-GND-Pad8)*%
X172700000Y-292200000D02*
X187300000Y-292200000D01*
%TO.N,Net-(U35-Bout)*%
X172700000Y-289400000D02*
X187300000Y-289400000D01*
%TO.N,Net-(U35-Dout)*%
X172700000Y-286600000D02*
X187300000Y-286600000D01*
%TO.N,Net-(U35-Vout)*%
X172700000Y-283800000D02*
X187300000Y-283800000D01*
%TO.N,Net-(U44-GND-Pad8)*%
X172700000Y-268200000D02*
X187300000Y-268200000D01*
%TO.N,Net-(U44-Bout)*%
X172700000Y-265400000D02*
X187300000Y-265400000D01*
%TO.N,Net-(U44-Dout)*%
X172700000Y-262600000D02*
X187300000Y-262600000D01*
%TO.N,Net-(U44-Vout)*%
X172700000Y-259800000D02*
X187300000Y-259800000D01*
%TO.N,Net-(U53-GND-Pad8)*%
X172700000Y-244200000D02*
X187300000Y-244200000D01*
%TO.N,Net-(U53-Bout)*%
X172700000Y-241400000D02*
X187300000Y-241400000D01*
%TO.N,Net-(U53-Dout)*%
X172700000Y-238600000D02*
X187300000Y-238600000D01*
%TO.N,Net-(U53-Vout)*%
X172700000Y-235800000D02*
X187300000Y-235800000D01*
%TO.N,Net-(U52-Vout)*%
X148700000Y-235800000D02*
X163300000Y-235800000D01*
%TO.N,Net-(U52-Dout)*%
X148700000Y-238600000D02*
X163300000Y-238600000D01*
%TO.N,Net-(U52-Bout)*%
X148700000Y-241400000D02*
X163300000Y-241400000D01*
%TO.N,Net-(U52-GND-Pad8)*%
X148700000Y-244200000D02*
X163300000Y-244200000D01*
%TO.N,Net-(U43-Vout)*%
X148700000Y-259800000D02*
X163300000Y-259800000D01*
%TO.N,Net-(U43-Dout)*%
X148700000Y-262600000D02*
X163300000Y-262600000D01*
%TO.N,Net-(U43-Bout)*%
X148700000Y-265400000D02*
X163300000Y-265400000D01*
%TO.N,Net-(U43-GND-Pad8)*%
X148700000Y-268200000D02*
X163300000Y-268200000D01*
%TO.N,Net-(U34-Vout)*%
X148700000Y-283800000D02*
X163300000Y-283800000D01*
%TO.N,Net-(U34-Dout)*%
X148700000Y-286600000D02*
X163300000Y-286600000D01*
%TO.N,Net-(U34-Bout)*%
X148700000Y-289400000D02*
X163300000Y-289400000D01*
%TO.N,Net-(U34-GND-Pad8)*%
X148700000Y-292200000D02*
X163300000Y-292200000D01*
%TO.N,Net-(U25-Vout)*%
X148700000Y-307800000D02*
X163300000Y-307800000D01*
%TO.N,Net-(U25-Dout)*%
X148700000Y-310600000D02*
X163300000Y-310600000D01*
%TO.N,Net-(U25-Bout)*%
X148700000Y-313400000D02*
X163300000Y-313400000D01*
%TO.N,Net-(U25-GND-Pad8)*%
X148700000Y-316200000D02*
X163300000Y-316200000D01*
%TO.N,Net-(U24-GND-Pad8)*%
X124700000Y-316200000D02*
X139300000Y-316200000D01*
%TO.N,Net-(U24-Bout)*%
X124700000Y-313400000D02*
X139300000Y-313400000D01*
%TO.N,Net-(U24-Dout)*%
X124700000Y-310600000D02*
X139300000Y-310600000D01*
%TO.N,Net-(U24-Vout)*%
X124700000Y-307800000D02*
X139300000Y-307800000D01*
%TO.N,Net-(U33-GND-Pad8)*%
X124700000Y-292200000D02*
X139300000Y-292200000D01*
%TO.N,Net-(U33-Bout)*%
X124700000Y-289400000D02*
X139300000Y-289400000D01*
%TO.N,Net-(U33-Dout)*%
X124700000Y-286600000D02*
X139300000Y-286600000D01*
%TO.N,Net-(U33-Vout)*%
X124700000Y-283800000D02*
X139300000Y-283800000D01*
%TO.N,Net-(U42-GND-Pad8)*%
X124700000Y-268200000D02*
X139300000Y-268200000D01*
%TO.N,Net-(U42-Bout)*%
X124700000Y-265400000D02*
X139300000Y-265400000D01*
%TO.N,Net-(U42-Dout)*%
X124700000Y-262600000D02*
X139300000Y-262600000D01*
%TO.N,Net-(U42-Vout)*%
X124700000Y-259800000D02*
X139300000Y-259800000D01*
%TO.N,Net-(U51-GND-Pad8)*%
X124700000Y-244200000D02*
X139300000Y-244200000D01*
%TO.N,Net-(U51-Bout)*%
X124700000Y-241400000D02*
X139300000Y-241400000D01*
%TO.N,Net-(U51-Dout)*%
X124700000Y-238600000D02*
X139300000Y-238600000D01*
%TO.N,Net-(U51-Vout)*%
X124700000Y-235800000D02*
X139300000Y-235800000D01*
%TO.N,Net-(U23-GND-Pad8)*%
X100700000Y-316200000D02*
X115300000Y-316200000D01*
%TO.N,Net-(U23-Bout)*%
X100700000Y-313400000D02*
X115300000Y-313400000D01*
%TO.N,Net-(U23-Dout)*%
X100700000Y-310600000D02*
X115300000Y-310600000D01*
%TO.N,Net-(U23-Vout)*%
X100700000Y-307800000D02*
X115300000Y-307800000D01*
%TO.N,Net-(U32-GND-Pad8)*%
X100700000Y-292200000D02*
X115300000Y-292200000D01*
%TO.N,Net-(U32-Bout)*%
X100700000Y-289400000D02*
X115300000Y-289400000D01*
%TO.N,Net-(U32-Dout)*%
X100700000Y-286600000D02*
X115300000Y-286600000D01*
%TO.N,Net-(U32-Vout)*%
X100700000Y-283800000D02*
X115300000Y-283800000D01*
%TO.N,Net-(U41-GND-Pad8)*%
X100700000Y-268200000D02*
X115300000Y-268200000D01*
%TO.N,Net-(U41-Bout)*%
X100700000Y-265400000D02*
X115300000Y-265400000D01*
%TO.N,Net-(U41-Dout)*%
X100700000Y-262600000D02*
X115300000Y-262600000D01*
%TO.N,Net-(U41-Vout)*%
X100700000Y-259800000D02*
X115300000Y-259800000D01*
%TO.N,Net-(U50-GND-Pad8)*%
X100700000Y-244200000D02*
X115300000Y-244200000D01*
%TO.N,Net-(U50-Bout)*%
X100700000Y-241400000D02*
X115300000Y-241400000D01*
%TO.N,Net-(U50-Dout)*%
X100700000Y-238600000D02*
X115300000Y-238600000D01*
%TO.N,Net-(U50-Vout)*%
X100700000Y-235800000D02*
X115300000Y-235800000D01*
%TO.N,Net-(U22-GND-Pad8)*%
X76700000Y-316200000D02*
X91300000Y-316200000D01*
%TO.N,Net-(U22-Bout)*%
X76700000Y-313400000D02*
X91300000Y-313400000D01*
%TO.N,Net-(U22-Dout)*%
X76700000Y-310600000D02*
X91300000Y-310600000D01*
%TO.N,Net-(U22-Vout)*%
X76700000Y-307800000D02*
X91300000Y-307800000D01*
%TO.N,Net-(U31-GND-Pad8)*%
X76700000Y-292200000D02*
X91300000Y-292200000D01*
%TO.N,Net-(U31-Bout)*%
X76700000Y-289400000D02*
X91300000Y-289400000D01*
%TO.N,Net-(U31-Dout)*%
X76700000Y-286600000D02*
X91300000Y-286600000D01*
%TO.N,Net-(U31-Vout)*%
X76700000Y-283800000D02*
X91300000Y-283800000D01*
%TO.N,Net-(U40-GND-Pad8)*%
X76700000Y-268200000D02*
X91300000Y-268200000D01*
%TO.N,Net-(U40-Bout)*%
X76700000Y-265400000D02*
X91300000Y-265400000D01*
%TO.N,Net-(U40-Dout)*%
X76700000Y-262600000D02*
X91300000Y-262600000D01*
%TO.N,Net-(U40-Vout)*%
X76700000Y-259800000D02*
X91300000Y-259800000D01*
%TO.N,Net-(U49-GND-Pad8)*%
X76700000Y-244200000D02*
X91300000Y-244200000D01*
%TO.N,Net-(U49-Bout)*%
X76700000Y-241400000D02*
X91300000Y-241400000D01*
%TO.N,Net-(U49-Dout)*%
X76700000Y-238600000D02*
X91300000Y-238600000D01*
%TO.N,Net-(U49-Vout)*%
X76700000Y-235800000D02*
X91300000Y-235800000D01*
%TO.N,Net-(U48-Vout)*%
X52700000Y-235800000D02*
X67300000Y-235800000D01*
%TO.N,Net-(U48-Dout)*%
X52700000Y-238600000D02*
X67300000Y-238600000D01*
%TO.N,Net-(U48-Bout)*%
X52700000Y-241400000D02*
X67300000Y-241400000D01*
%TO.N,Net-(U48-GND-Pad8)*%
X52700000Y-244200000D02*
X67300000Y-244200000D01*
%TO.N,Net-(U39-Vout)*%
X52700000Y-259800000D02*
X67300000Y-259800000D01*
%TO.N,Net-(U39-Dout)*%
X52700000Y-262600000D02*
X67300000Y-262600000D01*
%TO.N,Net-(U39-Bout)*%
X52700000Y-265400000D02*
X67300000Y-265400000D01*
%TO.N,Net-(U39-GND-Pad8)*%
X52700000Y-268200000D02*
X67300000Y-268200000D01*
%TO.N,Net-(U30-Vout)*%
X52700000Y-283800000D02*
X67300000Y-283800000D01*
%TO.N,Net-(U30-Dout)*%
X52700000Y-286600000D02*
X67300000Y-286600000D01*
%TO.N,Net-(U30-Bout)*%
X52700000Y-289400000D02*
X67300000Y-289400000D01*
%TO.N,Net-(U30-GND-Pad8)*%
X52700000Y-292200000D02*
X67300000Y-292200000D01*
%TO.N,Net-(U21-Vout)*%
X52700000Y-307800000D02*
X67300000Y-307800000D01*
%TO.N,Net-(U21-Dout)*%
X52700000Y-310600000D02*
X67300000Y-310600000D01*
%TO.N,Net-(U21-Bout)*%
X52700000Y-313400000D02*
X67300000Y-313400000D01*
%TO.N,Net-(U21-GND-Pad8)*%
X52700000Y-316200000D02*
X67300000Y-316200000D01*
%TO.N,Net-(U20-GND-Pad8)*%
X28700000Y-316200000D02*
X43300000Y-316200000D01*
%TO.N,Net-(U20-Bout)*%
X28700000Y-313400000D02*
X43300000Y-313400000D01*
%TO.N,Net-(U20-Dout)*%
X28700000Y-310600000D02*
X43300000Y-310600000D01*
%TO.N,Net-(U20-Vout)*%
X28700000Y-307800000D02*
X43300000Y-307800000D01*
%TO.N,Net-(U29-GND-Pad8)*%
X28700000Y-292200000D02*
X43300000Y-292200000D01*
%TO.N,Net-(U29-Bout)*%
X28700000Y-289400000D02*
X43300000Y-289400000D01*
%TO.N,Net-(U29-Dout)*%
X28700000Y-286600000D02*
X43300000Y-286600000D01*
%TO.N,Net-(U29-Vout)*%
X28700000Y-283800000D02*
X43300000Y-283800000D01*
%TO.N,Net-(U38-GND-Pad8)*%
X28700000Y-268200000D02*
X43300000Y-268200000D01*
%TO.N,Net-(U38-Bout)*%
X28700000Y-265400000D02*
X43300000Y-265400000D01*
%TO.N,Net-(U38-Dout)*%
X28700000Y-262600000D02*
X43300000Y-262600000D01*
%TO.N,Net-(U38-Vout)*%
X28700000Y-259800000D02*
X43300000Y-259800000D01*
%TO.N,Net-(U47-GND-Pad8)*%
X28700000Y-244200000D02*
X43300000Y-244200000D01*
%TO.N,Net-(U47-Bout)*%
X28700000Y-241400000D02*
X43300000Y-241400000D01*
%TO.N,Net-(U47-Dout)*%
X28700000Y-238600000D02*
X43300000Y-238600000D01*
%TO.N,Net-(U47-Vout)*%
X28700000Y-235800000D02*
X43300000Y-235800000D01*
%TO.N,Net-(U46-Vout)*%
X4700000Y-235800000D02*
X19300000Y-235800000D01*
%TO.N,Net-(U46-Dout)*%
X4700000Y-238600000D02*
X19300000Y-238600000D01*
%TO.N,Net-(U46-Bout)*%
X4700000Y-241400000D02*
X19300000Y-241400000D01*
%TO.N,Net-(U46-GND-Pad8)*%
X4700000Y-244200000D02*
X19300000Y-244200000D01*
%TO.N,Net-(U37-Vout)*%
X4700000Y-259800000D02*
X19300000Y-259800000D01*
%TO.N,Net-(U37-Dout)*%
X4700000Y-262600000D02*
X19300000Y-262600000D01*
%TO.N,Net-(U37-Bout)*%
X4700000Y-265400000D02*
X19300000Y-265400000D01*
%TO.N,Net-(U37-GND-Pad8)*%
X4700000Y-268200000D02*
X19300000Y-268200000D01*
%TO.N,Net-(U28-Vout)*%
X4700000Y-283800000D02*
X19300000Y-283800000D01*
%TO.N,Net-(U28-Dout)*%
X4700000Y-286600000D02*
X19300000Y-286600000D01*
%TO.N,Net-(U28-Bout)*%
X4700000Y-289400000D02*
X19300000Y-289400000D01*
%TO.N,Net-(U28-GND-Pad8)*%
X4700000Y-292200000D02*
X19300000Y-292200000D01*
%TO.N,Net-(U19-Vout)*%
X4700000Y-307800000D02*
X19300000Y-307800000D01*
%TO.N,Net-(U19-Dout)*%
X4700000Y-310600000D02*
X19300000Y-310600000D01*
%TO.N,Net-(U19-Bout)*%
X4700000Y-313400000D02*
X19300000Y-313400000D01*
%TO.N,Net-(U19-GND-Pad8)*%
X4700000Y-316200000D02*
X19300000Y-316200000D01*
%TO.N,Net-(U135-GND-Pad8)*%
X200130000Y-11000000D02*
X-3420000Y-11000000D01*
%TO.N,Net-(U135-Bout)*%
X-5040000Y-11670000D02*
X198610000Y-11670000D01*
X200240000Y-22920000D02*
X200240000Y-13300000D01*
X197760000Y-25400000D02*
X200240000Y-22920000D01*
X200240000Y-13300000D02*
X198610000Y-11670000D01*
X196680000Y-25400000D02*
X197760000Y-25400000D01*
%TO.N,Net-(U135-Dout)*%
X-8260000Y-1080001D02*
X-8260000Y-10700000D01*
X-8260000Y-10700000D02*
X-6630000Y-12330000D01*
X197020000Y-12330000D02*
X-6630000Y-12330000D01*
X-4700000Y1400000D02*
X-5780000Y1400000D01*
X-5780000Y1400000D02*
X-8260000Y-1080001D01*
X197720000Y-22600000D02*
X198500000Y-21820000D01*
X196680000Y-22600000D02*
X197720000Y-22600000D01*
X198500000Y-13810000D02*
X197020000Y-12330000D01*
%TO.N,Net-(U135-Vout)*%
X-9940000Y-11210000D02*
X-8150000Y-13000000D01*
%TO.N,Net-(U135-GND-Pad8)*%
X-4700000Y-9720000D02*
X-3420000Y-11000000D01*
%TO.N,Net-(U135-Vout)*%
X-4700000Y4200000D02*
X-5740000Y4200000D01*
X-5740000Y4200000D02*
X-9940000Y0D01*
%TO.N,Net-(U135-Bout)*%
X-5740000Y-1400000D02*
X-6520000Y-2180000D01*
X-6520000Y-2180000D02*
X-6520000Y-10190000D01*
X-6520000Y-10190000D02*
X-5040000Y-11670000D01*
%TO.N,Net-(U135-Vout)*%
X-8150000Y-13000000D02*
X195400000Y-13000000D01*
%TO.N,Net-(U135-Bout)*%
X-4700000Y-1400000D02*
X-5740000Y-1400000D01*
%TO.N,Net-(U135-Dout)*%
X198500000Y-21820000D02*
X198500000Y-13810000D01*
%TO.N,Net-(U135-Vout)*%
X-9940000Y0D02*
X-9940000Y-11210000D01*
%TO.N,Net-(U135-GND-Pad8)*%
X-4700000Y-4200000D02*
X-4700000Y-9720000D01*
X201920000Y-12790000D02*
X200130000Y-11000000D01*
X197720000Y-28200000D02*
X201920000Y-24000000D01*
X201920000Y-24000000D02*
X201920000Y-12790000D01*
X196680000Y-28200000D02*
X197720000Y-28200000D01*
%TO.N,Net-(U135-Vout)*%
X196680000Y-19800000D02*
X196680000Y-14280000D01*
X196680000Y-14280000D02*
X195400000Y-13000000D01*
%TO.N,Net-(U126-GND-Pad8)*%
X200130000Y-35000000D02*
X-3420000Y-35000000D01*
%TO.N,Net-(U126-Bout)*%
X-5040000Y-35670000D02*
X198610000Y-35670000D01*
X200240000Y-46920000D02*
X200240000Y-37300000D01*
X197760000Y-49400000D02*
X200240000Y-46920000D01*
X200240000Y-37300000D02*
X198610000Y-35670000D01*
X196680000Y-49400000D02*
X197760000Y-49400000D01*
%TO.N,Net-(U126-Dout)*%
X-8260000Y-25080001D02*
X-8260000Y-34700000D01*
X-8260000Y-34700000D02*
X-6630000Y-36330000D01*
X197020000Y-36330000D02*
X-6630000Y-36330000D01*
X-4700000Y-22600000D02*
X-5780000Y-22600000D01*
X-5780000Y-22600000D02*
X-8260000Y-25080001D01*
X197720000Y-46600000D02*
X198500000Y-45820000D01*
X196680000Y-46600000D02*
X197720000Y-46600000D01*
X198500000Y-37810000D02*
X197020000Y-36330000D01*
%TO.N,Net-(U126-Vout)*%
X-9940000Y-35210000D02*
X-8150000Y-37000000D01*
%TO.N,Net-(U126-GND-Pad8)*%
X-4700000Y-33720000D02*
X-3420000Y-35000000D01*
%TO.N,Net-(U126-Vout)*%
X-4700000Y-19800000D02*
X-5740000Y-19800000D01*
X-5740000Y-19800000D02*
X-9940000Y-24000000D01*
%TO.N,Net-(U126-Bout)*%
X-5740000Y-25400000D02*
X-6520000Y-26180000D01*
X-6520000Y-26180000D02*
X-6520000Y-34190000D01*
X-6520000Y-34190000D02*
X-5040000Y-35670000D01*
%TO.N,Net-(U126-Vout)*%
X-8150000Y-37000000D02*
X195400000Y-37000000D01*
%TO.N,Net-(U126-Bout)*%
X-4700000Y-25400000D02*
X-5740000Y-25400000D01*
%TO.N,Net-(U126-Dout)*%
X198500000Y-45820000D02*
X198500000Y-37810000D01*
%TO.N,Net-(U126-Vout)*%
X-9940000Y-24000000D02*
X-9940000Y-35210000D01*
%TO.N,Net-(U126-GND-Pad8)*%
X-4700000Y-28200000D02*
X-4700000Y-33720000D01*
X201920000Y-36790000D02*
X200130000Y-35000000D01*
X197720000Y-52200000D02*
X201920000Y-48000000D01*
X201920000Y-48000000D02*
X201920000Y-36790000D01*
X196680000Y-52200000D02*
X197720000Y-52200000D01*
%TO.N,Net-(U126-Vout)*%
X196680000Y-43800000D02*
X196680000Y-38280000D01*
X196680000Y-38280000D02*
X195400000Y-37000000D01*
%TO.N,Net-(U117-GND-Pad8)*%
X200120000Y-59020000D02*
X-3430000Y-59020000D01*
%TO.N,Net-(U117-Bout)*%
X-5050000Y-59690000D02*
X198600000Y-59690000D01*
X200230000Y-70940000D02*
X200230000Y-61320000D01*
X197750000Y-73420000D02*
X200230000Y-70940000D01*
X200230000Y-61320000D02*
X198600000Y-59690000D01*
X196670000Y-73420000D02*
X197750000Y-73420000D01*
%TO.N,Net-(U117-Dout)*%
X-8270000Y-49100001D02*
X-8270000Y-58720000D01*
X-8270000Y-58720000D02*
X-6640000Y-60350000D01*
X197010000Y-60350000D02*
X-6640000Y-60350000D01*
X-4710000Y-46620000D02*
X-5790000Y-46620000D01*
X-5790000Y-46620000D02*
X-8270000Y-49100001D01*
X197710000Y-70620000D02*
X198490000Y-69840000D01*
X196670000Y-70620000D02*
X197710000Y-70620000D01*
X198490000Y-61830000D02*
X197010000Y-60350000D01*
%TO.N,Net-(U117-Vout)*%
X-9950000Y-59230000D02*
X-8160000Y-61020000D01*
%TO.N,Net-(U117-GND-Pad8)*%
X-4710000Y-57740000D02*
X-3430000Y-59020000D01*
%TO.N,Net-(U117-Vout)*%
X-4710000Y-43820000D02*
X-5750000Y-43820000D01*
X-5750000Y-43820000D02*
X-9950000Y-48020000D01*
%TO.N,Net-(U117-Bout)*%
X-5750000Y-49420000D02*
X-6530000Y-50200000D01*
X-6530000Y-50200000D02*
X-6530000Y-58210000D01*
X-6530000Y-58210000D02*
X-5050000Y-59690000D01*
%TO.N,Net-(U117-Vout)*%
X-8160000Y-61020000D02*
X195390000Y-61020000D01*
%TO.N,Net-(U117-Bout)*%
X-4710000Y-49420000D02*
X-5750000Y-49420000D01*
%TO.N,Net-(U117-Dout)*%
X198490000Y-69840000D02*
X198490000Y-61830000D01*
%TO.N,Net-(U117-Vout)*%
X-9950000Y-48020000D02*
X-9950000Y-59230000D01*
%TO.N,Net-(U117-GND-Pad8)*%
X-4710000Y-52220000D02*
X-4710000Y-57740000D01*
X201910000Y-60810000D02*
X200120000Y-59020000D01*
X197710000Y-76220000D02*
X201910000Y-72020000D01*
X201910000Y-72020000D02*
X201910000Y-60810000D01*
X196670000Y-76220000D02*
X197710000Y-76220000D01*
%TO.N,Net-(U117-Vout)*%
X196670000Y-67820000D02*
X196670000Y-62300000D01*
X196670000Y-62300000D02*
X195390000Y-61020000D01*
%TO.N,Net-(U108-GND-Pad8)*%
X200140000Y-83050000D02*
X-3410000Y-83050000D01*
%TO.N,Net-(U108-Bout)*%
X-5030000Y-83720000D02*
X198620000Y-83720000D01*
X200250000Y-94970000D02*
X200250000Y-85350000D01*
X197770000Y-97450000D02*
X200250000Y-94970000D01*
X200250000Y-85350000D02*
X198620000Y-83720000D01*
X196690000Y-97450000D02*
X197770000Y-97450000D01*
%TO.N,Net-(U108-Dout)*%
X-8250000Y-73130001D02*
X-8250000Y-82750000D01*
X-8250000Y-82750000D02*
X-6620000Y-84380000D01*
X197030000Y-84380000D02*
X-6620000Y-84380000D01*
X-4690000Y-70650000D02*
X-5770000Y-70650000D01*
X-5770000Y-70650000D02*
X-8250000Y-73130001D01*
X197730000Y-94650000D02*
X198510000Y-93870000D01*
X196690000Y-94650000D02*
X197730000Y-94650000D01*
X198510000Y-85860000D02*
X197030000Y-84380000D01*
%TO.N,Net-(U108-Vout)*%
X-9930000Y-83260000D02*
X-8140000Y-85050000D01*
%TO.N,Net-(U108-GND-Pad8)*%
X-4690000Y-81770000D02*
X-3410000Y-83050000D01*
%TO.N,Net-(U108-Vout)*%
X-4690000Y-67850000D02*
X-5730000Y-67850000D01*
X-5730000Y-67850000D02*
X-9930000Y-72050000D01*
%TO.N,Net-(U108-Bout)*%
X-5730000Y-73450000D02*
X-6510000Y-74230000D01*
X-6510000Y-74230000D02*
X-6510000Y-82240000D01*
X-6510000Y-82240000D02*
X-5030000Y-83720000D01*
%TO.N,Net-(U108-Vout)*%
X-8140000Y-85050000D02*
X195410000Y-85050000D01*
%TO.N,Net-(U108-Bout)*%
X-4690000Y-73450000D02*
X-5730000Y-73450000D01*
%TO.N,Net-(U108-Dout)*%
X198510000Y-93870000D02*
X198510000Y-85860000D01*
%TO.N,Net-(U108-Vout)*%
X-9930000Y-72050000D02*
X-9930000Y-83260000D01*
%TO.N,Net-(U108-GND-Pad8)*%
X-4690000Y-76250000D02*
X-4690000Y-81770000D01*
X201930000Y-84840000D02*
X200140000Y-83050000D01*
X197730000Y-100250000D02*
X201930000Y-96050000D01*
X201930000Y-96050000D02*
X201930000Y-84840000D01*
X196690000Y-100250000D02*
X197730000Y-100250000D01*
%TO.N,Net-(U108-Vout)*%
X196690000Y-91850000D02*
X196690000Y-86330000D01*
X196690000Y-86330000D02*
X195410000Y-85050000D01*
%TO.N,Net-(U100-GND-Pad4)*%
X200140000Y-107030000D02*
X-3410000Y-107030000D01*
%TO.N,Net-(U100-Bin)*%
X-5030000Y-107700000D02*
X198620000Y-107700000D01*
X200250000Y-118950000D02*
X200250000Y-109330000D01*
X197770000Y-121430000D02*
X200250000Y-118950000D01*
X200250000Y-109330000D02*
X198620000Y-107700000D01*
X196690000Y-121430000D02*
X197770000Y-121430000D01*
%TO.N,Net-(U100-Din)*%
X-8250000Y-97110001D02*
X-8250000Y-106730000D01*
X-8250000Y-106730000D02*
X-6620000Y-108360000D01*
X197030000Y-108360000D02*
X-6620000Y-108360000D01*
X-4690000Y-94630000D02*
X-5770000Y-94630000D01*
X-5770000Y-94630000D02*
X-8250000Y-97110001D01*
X197730000Y-118630000D02*
X198510000Y-117850000D01*
X196690000Y-118630000D02*
X197730000Y-118630000D01*
X198510000Y-109840000D02*
X197030000Y-108360000D01*
%TO.N,Net-(U100-Vin)*%
X-9930000Y-107240000D02*
X-8140000Y-109030000D01*
%TO.N,Net-(U100-GND-Pad4)*%
X-4690000Y-105750000D02*
X-3410000Y-107030000D01*
%TO.N,Net-(U100-Vin)*%
X-4690000Y-91830000D02*
X-5730000Y-91830000D01*
X-5730000Y-91830000D02*
X-9930000Y-96030000D01*
%TO.N,Net-(U100-Bin)*%
X-5730000Y-97430000D02*
X-6510000Y-98210000D01*
X-6510000Y-98210000D02*
X-6510000Y-106220000D01*
X-6510000Y-106220000D02*
X-5030000Y-107700000D01*
%TO.N,Net-(U100-Vin)*%
X-8140000Y-109030000D02*
X195410000Y-109030000D01*
%TO.N,Net-(U100-Bin)*%
X-4690000Y-97430000D02*
X-5730000Y-97430000D01*
%TO.N,Net-(U100-Din)*%
X198510000Y-117850000D02*
X198510000Y-109840000D01*
%TO.N,Net-(U100-Vin)*%
X-9930000Y-96030000D02*
X-9930000Y-107240000D01*
%TO.N,Net-(U100-GND-Pad4)*%
X-4690000Y-100230000D02*
X-4690000Y-105750000D01*
X201930000Y-108820000D02*
X200140000Y-107030000D01*
X197730000Y-124230000D02*
X201930000Y-120030000D01*
X201930000Y-120030000D02*
X201930000Y-108820000D01*
X196690000Y-124230000D02*
X197730000Y-124230000D01*
%TO.N,Net-(U100-Vin)*%
X196690000Y-115830000D02*
X196690000Y-110310000D01*
X196690000Y-110310000D02*
X195410000Y-109030000D01*
%TO.N,Net-(U90-GND-Pad8)*%
X200130000Y-131050000D02*
X-3420000Y-131050000D01*
%TO.N,Net-(U90-Bout)*%
X-5040000Y-131720000D02*
X198610000Y-131720000D01*
X200240000Y-142970000D02*
X200240000Y-133350000D01*
X197760000Y-145450000D02*
X200240000Y-142970000D01*
X200240000Y-133350000D02*
X198610000Y-131720000D01*
X196680000Y-145450000D02*
X197760000Y-145450000D01*
%TO.N,Net-(U90-Dout)*%
X-8260000Y-121130001D02*
X-8260000Y-130750000D01*
X-8260000Y-130750000D02*
X-6630000Y-132380000D01*
X197020000Y-132380000D02*
X-6630000Y-132380000D01*
X-4700000Y-118650000D02*
X-5780000Y-118650000D01*
X-5780000Y-118650000D02*
X-8260000Y-121130001D01*
X197720000Y-142650000D02*
X198500000Y-141870000D01*
X196680000Y-142650000D02*
X197720000Y-142650000D01*
X198500000Y-133860000D02*
X197020000Y-132380000D01*
%TO.N,Net-(U90-Vout)*%
X-9940000Y-131260000D02*
X-8150000Y-133050000D01*
%TO.N,Net-(U90-GND-Pad8)*%
X-4700000Y-129770000D02*
X-3420000Y-131050000D01*
%TO.N,Net-(U90-Vout)*%
X-4700000Y-115850000D02*
X-5740000Y-115850000D01*
X-5740000Y-115850000D02*
X-9940000Y-120050000D01*
%TO.N,Net-(U90-Bout)*%
X-5740000Y-121450000D02*
X-6520000Y-122230000D01*
X-6520000Y-122230000D02*
X-6520000Y-130240000D01*
X-6520000Y-130240000D02*
X-5040000Y-131720000D01*
%TO.N,Net-(U90-Vout)*%
X-8150000Y-133050000D02*
X195400000Y-133050000D01*
%TO.N,Net-(U90-Bout)*%
X-4700000Y-121450000D02*
X-5740000Y-121450000D01*
%TO.N,Net-(U90-Dout)*%
X198500000Y-141870000D02*
X198500000Y-133860000D01*
%TO.N,Net-(U90-Vout)*%
X-9940000Y-120050000D02*
X-9940000Y-131260000D01*
%TO.N,Net-(U90-GND-Pad8)*%
X-4700000Y-124250000D02*
X-4700000Y-129770000D01*
X201920000Y-132840000D02*
X200130000Y-131050000D01*
X197720000Y-148250000D02*
X201920000Y-144050000D01*
X201920000Y-144050000D02*
X201920000Y-132840000D01*
X196680000Y-148250000D02*
X197720000Y-148250000D01*
%TO.N,Net-(U90-Vout)*%
X196680000Y-139850000D02*
X196680000Y-134330000D01*
X196680000Y-134330000D02*
X195400000Y-133050000D01*
%TO.N,Net-(U81-GND-Pad8)*%
X200130000Y-155050000D02*
X-3420000Y-155050000D01*
%TO.N,Net-(U81-Bout)*%
X-5040000Y-155720000D02*
X198610000Y-155720000D01*
X200240000Y-166970000D02*
X200240000Y-157350000D01*
X197760000Y-169450000D02*
X200240000Y-166970000D01*
X200240000Y-157350000D02*
X198610000Y-155720000D01*
X196680000Y-169450000D02*
X197760000Y-169450000D01*
%TO.N,Net-(U81-Dout)*%
X-8260000Y-145130001D02*
X-8260000Y-154750000D01*
X-8260000Y-154750000D02*
X-6630000Y-156380000D01*
X197020000Y-156380000D02*
X-6630000Y-156380000D01*
X-4700000Y-142650000D02*
X-5780000Y-142650000D01*
X-5780000Y-142650000D02*
X-8260000Y-145130001D01*
X197720000Y-166650000D02*
X198500000Y-165870000D01*
X196680000Y-166650000D02*
X197720000Y-166650000D01*
X198500000Y-157860000D02*
X197020000Y-156380000D01*
%TO.N,Net-(U81-Vout)*%
X-9940000Y-155260000D02*
X-8150000Y-157050000D01*
%TO.N,Net-(U81-GND-Pad8)*%
X-4700000Y-153770000D02*
X-3420000Y-155050000D01*
%TO.N,Net-(U81-Vout)*%
X-4700000Y-139850000D02*
X-5740000Y-139850000D01*
X-5740000Y-139850000D02*
X-9940000Y-144050000D01*
%TO.N,Net-(U81-Bout)*%
X-5740000Y-145450000D02*
X-6520000Y-146230000D01*
X-6520000Y-146230000D02*
X-6520000Y-154240000D01*
X-6520000Y-154240000D02*
X-5040000Y-155720000D01*
%TO.N,Net-(U81-Vout)*%
X-8150000Y-157050000D02*
X195400000Y-157050000D01*
%TO.N,Net-(U81-Bout)*%
X-4700000Y-145450000D02*
X-5740000Y-145450000D01*
%TO.N,Net-(U81-Dout)*%
X198500000Y-165870000D02*
X198500000Y-157860000D01*
%TO.N,Net-(U81-Vout)*%
X-9940000Y-144050000D02*
X-9940000Y-155260000D01*
%TO.N,Net-(U81-GND-Pad8)*%
X-4700000Y-148250000D02*
X-4700000Y-153770000D01*
X201920000Y-156840000D02*
X200130000Y-155050000D01*
X197720000Y-172250000D02*
X201920000Y-168050000D01*
X201920000Y-168050000D02*
X201920000Y-156840000D01*
X196680000Y-172250000D02*
X197720000Y-172250000D01*
%TO.N,Net-(U81-Vout)*%
X196680000Y-163850000D02*
X196680000Y-158330000D01*
X196680000Y-158330000D02*
X195400000Y-157050000D01*
%TO.N,Net-(U72-GND-Pad8)*%
X200130000Y-179010000D02*
X-3420000Y-179010000D01*
%TO.N,Net-(U72-Bout)*%
X-5040000Y-179680000D02*
X198610000Y-179680000D01*
X200240000Y-190930000D02*
X200240000Y-181310000D01*
X197760000Y-193410000D02*
X200240000Y-190930000D01*
X200240000Y-181310000D02*
X198610000Y-179680000D01*
X196680000Y-193410000D02*
X197760000Y-193410000D01*
%TO.N,Net-(U72-Dout)*%
X-8260000Y-169090001D02*
X-8260000Y-178710000D01*
X-8260000Y-178710000D02*
X-6630000Y-180340000D01*
X197020000Y-180340000D02*
X-6630000Y-180340000D01*
X-4700000Y-166610000D02*
X-5780000Y-166610000D01*
X-5780000Y-166610000D02*
X-8260000Y-169090001D01*
X197720000Y-190610000D02*
X198500000Y-189830000D01*
X196680000Y-190610000D02*
X197720000Y-190610000D01*
X198500000Y-181820000D02*
X197020000Y-180340000D01*
%TO.N,Net-(U72-Vout)*%
X-9940000Y-179220000D02*
X-8150000Y-181010000D01*
%TO.N,Net-(U72-GND-Pad8)*%
X-4700000Y-177730000D02*
X-3420000Y-179010000D01*
%TO.N,Net-(U72-Vout)*%
X-4700000Y-163810000D02*
X-5740000Y-163810000D01*
X-5740000Y-163810000D02*
X-9940000Y-168010000D01*
%TO.N,Net-(U72-Bout)*%
X-5740000Y-169410000D02*
X-6520000Y-170190000D01*
X-6520000Y-170190000D02*
X-6520000Y-178200000D01*
X-6520000Y-178200000D02*
X-5040000Y-179680000D01*
%TO.N,Net-(U72-Vout)*%
X-8150000Y-181010000D02*
X195400000Y-181010000D01*
%TO.N,Net-(U72-Bout)*%
X-4700000Y-169410000D02*
X-5740000Y-169410000D01*
%TO.N,Net-(U72-Dout)*%
X198500000Y-189830000D02*
X198500000Y-181820000D01*
%TO.N,Net-(U72-Vout)*%
X-9940000Y-168010000D02*
X-9940000Y-179220000D01*
%TO.N,Net-(U72-GND-Pad8)*%
X-4700000Y-172210000D02*
X-4700000Y-177730000D01*
X201920000Y-180800000D02*
X200130000Y-179010000D01*
X197720000Y-196210000D02*
X201920000Y-192010000D01*
X201920000Y-192010000D02*
X201920000Y-180800000D01*
X196680000Y-196210000D02*
X197720000Y-196210000D01*
%TO.N,Net-(U72-Vout)*%
X196680000Y-187810000D02*
X196680000Y-182290000D01*
X196680000Y-182290000D02*
X195400000Y-181010000D01*
%TO.N,Net-(U63-GND-Pad8)*%
X200140000Y-203040000D02*
X-3410000Y-203040000D01*
%TO.N,Net-(U63-Bout)*%
X-5030000Y-203710000D02*
X198620000Y-203710000D01*
X200250000Y-214960000D02*
X200250000Y-205340000D01*
X197770000Y-217440000D02*
X200250000Y-214960000D01*
X200250000Y-205340000D02*
X198620000Y-203710000D01*
X196690000Y-217440000D02*
X197770000Y-217440000D01*
%TO.N,Net-(U63-Dout)*%
X-8250000Y-193120001D02*
X-8250000Y-202740000D01*
X-8250000Y-202740000D02*
X-6620000Y-204370000D01*
X197030000Y-204370000D02*
X-6620000Y-204370000D01*
X-4690000Y-190640000D02*
X-5770000Y-190640000D01*
X-5770000Y-190640000D02*
X-8250000Y-193120001D01*
X197730000Y-214640000D02*
X198510000Y-213860000D01*
X196690000Y-214640000D02*
X197730000Y-214640000D01*
X198510000Y-205850000D02*
X197030000Y-204370000D01*
%TO.N,Net-(U63-Vout)*%
X-9930000Y-203250000D02*
X-8140000Y-205040000D01*
%TO.N,Net-(U63-GND-Pad8)*%
X-4690000Y-201760000D02*
X-3410000Y-203040000D01*
%TO.N,Net-(U63-Vout)*%
X-4690000Y-187840000D02*
X-5730000Y-187840000D01*
X-5730000Y-187840000D02*
X-9930000Y-192040000D01*
%TO.N,Net-(U63-Bout)*%
X-5730000Y-193440000D02*
X-6510000Y-194220000D01*
X-6510000Y-194220000D02*
X-6510000Y-202230000D01*
X-6510000Y-202230000D02*
X-5030000Y-203710000D01*
%TO.N,Net-(U63-Vout)*%
X-8140000Y-205040000D02*
X195410000Y-205040000D01*
%TO.N,Net-(U63-Bout)*%
X-4690000Y-193440000D02*
X-5730000Y-193440000D01*
%TO.N,Net-(U63-Dout)*%
X198510000Y-213860000D02*
X198510000Y-205850000D01*
%TO.N,Net-(U63-Vout)*%
X-9930000Y-192040000D02*
X-9930000Y-203250000D01*
%TO.N,Net-(U63-GND-Pad8)*%
X-4690000Y-196240000D02*
X-4690000Y-201760000D01*
X201930000Y-204830000D02*
X200140000Y-203040000D01*
X197730000Y-220240000D02*
X201930000Y-216040000D01*
X201930000Y-216040000D02*
X201930000Y-204830000D01*
X196690000Y-220240000D02*
X197730000Y-220240000D01*
%TO.N,Net-(U63-Vout)*%
X196690000Y-211840000D02*
X196690000Y-206320000D01*
X196690000Y-206320000D02*
X195410000Y-205040000D01*
%TO.N,Net-(U54-GND-Pad8)*%
X200140000Y-227030000D02*
X-3410000Y-227030000D01*
%TO.N,Net-(U54-Bout)*%
X-5030000Y-227700000D02*
X198620000Y-227700000D01*
X200250000Y-238950000D02*
X200250000Y-229330000D01*
X197770000Y-241430000D02*
X200250000Y-238950000D01*
X200250000Y-229330000D02*
X198620000Y-227700000D01*
X196690000Y-241430000D02*
X197770000Y-241430000D01*
%TO.N,Net-(U54-Dout)*%
X-8250000Y-217110001D02*
X-8250000Y-226730000D01*
X-8250000Y-226730000D02*
X-6620000Y-228360000D01*
X197030000Y-228360000D02*
X-6620000Y-228360000D01*
X-4690000Y-214630000D02*
X-5770000Y-214630000D01*
X-5770000Y-214630000D02*
X-8250000Y-217110001D01*
X197730000Y-238630000D02*
X198510000Y-237850000D01*
X196690000Y-238630000D02*
X197730000Y-238630000D01*
X198510000Y-229840000D02*
X197030000Y-228360000D01*
%TO.N,Net-(U54-Vout)*%
X-9930000Y-227240000D02*
X-8140000Y-229030000D01*
%TO.N,Net-(U54-GND-Pad8)*%
X-4690000Y-225750000D02*
X-3410000Y-227030000D01*
%TO.N,Net-(U54-Vout)*%
X-4690000Y-211830000D02*
X-5730000Y-211830000D01*
X-5730000Y-211830000D02*
X-9930000Y-216030000D01*
%TO.N,Net-(U54-Bout)*%
X-5730000Y-217430000D02*
X-6510000Y-218210000D01*
X-6510000Y-218210000D02*
X-6510000Y-226220000D01*
X-6510000Y-226220000D02*
X-5030000Y-227700000D01*
%TO.N,Net-(U54-Vout)*%
X-8140000Y-229030000D02*
X195410000Y-229030000D01*
%TO.N,Net-(U54-Bout)*%
X-4690000Y-217430000D02*
X-5730000Y-217430000D01*
%TO.N,Net-(U54-Dout)*%
X198510000Y-237850000D02*
X198510000Y-229840000D01*
%TO.N,Net-(U54-Vout)*%
X-9930000Y-216030000D02*
X-9930000Y-227240000D01*
%TO.N,Net-(U54-GND-Pad8)*%
X-4690000Y-220230000D02*
X-4690000Y-225750000D01*
X201930000Y-228820000D02*
X200140000Y-227030000D01*
X197730000Y-244230000D02*
X201930000Y-240030000D01*
X201930000Y-240030000D02*
X201930000Y-228820000D01*
X196690000Y-244230000D02*
X197730000Y-244230000D01*
%TO.N,Net-(U54-Vout)*%
X196690000Y-235830000D02*
X196690000Y-230310000D01*
X196690000Y-230310000D02*
X195410000Y-229030000D01*
%TO.N,Net-(U45-GND-Pad8)*%
X200150000Y-251030000D02*
X-3400000Y-251030000D01*
%TO.N,Net-(U45-Bout)*%
X-5020000Y-251700000D02*
X198630000Y-251700000D01*
X200260000Y-262950000D02*
X200260000Y-253330000D01*
X197780000Y-265430000D02*
X200260000Y-262950000D01*
X200260000Y-253330000D02*
X198630000Y-251700000D01*
X196700000Y-265430000D02*
X197780000Y-265430000D01*
%TO.N,Net-(U45-Dout)*%
X-8240000Y-241110001D02*
X-8240000Y-250730000D01*
X-8240000Y-250730000D02*
X-6610000Y-252360000D01*
X197040000Y-252360000D02*
X-6610000Y-252360000D01*
X-4680000Y-238630000D02*
X-5760000Y-238630000D01*
X-5760000Y-238630000D02*
X-8240000Y-241110001D01*
X197740000Y-262630000D02*
X198520000Y-261850000D01*
X196700000Y-262630000D02*
X197740000Y-262630000D01*
X198520000Y-253840000D02*
X197040000Y-252360000D01*
%TO.N,Net-(U45-Vout)*%
X-9920000Y-251240000D02*
X-8130000Y-253030000D01*
%TO.N,Net-(U45-GND-Pad8)*%
X-4680000Y-249750000D02*
X-3400000Y-251030000D01*
%TO.N,Net-(U45-Vout)*%
X-4680000Y-235830000D02*
X-5720000Y-235830000D01*
X-5720000Y-235830000D02*
X-9920000Y-240030000D01*
%TO.N,Net-(U45-Bout)*%
X-5720000Y-241430000D02*
X-6500000Y-242210000D01*
X-6500000Y-242210000D02*
X-6500000Y-250220000D01*
X-6500000Y-250220000D02*
X-5020000Y-251700000D01*
%TO.N,Net-(U45-Vout)*%
X-8130000Y-253030000D02*
X195420000Y-253030000D01*
%TO.N,Net-(U45-Bout)*%
X-4680000Y-241430000D02*
X-5720000Y-241430000D01*
%TO.N,Net-(U45-Dout)*%
X198520000Y-261850000D02*
X198520000Y-253840000D01*
%TO.N,Net-(U45-Vout)*%
X-9920000Y-240030000D02*
X-9920000Y-251240000D01*
%TO.N,Net-(U45-GND-Pad8)*%
X-4680000Y-244230000D02*
X-4680000Y-249750000D01*
X201940000Y-252820000D02*
X200150000Y-251030000D01*
X197740000Y-268230000D02*
X201940000Y-264030000D01*
X201940000Y-264030000D02*
X201940000Y-252820000D01*
X196700000Y-268230000D02*
X197740000Y-268230000D01*
%TO.N,Net-(U45-Vout)*%
X196700000Y-259830000D02*
X196700000Y-254310000D01*
X196700000Y-254310000D02*
X195420000Y-253030000D01*
%TO.N,Net-(U36-GND-Pad8)*%
X200120000Y-275050000D02*
X-3430000Y-275050000D01*
%TO.N,Net-(U36-Bout)*%
X-5050000Y-275720000D02*
X198600000Y-275720000D01*
X200230000Y-286970000D02*
X200230000Y-277350000D01*
X197750000Y-289450000D02*
X200230000Y-286970000D01*
X200230000Y-277350000D02*
X198600000Y-275720000D01*
X196670000Y-289450000D02*
X197750000Y-289450000D01*
%TO.N,Net-(U36-Dout)*%
X-8270000Y-265130001D02*
X-8270000Y-274750000D01*
X-8270000Y-274750000D02*
X-6640000Y-276380000D01*
X197010000Y-276380000D02*
X-6640000Y-276380000D01*
X-4710000Y-262650000D02*
X-5790000Y-262650000D01*
X-5790000Y-262650000D02*
X-8270000Y-265130001D01*
X197710000Y-286650000D02*
X198490000Y-285870000D01*
X196670000Y-286650000D02*
X197710000Y-286650000D01*
X198490000Y-277860000D02*
X197010000Y-276380000D01*
%TO.N,Net-(U36-Vout)*%
X-9950000Y-275260000D02*
X-8160000Y-277050000D01*
%TO.N,Net-(U36-GND-Pad8)*%
X-4710000Y-273770000D02*
X-3430000Y-275050000D01*
%TO.N,Net-(U36-Vout)*%
X-4710000Y-259850000D02*
X-5750000Y-259850000D01*
X-5750000Y-259850000D02*
X-9950000Y-264050000D01*
%TO.N,Net-(U36-Bout)*%
X-5750000Y-265450000D02*
X-6530000Y-266230000D01*
X-6530000Y-266230000D02*
X-6530000Y-274240000D01*
X-6530000Y-274240000D02*
X-5050000Y-275720000D01*
%TO.N,Net-(U36-Vout)*%
X-8160000Y-277050000D02*
X195390000Y-277050000D01*
%TO.N,Net-(U36-Bout)*%
X-4710000Y-265450000D02*
X-5750000Y-265450000D01*
%TO.N,Net-(U36-Dout)*%
X198490000Y-285870000D02*
X198490000Y-277860000D01*
%TO.N,Net-(U36-Vout)*%
X-9950000Y-264050000D02*
X-9950000Y-275260000D01*
%TO.N,Net-(U36-GND-Pad8)*%
X-4710000Y-268250000D02*
X-4710000Y-273770000D01*
X201910000Y-276840000D02*
X200120000Y-275050000D01*
X197710000Y-292250000D02*
X201910000Y-288050000D01*
X201910000Y-288050000D02*
X201910000Y-276840000D01*
X196670000Y-292250000D02*
X197710000Y-292250000D01*
%TO.N,Net-(U36-Vout)*%
X196670000Y-283850000D02*
X196670000Y-278330000D01*
X196670000Y-278330000D02*
X195390000Y-277050000D01*
%TO.N,Net-(U27-GND-Pad8)*%
X200110000Y-299060000D02*
X-3440000Y-299060000D01*
%TO.N,Net-(U27-Bout)*%
X-5060000Y-299730000D02*
X198590000Y-299730000D01*
X200220000Y-310980000D02*
X200220000Y-301360000D01*
X197740000Y-313460000D02*
X200220000Y-310980000D01*
X200220000Y-301360000D02*
X198590000Y-299730000D01*
X196660000Y-313460000D02*
X197740000Y-313460000D01*
%TO.N,Net-(U27-Dout)*%
X-8280000Y-289140001D02*
X-8280000Y-298760000D01*
X-8280000Y-298760000D02*
X-6650000Y-300390000D01*
X197000000Y-300390000D02*
X-6650000Y-300390000D01*
X-4720000Y-286660000D02*
X-5800000Y-286660000D01*
X-5800000Y-286660000D02*
X-8280000Y-289140001D01*
X197700000Y-310660000D02*
X198480000Y-309880000D01*
X196660000Y-310660000D02*
X197700000Y-310660000D01*
X198480000Y-301870000D02*
X197000000Y-300390000D01*
%TO.N,Net-(U27-Vout)*%
X-9960000Y-299270000D02*
X-8170000Y-301060000D01*
%TO.N,Net-(U27-GND-Pad8)*%
X-4720000Y-297780000D02*
X-3440000Y-299060000D01*
%TO.N,Net-(U27-Vout)*%
X-4720000Y-283860000D02*
X-5760000Y-283860000D01*
X-5760000Y-283860000D02*
X-9960000Y-288060000D01*
%TO.N,Net-(U27-Bout)*%
X-5760000Y-289460000D02*
X-6540000Y-290240000D01*
X-6540000Y-290240000D02*
X-6540000Y-298250000D01*
X-6540000Y-298250000D02*
X-5060000Y-299730000D01*
%TO.N,Net-(U27-Vout)*%
X-8170000Y-301060000D02*
X195380000Y-301060000D01*
%TO.N,Net-(U27-Bout)*%
X-4720000Y-289460000D02*
X-5760000Y-289460000D01*
%TO.N,Net-(U27-Dout)*%
X198480000Y-309880000D02*
X198480000Y-301870000D01*
%TO.N,Net-(U27-Vout)*%
X-9960000Y-288060000D02*
X-9960000Y-299270000D01*
%TO.N,Net-(U27-GND-Pad8)*%
X-4720000Y-292260000D02*
X-4720000Y-297780000D01*
X201900000Y-300850000D02*
X200110000Y-299060000D01*
X197700000Y-316260000D02*
X201900000Y-312060000D01*
X201900000Y-312060000D02*
X201900000Y-300850000D01*
X196660000Y-316260000D02*
X197700000Y-316260000D01*
%TO.N,Net-(U27-Vout)*%
X196660000Y-307860000D02*
X196660000Y-302340000D01*
X196660000Y-302340000D02*
X195380000Y-301060000D01*
%TO.N,Net-(U18-GND-Pad8)*%
X200120000Y-323100000D02*
X-3430000Y-323100000D01*
%TO.N,Net-(U18-Bout)*%
X-5050000Y-323770000D02*
X198600000Y-323770000D01*
X200230000Y-335020000D02*
X200230000Y-325400000D01*
X197750000Y-337500000D02*
X200230000Y-335020000D01*
X200230000Y-325400000D02*
X198600000Y-323770000D01*
X196670000Y-337500000D02*
X197750000Y-337500000D01*
%TO.N,Net-(U18-Dout)*%
X-8270000Y-313180001D02*
X-8270000Y-322800000D01*
X-8270000Y-322800000D02*
X-6640000Y-324430000D01*
X197010000Y-324430000D02*
X-6640000Y-324430000D01*
X-4710000Y-310700000D02*
X-5790000Y-310700000D01*
X-5790000Y-310700000D02*
X-8270000Y-313180001D01*
X197710000Y-334700000D02*
X198490000Y-333920000D01*
X196670000Y-334700000D02*
X197710000Y-334700000D01*
X198490000Y-325910000D02*
X197010000Y-324430000D01*
%TO.N,Net-(U18-Vout)*%
X-9950000Y-323310000D02*
X-8160000Y-325100000D01*
%TO.N,Net-(U18-GND-Pad8)*%
X-4710000Y-321820000D02*
X-3430000Y-323100000D01*
%TO.N,Net-(U18-Vout)*%
X-4710000Y-307900000D02*
X-5750000Y-307900000D01*
X-5750000Y-307900000D02*
X-9950000Y-312100000D01*
%TO.N,Net-(U18-Bout)*%
X-5750000Y-313500000D02*
X-6530000Y-314280000D01*
X-6530000Y-314280000D02*
X-6530000Y-322290000D01*
X-6530000Y-322290000D02*
X-5050000Y-323770000D01*
%TO.N,Net-(U18-Vout)*%
X-8160000Y-325100000D02*
X195390000Y-325100000D01*
%TO.N,Net-(U18-Bout)*%
X-4710000Y-313500000D02*
X-5750000Y-313500000D01*
%TO.N,Net-(U18-Dout)*%
X198490000Y-333920000D02*
X198490000Y-325910000D01*
%TO.N,Net-(U18-Vout)*%
X-9950000Y-312100000D02*
X-9950000Y-323310000D01*
%TO.N,Net-(U18-GND-Pad8)*%
X-4710000Y-316300000D02*
X-4710000Y-321820000D01*
X201910000Y-324890000D02*
X200120000Y-323100000D01*
X197710000Y-340300000D02*
X201910000Y-336100000D01*
X201910000Y-336100000D02*
X201910000Y-324890000D01*
X196670000Y-340300000D02*
X197710000Y-340300000D01*
%TO.N,Net-(U18-Vout)*%
X196670000Y-331900000D02*
X196670000Y-326380000D01*
X196670000Y-326380000D02*
X195390000Y-325100000D01*
%TO.N,Net-(U17-GND-Pad8)*%
X172700000Y-340200000D02*
X187300000Y-340200000D01*
%TO.N,Net-(U17-Bout)*%
X172700000Y-337400000D02*
X187300000Y-337400000D01*
%TO.N,Net-(U17-Dout)*%
X172700000Y-334600000D02*
X187300000Y-334600000D01*
%TO.N,Net-(U17-Vout)*%
X172700000Y-331800000D02*
X187300000Y-331800000D01*
%TO.N,Net-(U16-GND-Pad8)*%
X148700000Y-340200000D02*
X163300000Y-340200000D01*
%TO.N,Net-(U16-Bout)*%
X148700000Y-337400000D02*
X163300000Y-337400000D01*
%TO.N,Net-(U16-Dout)*%
X148700000Y-334600000D02*
X163300000Y-334600000D01*
%TO.N,Net-(U16-Vout)*%
X148700000Y-331800000D02*
X163300000Y-331800000D01*
%TO.N,Net-(U15-GND-Pad8)*%
X124700000Y-340200000D02*
X139300000Y-340200000D01*
%TO.N,Net-(U15-Bout)*%
X124700000Y-337400000D02*
X139300000Y-337400000D01*
%TO.N,Net-(U15-Dout)*%
X124700000Y-334600000D02*
X139300000Y-334600000D01*
%TO.N,Net-(U15-Vout)*%
X124700000Y-331800000D02*
X139300000Y-331800000D01*
%TO.N,Net-(U14-GND-Pad8)*%
X100700000Y-340200000D02*
X115300000Y-340200000D01*
%TO.N,Net-(U14-Bout)*%
X100700000Y-337400000D02*
X115300000Y-337400000D01*
%TO.N,Net-(U14-Dout)*%
X100700000Y-334600000D02*
X115300000Y-334600000D01*
%TO.N,Net-(U14-Vout)*%
X100700000Y-331800000D02*
X115300000Y-331800000D01*
%TO.N,Net-(U13-GND-Pad8)*%
X76700000Y-340200000D02*
X91300000Y-340200000D01*
%TO.N,Net-(U13-Bout)*%
X76700000Y-337400000D02*
X91300000Y-337400000D01*
%TO.N,Net-(U13-Dout)*%
X76700000Y-334600000D02*
X91300000Y-334600000D01*
%TO.N,Net-(U13-Vout)*%
X76700000Y-331800000D02*
X91300000Y-331800000D01*
%TO.N,Net-(U12-Vout)*%
X52700000Y-331800000D02*
X67300000Y-331800000D01*
%TO.N,Net-(U12-Dout)*%
X52700000Y-334600000D02*
X67300000Y-334600000D01*
%TO.N,Net-(U12-Bout)*%
X52700000Y-337400000D02*
X67300000Y-337400000D01*
%TO.N,Net-(U12-GND-Pad8)*%
X52700000Y-340200000D02*
X67300000Y-340200000D01*
%TO.N,Net-(U11-GND-Pad8)*%
X28700000Y-340200000D02*
X43300000Y-340200000D01*
%TO.N,Net-(U11-Bout)*%
X28700000Y-337400000D02*
X43300000Y-337400000D01*
%TO.N,Net-(U11-Dout)*%
X28700000Y-334600000D02*
X43300000Y-334600000D01*
%TO.N,Net-(U11-Vout)*%
X28700000Y-331800000D02*
X43300000Y-331800000D01*
%TO.N,Net-(U10-Vout)*%
X4700000Y-331800000D02*
X19300000Y-331800000D01*
%TO.N,Net-(U10-Dout)*%
X4700000Y-334600000D02*
X19300000Y-334600000D01*
%TO.N,Net-(U10-Bout)*%
X4700000Y-337400000D02*
X19300000Y-337400000D01*
%TO.N,Net-(U10-GND-Pad8)*%
X4700000Y-340200000D02*
X19300000Y-340200000D01*
%TO.N,Net-(U10-GND-Pad4)*%
X200150000Y-347000000D02*
X-3400000Y-347000000D01*
%TO.N,Net-(U10-Bin)*%
X196700000Y-361400000D02*
X197780000Y-361400000D01*
X197780000Y-361400000D02*
X200260000Y-358920000D01*
X200260000Y-358920000D02*
X200260000Y-349300000D01*
X200260000Y-349300000D02*
X198630000Y-347670000D01*
X-5020000Y-347670000D02*
X198630000Y-347670000D01*
%TO.N,Net-(U10-Din)*%
X-4680000Y-334600000D02*
X-5760000Y-334600000D01*
X-5760000Y-334600000D02*
X-8240000Y-337080001D01*
X-8240000Y-337080001D02*
X-8240000Y-346700000D01*
X-8240000Y-346700000D02*
X-6610000Y-348330000D01*
X197040000Y-348330000D02*
X-6610000Y-348330000D01*
%TO.N,Net-(U10-Vin)*%
X-8130000Y-349000000D02*
X195420000Y-349000000D01*
%TO.N,Net-(U10-Bin)*%
X-5720000Y-337400000D02*
X-6500000Y-338180000D01*
X-4680000Y-337400000D02*
X-5720000Y-337400000D01*
X-6500000Y-346190000D02*
X-5020000Y-347670000D01*
X-6500000Y-338180000D02*
X-6500000Y-346190000D01*
%TO.N,Net-(U10-Vin)*%
X-9920000Y-347210000D02*
X-8130000Y-349000000D01*
X-5720000Y-331800000D02*
X-9920000Y-336000000D01*
X-9920000Y-336000000D02*
X-9920000Y-347210000D01*
X-4680000Y-331800000D02*
X-5720000Y-331800000D01*
%TO.N,Net-(U10-GND-Pad4)*%
X-4680000Y-340200000D02*
X-4680000Y-345720000D01*
X-4680000Y-345720000D02*
X-3400000Y-347000000D01*
%TO.N,Net-(U10-Din)*%
X196700000Y-358600000D02*
X197740000Y-358600000D01*
X197740000Y-358600000D02*
X198520000Y-357820000D01*
X198520000Y-357820000D02*
X198520000Y-349810000D01*
X198520000Y-349810000D02*
X197040000Y-348330000D01*
%TO.N,Net-(U10-GND-Pad4)*%
X196700000Y-364200000D02*
X197740000Y-364200000D01*
X197740000Y-364200000D02*
X201940000Y-360000000D01*
X201940000Y-360000000D02*
X201940000Y-348790000D01*
X201940000Y-348790000D02*
X200150000Y-347000000D01*
%TO.N,Net-(U10-Vin)*%
X196700000Y-355800000D02*
X196700000Y-350280000D01*
X196700000Y-350280000D02*
X195420000Y-349000000D01*
%TO.N,Net-(U8-GND-Pad8)*%
X172700000Y-364200000D02*
X187300000Y-364200000D01*
%TO.N,Net-(U8-Bout)*%
X172700000Y-361400000D02*
X187300000Y-361400000D01*
%TO.N,Net-(U8-Dout)*%
X172700000Y-358600000D02*
X187300000Y-358600000D01*
%TO.N,Net-(U8-Vout)*%
X172700000Y-355800000D02*
X187300000Y-355800000D01*
%TO.N,Net-(U7-GND-Pad8)*%
X148700000Y-364200000D02*
X163300000Y-364200000D01*
%TO.N,Net-(U7-Bout)*%
X148700000Y-361400000D02*
X163300000Y-361400000D01*
%TO.N,Net-(U7-Dout)*%
X148700000Y-358600000D02*
X163300000Y-358600000D01*
%TO.N,Net-(U7-Vout)*%
X148700000Y-355800000D02*
X163300000Y-355800000D01*
%TO.N,Net-(U6-GND-Pad8)*%
X124700000Y-364200000D02*
X139300000Y-364200000D01*
%TO.N,Net-(U6-Bout)*%
X124700000Y-361400000D02*
X139300000Y-361400000D01*
%TO.N,Net-(U6-Dout)*%
X124700000Y-358600000D02*
X139300000Y-358600000D01*
%TO.N,Net-(U6-Vout)*%
X124700000Y-355800000D02*
X139300000Y-355800000D01*
%TO.N,Net-(U5-GND-Pad8)*%
X100700000Y-364200000D02*
X115300000Y-364200000D01*
%TO.N,Net-(U5-Bout)*%
X100700000Y-361400000D02*
X115300000Y-361400000D01*
%TO.N,Net-(U5-Dout)*%
X100700000Y-358600000D02*
X115300000Y-358600000D01*
%TO.N,Net-(U5-Vout)*%
X100700000Y-355800000D02*
X115300000Y-355800000D01*
%TO.N,Net-(U4-GND-Pad8)*%
X76700000Y-364200000D02*
X91300000Y-364200000D01*
%TO.N,Net-(U4-Bout)*%
X76700000Y-361400000D02*
X91300000Y-361400000D01*
%TO.N,Net-(U4-Dout)*%
X76700000Y-358600000D02*
X91300000Y-358600000D01*
%TO.N,Net-(U4-Vout)*%
X76700000Y-355800000D02*
X91300000Y-355800000D01*
%TO.N,Net-(U3-GND-Pad8)*%
X52700000Y-364200000D02*
X67300000Y-364200000D01*
%TO.N,Net-(U3-Bout)*%
X52700000Y-361400000D02*
X67300000Y-361400000D01*
%TO.N,Net-(U3-Dout)*%
X52700000Y-358600000D02*
X67300000Y-358600000D01*
%TO.N,Net-(U3-Vout)*%
X52700000Y-355800000D02*
X67300000Y-355800000D01*
%TO.N,Net-(U2-GND-Pad8)*%
X28700000Y-364200000D02*
X43300000Y-364200000D01*
%TO.N,Net-(U2-Bout)*%
X28700000Y-361400000D02*
X43300000Y-361400000D01*
%TO.N,Net-(U2-Dout)*%
X28700000Y-358600000D02*
X43300000Y-358600000D01*
%TO.N,Net-(U2-Vout)*%
X28700000Y-355800000D02*
X43300000Y-355800000D01*
%TO.N,Net-(U1-GND-Pad8)*%
X4700000Y-364200000D02*
X19300000Y-364200000D01*
%TO.N,Net-(U1-Bout)*%
X4700000Y-361400000D02*
X19300000Y-361400000D01*
%TO.N,Net-(U1-Dout)*%
X4700000Y-358600000D02*
X19300000Y-358600000D01*
%TO.N,Net-(U1-Vout)*%
X4700000Y-355800000D02*
X19300000Y-355800000D01*
%TD*%
M02*
