M48
; DRILL file {KiCad 7.0.8} date 2023 November 30, Thursday 13:58:33
; FORMAT={-:-/ absolute / inch / decimal}
; #@! TF.CreationDate,2023-11-30T13:58:33-08:00
; #@! TF.GenerationSoftware,Kicad,Pcbnew,7.0.8
; #@! TF.FileFunction,Plated,1,2,PTH
FMAT,2
INCH
; #@! TA.AperFunction,Plated,PTH,ComponentDrill
T1C0.0300
; #@! TA.AperFunction,Plated,PTH,ComponentDrill
T2C0.0394
%
G90
G05
T1
X1.4575Y-1.5098
X1.4575Y-1.8642
X1.6433Y-1.5098
X1.6433Y-1.8642
X2.2024Y-0.2486
X2.2028Y-0.1045
X2.5567Y-0.2486
X2.5571Y-0.1045
X3.6535Y-0.4331
X4.0079Y-0.4331
X7.7197Y-1.6094
X7.7197Y-1.9638
X7.9094Y-1.6094
X7.9094Y-1.9638
X8.0941Y-1.6089
X8.0941Y-1.9632
X8.276Y-1.6094
X8.276Y-1.9638
T2
X0.1563Y-1.6807
X0.2563Y-1.6807
X0.3563Y-1.6807
X0.4563Y-1.6807
X3.0512Y-0.2283
X3.1512Y-0.2283
X3.2512Y-0.2283
X3.3512Y-0.2283
X3.4512Y-0.2283
X3.5512Y-0.2283
X3.6512Y-0.2283
X3.739Y-0.0931
X3.7512Y-0.2283
X3.839Y-0.0931
X3.8512Y-0.2283
X3.939Y-0.0931
X3.9512Y-0.2283
X4.039Y-0.0931
X4.0512Y-0.2283
X4.0988Y-1.9931
X4.139Y-0.0931
X4.1512Y-0.2283
X4.1988Y-1.9931
X4.239Y-0.0931
X4.2512Y-0.2283
X4.2988Y-1.9931
X4.339Y-0.0931
X4.3512Y-0.2283
X4.3988Y-1.9931
X4.439Y-0.0931
X4.4512Y-0.2283
X4.4988Y-1.9931
X4.539Y-0.0931
X4.5512Y-0.2283
X4.5988Y-1.9931
X4.639Y-0.0931
X4.6988Y-1.9931
X4.7988Y-0.0931
X4.7988Y-1.9931
X4.8988Y-0.0931
X4.9988Y-0.0931
X4.9988Y-1.9931
X5.0988Y-0.0931
X5.0988Y-1.9931
X5.1988Y-0.0931
X5.1988Y-1.9931
X5.2988Y-0.0931
X5.2988Y-1.9931
X5.3988Y-0.0931
X5.3988Y-1.9931
X5.4988Y-0.0931
X5.4988Y-1.9931
T1
G00X0.7083Y-0.9728
M15
G01X0.7083Y-0.9241
M16
G05
G00X0.7083Y-1.1681
M15
G01X0.7083Y-1.1193
M16
G05
G00X1.2598Y-1.1669
M15
G01X1.2598Y-1.1181
M16
G05
G00X1.2614Y-0.9708
M15
G01X1.2614Y-0.9221
M16
G05
G00X1.8217Y-0.9728
M15
G01X1.8217Y-0.9241
M16
G05
G00X1.8217Y-1.1681
M15
G01X1.8217Y-1.1193
M16
G05
G00X2.3732Y-1.1669
M15
G01X2.3732Y-1.1181
M16
G05
G00X2.3748Y-0.9708
M15
G01X2.3748Y-0.9221
M16
G05
G00X6.2472Y-1.1166
M15
G01X6.2472Y-1.1653
M16
G05
G00X6.2488Y-0.9205
M15
G01X6.2488Y-0.9693
M16
G05
G00X6.8004Y-0.9193
M15
G01X6.8004Y-0.9681
M16
G05
G00X6.8004Y-1.1146
M15
G01X6.8004Y-1.1633
M16
G05
G00X6.8039Y-0.5591
M15
G01X6.8039Y-0.6078
M16
G05
G00X6.8039Y-1.6729
M15
G01X6.8039Y-1.7216
M16
G05
G00X6.8055Y-0.363
M15
G01X6.8055Y-0.4118
M16
G05
G00X6.8055Y-1.4768
M15
G01X6.8055Y-1.5256
M16
G05
G00X7.3571Y-0.3619
M15
G01X7.3571Y-0.4106
M16
G05
G00X7.3571Y-0.5571
M15
G01X7.3571Y-0.6059
M16
G05
G00X7.3571Y-1.4756
M15
G01X7.3571Y-1.5244
M16
G05
G00X7.3571Y-1.6709
M15
G01X7.3571Y-1.7196
M16
G05
G00X7.3606Y-1.1166
M15
G01X7.3606Y-1.1653
M16
G05
G00X7.3622Y-0.9205
M15
G01X7.3622Y-0.9693
M16
G05
G00X7.9138Y-0.9193
M15
G01X7.9138Y-0.9681
M16
G05
G00X7.9138Y-1.1146
M15
G01X7.9138Y-1.1633
M16
G05
T2
G00X0.7953Y-1.8382
M15
G01X0.7953Y-1.7516
M16
G05
G00X1.0354Y-1.6807
M15
G01X0.9331Y-1.6807
M16
G05
G00X1.0276Y-1.9287
M15
G01X0.9409Y-1.9287
M16
G05
T0
M30
