%TF.GenerationSoftware,KiCad,Pcbnew,7.0.8*%
%TF.CreationDate,2023-11-30T13:58:36-08:00*%
%TF.ProjectId,LED_matrix,4c45445f-6d61-4747-9269-782e6b696361,rev?*%
%TF.SameCoordinates,Original*%
%TF.FileFunction,Legend,Bot*%
%TF.FilePolarity,Positive*%
%FSLAX46Y46*%
G04 Gerber Fmt 4.6, Leading zero omitted, Abs format (unit mm)*
G04 Created by KiCad (PCBNEW 7.0.8) date 2023-11-30 13:58:36*
%MOMM*%
%LPD*%
G01*
G04 APERTURE LIST*
%ADD10C,0.150000*%
%ADD11C,0.100000*%
%ADD12C,0.120000*%
G04 APERTURE END LIST*
D10*
X51198572Y-8006009D02*
X50246191Y-8006009D01*
X51389048Y-8577438D02*
X50722382Y-6577438D01*
X50722382Y-6577438D02*
X50055715Y-8577438D01*
X49389048Y-8577438D02*
X49389048Y-7244104D01*
X49389048Y-7625057D02*
X49293810Y-7434580D01*
X49293810Y-7434580D02*
X49198572Y-7339342D01*
X49198572Y-7339342D02*
X49008096Y-7244104D01*
X49008096Y-7244104D02*
X48817619Y-7244104D01*
X47293810Y-8482200D02*
X47484286Y-8577438D01*
X47484286Y-8577438D02*
X47865239Y-8577438D01*
X47865239Y-8577438D02*
X48055715Y-8482200D01*
X48055715Y-8482200D02*
X48150953Y-8386961D01*
X48150953Y-8386961D02*
X48246191Y-8196485D01*
X48246191Y-8196485D02*
X48246191Y-7625057D01*
X48246191Y-7625057D02*
X48150953Y-7434580D01*
X48150953Y-7434580D02*
X48055715Y-7339342D01*
X48055715Y-7339342D02*
X47865239Y-7244104D01*
X47865239Y-7244104D02*
X47484286Y-7244104D01*
X47484286Y-7244104D02*
X47293810Y-7339342D01*
X45579524Y-8577438D02*
X45579524Y-7529819D01*
X45579524Y-7529819D02*
X45674762Y-7339342D01*
X45674762Y-7339342D02*
X45865238Y-7244104D01*
X45865238Y-7244104D02*
X46246191Y-7244104D01*
X46246191Y-7244104D02*
X46436667Y-7339342D01*
X45579524Y-8482200D02*
X45770000Y-8577438D01*
X45770000Y-8577438D02*
X46246191Y-8577438D01*
X46246191Y-8577438D02*
X46436667Y-8482200D01*
X46436667Y-8482200D02*
X46531905Y-8291723D01*
X46531905Y-8291723D02*
X46531905Y-8101247D01*
X46531905Y-8101247D02*
X46436667Y-7910771D01*
X46436667Y-7910771D02*
X46246191Y-7815533D01*
X46246191Y-7815533D02*
X45770000Y-7815533D01*
X45770000Y-7815533D02*
X45579524Y-7720295D01*
X43770000Y-8577438D02*
X43770000Y-6577438D01*
X43770000Y-8482200D02*
X43960476Y-8577438D01*
X43960476Y-8577438D02*
X44341429Y-8577438D01*
X44341429Y-8577438D02*
X44531905Y-8482200D01*
X44531905Y-8482200D02*
X44627143Y-8386961D01*
X44627143Y-8386961D02*
X44722381Y-8196485D01*
X44722381Y-8196485D02*
X44722381Y-7625057D01*
X44722381Y-7625057D02*
X44627143Y-7434580D01*
X44627143Y-7434580D02*
X44531905Y-7339342D01*
X44531905Y-7339342D02*
X44341429Y-7244104D01*
X44341429Y-7244104D02*
X43960476Y-7244104D01*
X43960476Y-7244104D02*
X43770000Y-7339342D01*
X42055714Y-8482200D02*
X42246190Y-8577438D01*
X42246190Y-8577438D02*
X42627143Y-8577438D01*
X42627143Y-8577438D02*
X42817619Y-8482200D01*
X42817619Y-8482200D02*
X42912857Y-8291723D01*
X42912857Y-8291723D02*
X42912857Y-7529819D01*
X42912857Y-7529819D02*
X42817619Y-7339342D01*
X42817619Y-7339342D02*
X42627143Y-7244104D01*
X42627143Y-7244104D02*
X42246190Y-7244104D01*
X42246190Y-7244104D02*
X42055714Y-7339342D01*
X42055714Y-7339342D02*
X41960476Y-7529819D01*
X41960476Y-7529819D02*
X41960476Y-7720295D01*
X41960476Y-7720295D02*
X42912857Y-7910771D01*
X39579523Y-8577438D02*
X39579523Y-6577438D01*
X39579523Y-6577438D02*
X38912856Y-8006009D01*
X38912856Y-8006009D02*
X38246190Y-6577438D01*
X38246190Y-6577438D02*
X38246190Y-8577438D01*
X36436666Y-8577438D02*
X36436666Y-7529819D01*
X36436666Y-7529819D02*
X36531904Y-7339342D01*
X36531904Y-7339342D02*
X36722380Y-7244104D01*
X36722380Y-7244104D02*
X37103333Y-7244104D01*
X37103333Y-7244104D02*
X37293809Y-7339342D01*
X36436666Y-8482200D02*
X36627142Y-8577438D01*
X36627142Y-8577438D02*
X37103333Y-8577438D01*
X37103333Y-8577438D02*
X37293809Y-8482200D01*
X37293809Y-8482200D02*
X37389047Y-8291723D01*
X37389047Y-8291723D02*
X37389047Y-8101247D01*
X37389047Y-8101247D02*
X37293809Y-7910771D01*
X37293809Y-7910771D02*
X37103333Y-7815533D01*
X37103333Y-7815533D02*
X36627142Y-7815533D01*
X36627142Y-7815533D02*
X36436666Y-7720295D01*
X34627142Y-8482200D02*
X34817618Y-8577438D01*
X34817618Y-8577438D02*
X35198571Y-8577438D01*
X35198571Y-8577438D02*
X35389047Y-8482200D01*
X35389047Y-8482200D02*
X35484285Y-8386961D01*
X35484285Y-8386961D02*
X35579523Y-8196485D01*
X35579523Y-8196485D02*
X35579523Y-7625057D01*
X35579523Y-7625057D02*
X35484285Y-7434580D01*
X35484285Y-7434580D02*
X35389047Y-7339342D01*
X35389047Y-7339342D02*
X35198571Y-7244104D01*
X35198571Y-7244104D02*
X34817618Y-7244104D01*
X34817618Y-7244104D02*
X34627142Y-7339342D01*
X33769999Y-8577438D02*
X33769999Y-6577438D01*
X32912856Y-8577438D02*
X32912856Y-7529819D01*
X32912856Y-7529819D02*
X33008094Y-7339342D01*
X33008094Y-7339342D02*
X33198570Y-7244104D01*
X33198570Y-7244104D02*
X33484285Y-7244104D01*
X33484285Y-7244104D02*
X33674761Y-7339342D01*
X33674761Y-7339342D02*
X33769999Y-7434580D01*
X31960475Y-8577438D02*
X31960475Y-7244104D01*
X31960475Y-6577438D02*
X32055713Y-6672676D01*
X32055713Y-6672676D02*
X31960475Y-6767914D01*
X31960475Y-6767914D02*
X31865237Y-6672676D01*
X31865237Y-6672676D02*
X31960475Y-6577438D01*
X31960475Y-6577438D02*
X31960475Y-6767914D01*
X31008094Y-7244104D02*
X31008094Y-8577438D01*
X31008094Y-7434580D02*
X30912856Y-7339342D01*
X30912856Y-7339342D02*
X30722380Y-7244104D01*
X30722380Y-7244104D02*
X30436665Y-7244104D01*
X30436665Y-7244104D02*
X30246189Y-7339342D01*
X30246189Y-7339342D02*
X30150951Y-7529819D01*
X30150951Y-7529819D02*
X30150951Y-8577438D01*
X28436665Y-8482200D02*
X28627141Y-8577438D01*
X28627141Y-8577438D02*
X29008094Y-8577438D01*
X29008094Y-8577438D02*
X29198570Y-8482200D01*
X29198570Y-8482200D02*
X29293808Y-8291723D01*
X29293808Y-8291723D02*
X29293808Y-7529819D01*
X29293808Y-7529819D02*
X29198570Y-7339342D01*
X29198570Y-7339342D02*
X29008094Y-7244104D01*
X29008094Y-7244104D02*
X28627141Y-7244104D01*
X28627141Y-7244104D02*
X28436665Y-7339342D01*
X28436665Y-7339342D02*
X28341427Y-7529819D01*
X28341427Y-7529819D02*
X28341427Y-7720295D01*
X28341427Y-7720295D02*
X29293808Y-7910771D01*
X50579524Y-11797438D02*
X50579524Y-9797438D01*
X50579524Y-9797438D02*
X49436667Y-11797438D01*
X49436667Y-11797438D02*
X49436667Y-9797438D01*
X48484286Y-11797438D02*
X48484286Y-10464104D01*
X48484286Y-9797438D02*
X48579524Y-9892676D01*
X48579524Y-9892676D02*
X48484286Y-9987914D01*
X48484286Y-9987914D02*
X48389048Y-9892676D01*
X48389048Y-9892676D02*
X48484286Y-9797438D01*
X48484286Y-9797438D02*
X48484286Y-9987914D01*
X46674762Y-11702200D02*
X46865238Y-11797438D01*
X46865238Y-11797438D02*
X47246191Y-11797438D01*
X47246191Y-11797438D02*
X47436667Y-11702200D01*
X47436667Y-11702200D02*
X47531905Y-11606961D01*
X47531905Y-11606961D02*
X47627143Y-11416485D01*
X47627143Y-11416485D02*
X47627143Y-10845057D01*
X47627143Y-10845057D02*
X47531905Y-10654580D01*
X47531905Y-10654580D02*
X47436667Y-10559342D01*
X47436667Y-10559342D02*
X47246191Y-10464104D01*
X47246191Y-10464104D02*
X46865238Y-10464104D01*
X46865238Y-10464104D02*
X46674762Y-10559342D01*
X45817619Y-11797438D02*
X45817619Y-9797438D01*
X45627143Y-11035533D02*
X45055714Y-11797438D01*
X45055714Y-10464104D02*
X45817619Y-11226009D01*
X42769999Y-11702200D02*
X42484285Y-11797438D01*
X42484285Y-11797438D02*
X42008094Y-11797438D01*
X42008094Y-11797438D02*
X41817618Y-11702200D01*
X41817618Y-11702200D02*
X41722380Y-11606961D01*
X41722380Y-11606961D02*
X41627142Y-11416485D01*
X41627142Y-11416485D02*
X41627142Y-11226009D01*
X41627142Y-11226009D02*
X41722380Y-11035533D01*
X41722380Y-11035533D02*
X41817618Y-10940295D01*
X41817618Y-10940295D02*
X42008094Y-10845057D01*
X42008094Y-10845057D02*
X42389047Y-10749819D01*
X42389047Y-10749819D02*
X42579523Y-10654580D01*
X42579523Y-10654580D02*
X42674761Y-10559342D01*
X42674761Y-10559342D02*
X42769999Y-10368866D01*
X42769999Y-10368866D02*
X42769999Y-10178390D01*
X42769999Y-10178390D02*
X42674761Y-9987914D01*
X42674761Y-9987914D02*
X42579523Y-9892676D01*
X42579523Y-9892676D02*
X42389047Y-9797438D01*
X42389047Y-9797438D02*
X41912856Y-9797438D01*
X41912856Y-9797438D02*
X41627142Y-9892676D01*
X39912856Y-11702200D02*
X40103332Y-11797438D01*
X40103332Y-11797438D02*
X40484285Y-11797438D01*
X40484285Y-11797438D02*
X40674761Y-11702200D01*
X40674761Y-11702200D02*
X40769999Y-11606961D01*
X40769999Y-11606961D02*
X40865237Y-11416485D01*
X40865237Y-11416485D02*
X40865237Y-10845057D01*
X40865237Y-10845057D02*
X40769999Y-10654580D01*
X40769999Y-10654580D02*
X40674761Y-10559342D01*
X40674761Y-10559342D02*
X40484285Y-10464104D01*
X40484285Y-10464104D02*
X40103332Y-10464104D01*
X40103332Y-10464104D02*
X39912856Y-10559342D01*
X39055713Y-11797438D02*
X39055713Y-10464104D01*
X39055713Y-9797438D02*
X39150951Y-9892676D01*
X39150951Y-9892676D02*
X39055713Y-9987914D01*
X39055713Y-9987914D02*
X38960475Y-9892676D01*
X38960475Y-9892676D02*
X39055713Y-9797438D01*
X39055713Y-9797438D02*
X39055713Y-9987914D01*
X37246189Y-11797438D02*
X37246189Y-10749819D01*
X37246189Y-10749819D02*
X37341427Y-10559342D01*
X37341427Y-10559342D02*
X37531903Y-10464104D01*
X37531903Y-10464104D02*
X37912856Y-10464104D01*
X37912856Y-10464104D02*
X38103332Y-10559342D01*
X37246189Y-11702200D02*
X37436665Y-11797438D01*
X37436665Y-11797438D02*
X37912856Y-11797438D01*
X37912856Y-11797438D02*
X38103332Y-11702200D01*
X38103332Y-11702200D02*
X38198570Y-11511723D01*
X38198570Y-11511723D02*
X38198570Y-11321247D01*
X38198570Y-11321247D02*
X38103332Y-11130771D01*
X38103332Y-11130771D02*
X37912856Y-11035533D01*
X37912856Y-11035533D02*
X37436665Y-11035533D01*
X37436665Y-11035533D02*
X37246189Y-10940295D01*
X36293808Y-11797438D02*
X36293808Y-10464104D01*
X36293808Y-10845057D02*
X36198570Y-10654580D01*
X36198570Y-10654580D02*
X36103332Y-10559342D01*
X36103332Y-10559342D02*
X35912856Y-10464104D01*
X35912856Y-10464104D02*
X35722379Y-10464104D01*
X35055713Y-11797438D02*
X35055713Y-10464104D01*
X35055713Y-10845057D02*
X34960475Y-10654580D01*
X34960475Y-10654580D02*
X34865237Y-10559342D01*
X34865237Y-10559342D02*
X34674761Y-10464104D01*
X34674761Y-10464104D02*
X34484284Y-10464104D01*
X33055713Y-11702200D02*
X33246189Y-11797438D01*
X33246189Y-11797438D02*
X33627142Y-11797438D01*
X33627142Y-11797438D02*
X33817618Y-11702200D01*
X33817618Y-11702200D02*
X33912856Y-11511723D01*
X33912856Y-11511723D02*
X33912856Y-10749819D01*
X33912856Y-10749819D02*
X33817618Y-10559342D01*
X33817618Y-10559342D02*
X33627142Y-10464104D01*
X33627142Y-10464104D02*
X33246189Y-10464104D01*
X33246189Y-10464104D02*
X33055713Y-10559342D01*
X33055713Y-10559342D02*
X32960475Y-10749819D01*
X32960475Y-10749819D02*
X32960475Y-10940295D01*
X32960475Y-10940295D02*
X33912856Y-11130771D01*
X32389046Y-10464104D02*
X31627142Y-10464104D01*
X32103332Y-9797438D02*
X32103332Y-11511723D01*
X32103332Y-11511723D02*
X32008094Y-11702200D01*
X32008094Y-11702200D02*
X31817618Y-11797438D01*
X31817618Y-11797438D02*
X31627142Y-11797438D01*
X31246189Y-10464104D02*
X30484285Y-10464104D01*
X30960475Y-9797438D02*
X30960475Y-11511723D01*
X30960475Y-11511723D02*
X30865237Y-11702200D01*
X30865237Y-11702200D02*
X30674761Y-11797438D01*
X30674761Y-11797438D02*
X30484285Y-11797438D01*
X28960475Y-11797438D02*
X28960475Y-10749819D01*
X28960475Y-10749819D02*
X29055713Y-10559342D01*
X29055713Y-10559342D02*
X29246189Y-10464104D01*
X29246189Y-10464104D02*
X29627142Y-10464104D01*
X29627142Y-10464104D02*
X29817618Y-10559342D01*
X28960475Y-11702200D02*
X29150951Y-11797438D01*
X29150951Y-11797438D02*
X29627142Y-11797438D01*
X29627142Y-11797438D02*
X29817618Y-11702200D01*
X29817618Y-11702200D02*
X29912856Y-11511723D01*
X29912856Y-11511723D02*
X29912856Y-11321247D01*
X29912856Y-11321247D02*
X29817618Y-11130771D01*
X29817618Y-11130771D02*
X29627142Y-11035533D01*
X29627142Y-11035533D02*
X29150951Y-11035533D01*
X29150951Y-11035533D02*
X28960475Y-10940295D01*
X43198571Y-13207914D02*
X43103333Y-13112676D01*
X43103333Y-13112676D02*
X42912857Y-13017438D01*
X42912857Y-13017438D02*
X42436666Y-13017438D01*
X42436666Y-13017438D02*
X42246190Y-13112676D01*
X42246190Y-13112676D02*
X42150952Y-13207914D01*
X42150952Y-13207914D02*
X42055714Y-13398390D01*
X42055714Y-13398390D02*
X42055714Y-13588866D01*
X42055714Y-13588866D02*
X42150952Y-13874580D01*
X42150952Y-13874580D02*
X43293809Y-15017438D01*
X43293809Y-15017438D02*
X42055714Y-15017438D01*
X40817619Y-13017438D02*
X40627142Y-13017438D01*
X40627142Y-13017438D02*
X40436666Y-13112676D01*
X40436666Y-13112676D02*
X40341428Y-13207914D01*
X40341428Y-13207914D02*
X40246190Y-13398390D01*
X40246190Y-13398390D02*
X40150952Y-13779342D01*
X40150952Y-13779342D02*
X40150952Y-14255533D01*
X40150952Y-14255533D02*
X40246190Y-14636485D01*
X40246190Y-14636485D02*
X40341428Y-14826961D01*
X40341428Y-14826961D02*
X40436666Y-14922200D01*
X40436666Y-14922200D02*
X40627142Y-15017438D01*
X40627142Y-15017438D02*
X40817619Y-15017438D01*
X40817619Y-15017438D02*
X41008095Y-14922200D01*
X41008095Y-14922200D02*
X41103333Y-14826961D01*
X41103333Y-14826961D02*
X41198571Y-14636485D01*
X41198571Y-14636485D02*
X41293809Y-14255533D01*
X41293809Y-14255533D02*
X41293809Y-13779342D01*
X41293809Y-13779342D02*
X41198571Y-13398390D01*
X41198571Y-13398390D02*
X41103333Y-13207914D01*
X41103333Y-13207914D02*
X41008095Y-13112676D01*
X41008095Y-13112676D02*
X40817619Y-13017438D01*
X39389047Y-13207914D02*
X39293809Y-13112676D01*
X39293809Y-13112676D02*
X39103333Y-13017438D01*
X39103333Y-13017438D02*
X38627142Y-13017438D01*
X38627142Y-13017438D02*
X38436666Y-13112676D01*
X38436666Y-13112676D02*
X38341428Y-13207914D01*
X38341428Y-13207914D02*
X38246190Y-13398390D01*
X38246190Y-13398390D02*
X38246190Y-13588866D01*
X38246190Y-13588866D02*
X38341428Y-13874580D01*
X38341428Y-13874580D02*
X39484285Y-15017438D01*
X39484285Y-15017438D02*
X38246190Y-15017438D01*
X36531904Y-13684104D02*
X36531904Y-15017438D01*
X37008095Y-12922200D02*
X37484285Y-14350771D01*
X37484285Y-14350771D02*
X36246190Y-14350771D01*
X25333333Y-39644819D02*
X25333333Y-40359104D01*
X25333333Y-40359104D02*
X25380952Y-40501961D01*
X25380952Y-40501961D02*
X25476190Y-40597200D01*
X25476190Y-40597200D02*
X25619047Y-40644819D01*
X25619047Y-40644819D02*
X25714285Y-40644819D01*
X24952380Y-39644819D02*
X24285714Y-39644819D01*
X24285714Y-39644819D02*
X24714285Y-40644819D01*
D11*
X60387419Y-7963333D02*
X59911228Y-7630000D01*
X60387419Y-7391905D02*
X59387419Y-7391905D01*
X59387419Y-7391905D02*
X59387419Y-7772857D01*
X59387419Y-7772857D02*
X59435038Y-7868095D01*
X59435038Y-7868095D02*
X59482657Y-7915714D01*
X59482657Y-7915714D02*
X59577895Y-7963333D01*
X59577895Y-7963333D02*
X59720752Y-7963333D01*
X59720752Y-7963333D02*
X59815990Y-7915714D01*
X59815990Y-7915714D02*
X59863609Y-7868095D01*
X59863609Y-7868095D02*
X59911228Y-7772857D01*
X59911228Y-7772857D02*
X59911228Y-7391905D01*
X59815990Y-8534762D02*
X59768371Y-8439524D01*
X59768371Y-8439524D02*
X59720752Y-8391905D01*
X59720752Y-8391905D02*
X59625514Y-8344286D01*
X59625514Y-8344286D02*
X59577895Y-8344286D01*
X59577895Y-8344286D02*
X59482657Y-8391905D01*
X59482657Y-8391905D02*
X59435038Y-8439524D01*
X59435038Y-8439524D02*
X59387419Y-8534762D01*
X59387419Y-8534762D02*
X59387419Y-8725238D01*
X59387419Y-8725238D02*
X59435038Y-8820476D01*
X59435038Y-8820476D02*
X59482657Y-8868095D01*
X59482657Y-8868095D02*
X59577895Y-8915714D01*
X59577895Y-8915714D02*
X59625514Y-8915714D01*
X59625514Y-8915714D02*
X59720752Y-8868095D01*
X59720752Y-8868095D02*
X59768371Y-8820476D01*
X59768371Y-8820476D02*
X59815990Y-8725238D01*
X59815990Y-8725238D02*
X59815990Y-8534762D01*
X59815990Y-8534762D02*
X59863609Y-8439524D01*
X59863609Y-8439524D02*
X59911228Y-8391905D01*
X59911228Y-8391905D02*
X60006466Y-8344286D01*
X60006466Y-8344286D02*
X60196942Y-8344286D01*
X60196942Y-8344286D02*
X60292180Y-8391905D01*
X60292180Y-8391905D02*
X60339800Y-8439524D01*
X60339800Y-8439524D02*
X60387419Y-8534762D01*
X60387419Y-8534762D02*
X60387419Y-8725238D01*
X60387419Y-8725238D02*
X60339800Y-8820476D01*
X60339800Y-8820476D02*
X60292180Y-8868095D01*
X60292180Y-8868095D02*
X60196942Y-8915714D01*
X60196942Y-8915714D02*
X60006466Y-8915714D01*
X60006466Y-8915714D02*
X59911228Y-8868095D01*
X59911228Y-8868095D02*
X59863609Y-8820476D01*
X59863609Y-8820476D02*
X59815990Y-8725238D01*
X39936666Y-44347419D02*
X40269999Y-43871228D01*
X40508094Y-44347419D02*
X40508094Y-43347419D01*
X40508094Y-43347419D02*
X40127142Y-43347419D01*
X40127142Y-43347419D02*
X40031904Y-43395038D01*
X40031904Y-43395038D02*
X39984285Y-43442657D01*
X39984285Y-43442657D02*
X39936666Y-43537895D01*
X39936666Y-43537895D02*
X39936666Y-43680752D01*
X39936666Y-43680752D02*
X39984285Y-43775990D01*
X39984285Y-43775990D02*
X40031904Y-43823609D01*
X40031904Y-43823609D02*
X40127142Y-43871228D01*
X40127142Y-43871228D02*
X40508094Y-43871228D01*
X39555713Y-43442657D02*
X39508094Y-43395038D01*
X39508094Y-43395038D02*
X39412856Y-43347419D01*
X39412856Y-43347419D02*
X39174761Y-43347419D01*
X39174761Y-43347419D02*
X39079523Y-43395038D01*
X39079523Y-43395038D02*
X39031904Y-43442657D01*
X39031904Y-43442657D02*
X38984285Y-43537895D01*
X38984285Y-43537895D02*
X38984285Y-43633133D01*
X38984285Y-43633133D02*
X39031904Y-43775990D01*
X39031904Y-43775990D02*
X39603332Y-44347419D01*
X39603332Y-44347419D02*
X38984285Y-44347419D01*
D10*
X1793333Y-42284819D02*
X1793333Y-42999104D01*
X1793333Y-42999104D02*
X1840952Y-43141961D01*
X1840952Y-43141961D02*
X1936190Y-43237200D01*
X1936190Y-43237200D02*
X2079047Y-43284819D01*
X2079047Y-43284819D02*
X2174285Y-43284819D01*
X1174285Y-42713390D02*
X1269523Y-42665771D01*
X1269523Y-42665771D02*
X1317142Y-42618152D01*
X1317142Y-42618152D02*
X1364761Y-42522914D01*
X1364761Y-42522914D02*
X1364761Y-42475295D01*
X1364761Y-42475295D02*
X1317142Y-42380057D01*
X1317142Y-42380057D02*
X1269523Y-42332438D01*
X1269523Y-42332438D02*
X1174285Y-42284819D01*
X1174285Y-42284819D02*
X983809Y-42284819D01*
X983809Y-42284819D02*
X888571Y-42332438D01*
X888571Y-42332438D02*
X840952Y-42380057D01*
X840952Y-42380057D02*
X793333Y-42475295D01*
X793333Y-42475295D02*
X793333Y-42522914D01*
X793333Y-42522914D02*
X840952Y-42618152D01*
X840952Y-42618152D02*
X888571Y-42665771D01*
X888571Y-42665771D02*
X983809Y-42713390D01*
X983809Y-42713390D02*
X1174285Y-42713390D01*
X1174285Y-42713390D02*
X1269523Y-42761009D01*
X1269523Y-42761009D02*
X1317142Y-42808628D01*
X1317142Y-42808628D02*
X1364761Y-42903866D01*
X1364761Y-42903866D02*
X1364761Y-43094342D01*
X1364761Y-43094342D02*
X1317142Y-43189580D01*
X1317142Y-43189580D02*
X1269523Y-43237200D01*
X1269523Y-43237200D02*
X1174285Y-43284819D01*
X1174285Y-43284819D02*
X983809Y-43284819D01*
X983809Y-43284819D02*
X888571Y-43237200D01*
X888571Y-43237200D02*
X840952Y-43189580D01*
X840952Y-43189580D02*
X793333Y-43094342D01*
X793333Y-43094342D02*
X793333Y-42903866D01*
X793333Y-42903866D02*
X840952Y-42808628D01*
X840952Y-42808628D02*
X888571Y-42761009D01*
X888571Y-42761009D02*
X983809Y-42713390D01*
D11*
X194276666Y-46857419D02*
X194609999Y-46381228D01*
X194848094Y-46857419D02*
X194848094Y-45857419D01*
X194848094Y-45857419D02*
X194467142Y-45857419D01*
X194467142Y-45857419D02*
X194371904Y-45905038D01*
X194371904Y-45905038D02*
X194324285Y-45952657D01*
X194324285Y-45952657D02*
X194276666Y-46047895D01*
X194276666Y-46047895D02*
X194276666Y-46190752D01*
X194276666Y-46190752D02*
X194324285Y-46285990D01*
X194324285Y-46285990D02*
X194371904Y-46333609D01*
X194371904Y-46333609D02*
X194467142Y-46381228D01*
X194467142Y-46381228D02*
X194848094Y-46381228D01*
X193419523Y-45857419D02*
X193609999Y-45857419D01*
X193609999Y-45857419D02*
X193705237Y-45905038D01*
X193705237Y-45905038D02*
X193752856Y-45952657D01*
X193752856Y-45952657D02*
X193848094Y-46095514D01*
X193848094Y-46095514D02*
X193895713Y-46285990D01*
X193895713Y-46285990D02*
X193895713Y-46666942D01*
X193895713Y-46666942D02*
X193848094Y-46762180D01*
X193848094Y-46762180D02*
X193800475Y-46809800D01*
X193800475Y-46809800D02*
X193705237Y-46857419D01*
X193705237Y-46857419D02*
X193514761Y-46857419D01*
X193514761Y-46857419D02*
X193419523Y-46809800D01*
X193419523Y-46809800D02*
X193371904Y-46762180D01*
X193371904Y-46762180D02*
X193324285Y-46666942D01*
X193324285Y-46666942D02*
X193324285Y-46428847D01*
X193324285Y-46428847D02*
X193371904Y-46333609D01*
X193371904Y-46333609D02*
X193419523Y-46285990D01*
X193419523Y-46285990D02*
X193514761Y-46238371D01*
X193514761Y-46238371D02*
X193705237Y-46238371D01*
X193705237Y-46238371D02*
X193800475Y-46285990D01*
X193800475Y-46285990D02*
X193848094Y-46333609D01*
X193848094Y-46333609D02*
X193895713Y-46428847D01*
X97247419Y-12648333D02*
X96771228Y-12315000D01*
X97247419Y-12076905D02*
X96247419Y-12076905D01*
X96247419Y-12076905D02*
X96247419Y-12457857D01*
X96247419Y-12457857D02*
X96295038Y-12553095D01*
X96295038Y-12553095D02*
X96342657Y-12600714D01*
X96342657Y-12600714D02*
X96437895Y-12648333D01*
X96437895Y-12648333D02*
X96580752Y-12648333D01*
X96580752Y-12648333D02*
X96675990Y-12600714D01*
X96675990Y-12600714D02*
X96723609Y-12553095D01*
X96723609Y-12553095D02*
X96771228Y-12457857D01*
X96771228Y-12457857D02*
X96771228Y-12076905D01*
X96247419Y-12981667D02*
X96247419Y-13648333D01*
X96247419Y-13648333D02*
X97247419Y-13219762D01*
D10*
X101714285Y-50789104D02*
X101238095Y-50789104D01*
X101809523Y-51074819D02*
X101476190Y-50074819D01*
X101476190Y-50074819D02*
X101142857Y-51074819D01*
X100285714Y-51074819D02*
X100857142Y-51074819D01*
X100571428Y-51074819D02*
X100571428Y-50074819D01*
X100571428Y-50074819D02*
X100666666Y-50217676D01*
X100666666Y-50217676D02*
X100761904Y-50312914D01*
X100761904Y-50312914D02*
X100857142Y-50360533D01*
D11*
X35216666Y-44347419D02*
X35549999Y-43871228D01*
X35788094Y-44347419D02*
X35788094Y-43347419D01*
X35788094Y-43347419D02*
X35407142Y-43347419D01*
X35407142Y-43347419D02*
X35311904Y-43395038D01*
X35311904Y-43395038D02*
X35264285Y-43442657D01*
X35264285Y-43442657D02*
X35216666Y-43537895D01*
X35216666Y-43537895D02*
X35216666Y-43680752D01*
X35216666Y-43680752D02*
X35264285Y-43775990D01*
X35264285Y-43775990D02*
X35311904Y-43823609D01*
X35311904Y-43823609D02*
X35407142Y-43871228D01*
X35407142Y-43871228D02*
X35788094Y-43871228D01*
X34264285Y-44347419D02*
X34835713Y-44347419D01*
X34549999Y-44347419D02*
X34549999Y-43347419D01*
X34549999Y-43347419D02*
X34645237Y-43490276D01*
X34645237Y-43490276D02*
X34740475Y-43585514D01*
X34740475Y-43585514D02*
X34835713Y-43633133D01*
X60397419Y-4303333D02*
X59921228Y-3970000D01*
X60397419Y-3731905D02*
X59397419Y-3731905D01*
X59397419Y-3731905D02*
X59397419Y-4112857D01*
X59397419Y-4112857D02*
X59445038Y-4208095D01*
X59445038Y-4208095D02*
X59492657Y-4255714D01*
X59492657Y-4255714D02*
X59587895Y-4303333D01*
X59587895Y-4303333D02*
X59730752Y-4303333D01*
X59730752Y-4303333D02*
X59825990Y-4255714D01*
X59825990Y-4255714D02*
X59873609Y-4208095D01*
X59873609Y-4208095D02*
X59921228Y-4112857D01*
X59921228Y-4112857D02*
X59921228Y-3731905D01*
X60397419Y-4779524D02*
X60397419Y-4970000D01*
X60397419Y-4970000D02*
X60349800Y-5065238D01*
X60349800Y-5065238D02*
X60302180Y-5112857D01*
X60302180Y-5112857D02*
X60159323Y-5208095D01*
X60159323Y-5208095D02*
X59968847Y-5255714D01*
X59968847Y-5255714D02*
X59587895Y-5255714D01*
X59587895Y-5255714D02*
X59492657Y-5208095D01*
X59492657Y-5208095D02*
X59445038Y-5160476D01*
X59445038Y-5160476D02*
X59397419Y-5065238D01*
X59397419Y-5065238D02*
X59397419Y-4874762D01*
X59397419Y-4874762D02*
X59445038Y-4779524D01*
X59445038Y-4779524D02*
X59492657Y-4731905D01*
X59492657Y-4731905D02*
X59587895Y-4684286D01*
X59587895Y-4684286D02*
X59825990Y-4684286D01*
X59825990Y-4684286D02*
X59921228Y-4731905D01*
X59921228Y-4731905D02*
X59968847Y-4779524D01*
X59968847Y-4779524D02*
X60016466Y-4874762D01*
X60016466Y-4874762D02*
X60016466Y-5065238D01*
X60016466Y-5065238D02*
X59968847Y-5160476D01*
X59968847Y-5160476D02*
X59921228Y-5208095D01*
X59921228Y-5208095D02*
X59825990Y-5255714D01*
X203786666Y-46842419D02*
X204119999Y-46366228D01*
X204358094Y-46842419D02*
X204358094Y-45842419D01*
X204358094Y-45842419D02*
X203977142Y-45842419D01*
X203977142Y-45842419D02*
X203881904Y-45890038D01*
X203881904Y-45890038D02*
X203834285Y-45937657D01*
X203834285Y-45937657D02*
X203786666Y-46032895D01*
X203786666Y-46032895D02*
X203786666Y-46175752D01*
X203786666Y-46175752D02*
X203834285Y-46270990D01*
X203834285Y-46270990D02*
X203881904Y-46318609D01*
X203881904Y-46318609D02*
X203977142Y-46366228D01*
X203977142Y-46366228D02*
X204358094Y-46366228D01*
X202929523Y-46175752D02*
X202929523Y-46842419D01*
X203167618Y-45794800D02*
X203405713Y-46509085D01*
X203405713Y-46509085D02*
X202786666Y-46509085D01*
X208406666Y-46857419D02*
X208739999Y-46381228D01*
X208978094Y-46857419D02*
X208978094Y-45857419D01*
X208978094Y-45857419D02*
X208597142Y-45857419D01*
X208597142Y-45857419D02*
X208501904Y-45905038D01*
X208501904Y-45905038D02*
X208454285Y-45952657D01*
X208454285Y-45952657D02*
X208406666Y-46047895D01*
X208406666Y-46047895D02*
X208406666Y-46190752D01*
X208406666Y-46190752D02*
X208454285Y-46285990D01*
X208454285Y-46285990D02*
X208501904Y-46333609D01*
X208501904Y-46333609D02*
X208597142Y-46381228D01*
X208597142Y-46381228D02*
X208978094Y-46381228D01*
X208073332Y-45857419D02*
X207454285Y-45857419D01*
X207454285Y-45857419D02*
X207787618Y-46238371D01*
X207787618Y-46238371D02*
X207644761Y-46238371D01*
X207644761Y-46238371D02*
X207549523Y-46285990D01*
X207549523Y-46285990D02*
X207501904Y-46333609D01*
X207501904Y-46333609D02*
X207454285Y-46428847D01*
X207454285Y-46428847D02*
X207454285Y-46666942D01*
X207454285Y-46666942D02*
X207501904Y-46762180D01*
X207501904Y-46762180D02*
X207549523Y-46809800D01*
X207549523Y-46809800D02*
X207644761Y-46857419D01*
X207644761Y-46857419D02*
X207930475Y-46857419D01*
X207930475Y-46857419D02*
X208025713Y-46809800D01*
X208025713Y-46809800D02*
X208073332Y-46762180D01*
X199096666Y-46857419D02*
X199429999Y-46381228D01*
X199668094Y-46857419D02*
X199668094Y-45857419D01*
X199668094Y-45857419D02*
X199287142Y-45857419D01*
X199287142Y-45857419D02*
X199191904Y-45905038D01*
X199191904Y-45905038D02*
X199144285Y-45952657D01*
X199144285Y-45952657D02*
X199096666Y-46047895D01*
X199096666Y-46047895D02*
X199096666Y-46190752D01*
X199096666Y-46190752D02*
X199144285Y-46285990D01*
X199144285Y-46285990D02*
X199191904Y-46333609D01*
X199191904Y-46333609D02*
X199287142Y-46381228D01*
X199287142Y-46381228D02*
X199668094Y-46381228D01*
X198191904Y-45857419D02*
X198668094Y-45857419D01*
X198668094Y-45857419D02*
X198715713Y-46333609D01*
X198715713Y-46333609D02*
X198668094Y-46285990D01*
X198668094Y-46285990D02*
X198572856Y-46238371D01*
X198572856Y-46238371D02*
X198334761Y-46238371D01*
X198334761Y-46238371D02*
X198239523Y-46285990D01*
X198239523Y-46285990D02*
X198191904Y-46333609D01*
X198191904Y-46333609D02*
X198144285Y-46428847D01*
X198144285Y-46428847D02*
X198144285Y-46666942D01*
X198144285Y-46666942D02*
X198191904Y-46762180D01*
X198191904Y-46762180D02*
X198239523Y-46809800D01*
X198239523Y-46809800D02*
X198334761Y-46857419D01*
X198334761Y-46857419D02*
X198572856Y-46857419D01*
X198572856Y-46857419D02*
X198668094Y-46809800D01*
X198668094Y-46809800D02*
X198715713Y-46762180D01*
D12*
%TO.C,J7*%
X20400000Y-41990000D02*
X20400000Y-43290000D01*
X20400000Y-47890000D02*
X20400000Y-56490000D01*
X20400000Y-56490000D02*
X29600000Y-56490000D01*
X22400000Y-41990000D02*
X20400000Y-41990000D01*
X28200000Y-41690000D02*
X29900000Y-41690000D01*
X29600000Y-41990000D02*
X27600000Y-41990000D01*
X29600000Y-56490000D02*
X29600000Y-41990000D01*
X29900000Y-41690000D02*
X29900000Y-42990000D01*
D11*
%TO.C,R8*%
X56940000Y-5565000D02*
X63940000Y-5565000D01*
X63940000Y-5565000D02*
X63940000Y-7065000D01*
X63940000Y-7065000D02*
X56940000Y-7065000D01*
X56940000Y-7065000D02*
X56940000Y-5565000D01*
%TO.C,R2*%
X40990000Y-46350000D02*
X42490000Y-46350000D01*
X42490000Y-46350000D02*
X42490000Y-39350000D01*
X42490000Y-39350000D02*
X40990000Y-39350000D01*
X40990000Y-39350000D02*
X40990000Y-46350000D01*
D12*
%TO.C,J8*%
X5240000Y-44020000D02*
X12920000Y-44020000D01*
X2640000Y-41360000D02*
X2640000Y-42690000D01*
X3970000Y-41360000D02*
X2640000Y-41360000D01*
X5240000Y-41360000D02*
X5240000Y-44020000D01*
X5240000Y-41360000D02*
X12920000Y-41360000D01*
X12920000Y-41360000D02*
X12920000Y-44020000D01*
D11*
%TO.C,R6*%
X195330000Y-48880000D02*
X196830000Y-48880000D01*
X196830000Y-48880000D02*
X196830000Y-41880000D01*
X196830000Y-41880000D02*
X195330000Y-41880000D01*
X195330000Y-41880000D02*
X195330000Y-48880000D01*
%TO.C,R7*%
X93800000Y-10250000D02*
X100800000Y-10250000D01*
X100800000Y-10250000D02*
X100800000Y-11750000D01*
X100800000Y-11750000D02*
X93800000Y-11750000D01*
X93800000Y-11750000D02*
X93800000Y-10250000D01*
D12*
%TO.C,A1*%
X69690000Y-9225000D02*
X76040000Y-9225000D01*
X69690000Y-20905000D02*
X69690000Y-9225000D01*
X74140000Y-40975000D02*
X76040000Y-40975000D01*
X74140000Y-50115000D02*
X74140000Y-40975000D01*
X76040000Y305000D02*
X140690000Y305000D01*
X76040000Y-9225000D02*
X76040000Y305000D01*
X76040000Y-20905000D02*
X69690000Y-20905000D01*
X76040000Y-40975000D02*
X76040000Y-20905000D01*
X76040000Y-50115000D02*
X74140000Y-50115000D01*
X76040000Y-53295000D02*
X76040000Y-50115000D01*
X140690000Y305000D02*
X142340000Y-1345000D01*
X142340000Y-1345000D02*
X142340000Y-12775000D01*
X142340000Y-12775000D02*
X144880000Y-15315000D01*
X142340000Y-50625000D02*
X142340000Y-53295000D01*
X142340000Y-53295000D02*
X76040000Y-53295000D01*
X144880000Y-15315000D02*
X144880000Y-48085000D01*
X144880000Y-48085000D02*
X142340000Y-50625000D01*
D11*
%TO.C,R1*%
X36270000Y-46350000D02*
X37770000Y-46350000D01*
X37770000Y-46350000D02*
X37770000Y-39350000D01*
X37770000Y-39350000D02*
X36270000Y-39350000D01*
X36270000Y-39350000D02*
X36270000Y-46350000D01*
%TO.C,R9*%
X56950000Y-1905000D02*
X63950000Y-1905000D01*
X63950000Y-1905000D02*
X63950000Y-3405000D01*
X63950000Y-3405000D02*
X56950000Y-3405000D01*
X56950000Y-3405000D02*
X56950000Y-1905000D01*
%TO.C,R4*%
X204840000Y-48865000D02*
X206340000Y-48865000D01*
X206340000Y-48865000D02*
X206340000Y-41865000D01*
X206340000Y-41865000D02*
X204840000Y-41865000D01*
X204840000Y-41865000D02*
X204840000Y-48865000D01*
%TO.C,R3*%
X209460000Y-48880000D02*
X210960000Y-48880000D01*
X210960000Y-48880000D02*
X210960000Y-41880000D01*
X210960000Y-41880000D02*
X209460000Y-41880000D01*
X209460000Y-41880000D02*
X209460000Y-48880000D01*
%TO.C,R5*%
X200150000Y-48880000D02*
X201650000Y-48880000D01*
X201650000Y-48880000D02*
X201650000Y-41880000D01*
X201650000Y-41880000D02*
X200150000Y-41880000D01*
X200150000Y-41880000D02*
X200150000Y-48880000D01*
%TD*%
M02*
