%TF.GenerationSoftware,KiCad,Pcbnew,7.0.8*%
%TF.CreationDate,2023-11-30T13:58:35-08:00*%
%TF.ProjectId,LED_matrix,4c45445f-6d61-4747-9269-782e6b696361,rev?*%
%TF.SameCoordinates,Original*%
%TF.FileFunction,Copper,L1,Top*%
%TF.FilePolarity,Positive*%
%FSLAX46Y46*%
G04 Gerber Fmt 4.6, Leading zero omitted, Abs format (unit mm)*
G04 Created by KiCad (PCBNEW 7.0.8) date 2023-11-30 13:58:35*
%MOMM*%
%LPD*%
G01*
G04 APERTURE LIST*
%TA.AperFunction,ComponentPad*%
%ADD10O,1.524000X3.000000*%
%TD*%
%TA.AperFunction,ComponentPad*%
%ADD11O,1.508000X3.016000*%
%TD*%
%TA.AperFunction,ComponentPad*%
%ADD12O,2.000000X4.200000*%
%TD*%
%TA.AperFunction,ComponentPad*%
%ADD13O,4.200000X2.000000*%
%TD*%
%TA.AperFunction,ComponentPad*%
%ADD14R,4.600000X2.000000*%
%TD*%
%TA.AperFunction,ComponentPad*%
%ADD15C,1.524000*%
%TD*%
%TA.AperFunction,ComponentPad*%
%ADD16O,1.700000X1.700000*%
%TD*%
%TA.AperFunction,ComponentPad*%
%ADD17R,1.700000X1.700000*%
%TD*%
%TA.AperFunction,ComponentPad*%
%ADD18R,1.600000X1.600000*%
%TD*%
%TA.AperFunction,ComponentPad*%
%ADD19O,1.600000X1.600000*%
%TD*%
%TA.AperFunction,Conductor*%
%ADD20C,0.250000*%
%TD*%
G04 APERTURE END LIST*
D10*
%TO.P,J5,1,Pin_1*%
%TO.N,/5V*%
X172860000Y-38130000D03*
%TO.P,J5,2,Pin_2*%
%TO.N,unconnected-(J5-Pin_2-Pad2)*%
X186870000Y-38100000D03*
%TO.P,J5,3,Pin_3*%
%TO.N,/Green_btn*%
X172820000Y-43110000D03*
%TO.P,J5,4,Pin_4*%
%TO.N,unconnected-(J5-Pin_4-Pad4)*%
X186870000Y-43060000D03*
%TD*%
%TO.P,J1,1,Pin_1*%
%TO.N,/5V*%
X32000000Y-29020000D03*
%TO.P,J1,2,Pin_2*%
%TO.N,unconnected-(J1-Pin_2-Pad2)*%
X17990000Y-29050000D03*
%TO.P,J1,3,Pin_3*%
%TO.N,/Black_btn*%
X32040000Y-24040000D03*
%TO.P,J1,4,Pin_4*%
%TO.N,unconnected-(J1-Pin_4-Pad4)*%
X17990000Y-24090000D03*
%TD*%
%TO.P,J4,1,Pin_1*%
%TO.N,/5V*%
X187000000Y-24000000D03*
%TO.P,J4,2,Pin_2*%
%TO.N,unconnected-(J4-Pin_2-Pad2)*%
X201010000Y-23970000D03*
%TO.P,J4,3,Pin_3*%
%TO.N,/Red_btn*%
X186960000Y-28980000D03*
%TO.P,J4,4,Pin_4*%
%TO.N,unconnected-(J4-Pin_4-Pad4)*%
X201010000Y-28930000D03*
%TD*%
%TO.P,J6,1,Pin_1*%
%TO.N,/5V*%
X158720000Y-24000000D03*
%TO.P,J6,2,Pin_2*%
%TO.N,unconnected-(J6-Pin_2-Pad2)*%
X172730000Y-23970000D03*
%TO.P,J6,3,Pin_3*%
%TO.N,/Blue_btn*%
X158680000Y-28980000D03*
%TO.P,J6,4,Pin_4*%
%TO.N,unconnected-(J6-Pin_4-Pad4)*%
X172730000Y-28930000D03*
%TD*%
%TO.P,J2,1,Pin_1*%
%TO.N,/5V*%
X60280000Y-29020000D03*
%TO.P,J2,2,Pin_2*%
%TO.N,unconnected-(J2-Pin_2-Pad2)*%
X46270000Y-29050000D03*
%TO.P,J2,3,Pin_3*%
%TO.N,/White_btn*%
X60320000Y-24040000D03*
%TO.P,J2,4,Pin_4*%
%TO.N,unconnected-(J2-Pin_4-Pad4)*%
X46270000Y-24090000D03*
%TD*%
%TO.P,J3,1,Pin_1*%
%TO.N,/5V*%
X172860000Y-9840000D03*
%TO.P,J3,2,Pin_2*%
%TO.N,unconnected-(J3-Pin_2-Pad2)*%
X186870000Y-9810000D03*
%TO.P,J3,3,Pin_3*%
%TO.N,/Yellow_btn*%
X172820000Y-14820000D03*
%TO.P,J3,4,Pin_4*%
%TO.N,unconnected-(J3-Pin_4-Pad4)*%
X186870000Y-14770000D03*
%TD*%
D11*
%TO.P,DIS1,P$1*%
%TO.N,/GND*%
X77500000Y-5800000D03*
%TO.P,DIS1,P$2*%
%TO.N,/5V*%
X80040000Y-5800000D03*
%TO.P,DIS1,P$3*%
%TO.N,/Vo*%
X82580000Y-5800000D03*
%TO.P,DIS1,P$4*%
%TO.N,/RS*%
X85120000Y-5800000D03*
%TO.P,DIS1,P$5*%
%TO.N,/GND*%
X87660000Y-5800000D03*
%TO.P,DIS1,P$6*%
%TO.N,/EN*%
X90200000Y-5800000D03*
%TO.P,DIS1,P$7*%
%TO.N,unconnected-(DIS1-PadP$7)*%
X92740000Y-5800000D03*
%TO.P,DIS1,P$8*%
%TO.N,unconnected-(DIS1-PadP$8)*%
X95280000Y-5800000D03*
%TO.P,DIS1,P$9*%
%TO.N,unconnected-(DIS1-PadP$9)*%
X97820000Y-5800000D03*
%TO.P,DIS1,P$10*%
%TO.N,unconnected-(DIS1-PadP$10)*%
X100360000Y-5800000D03*
%TO.P,DIS1,P$11*%
%TO.N,/DB4*%
X102900000Y-5800000D03*
%TO.P,DIS1,P$12*%
%TO.N,/DB5*%
X105440000Y-5800000D03*
%TO.P,DIS1,P$13*%
%TO.N,/DB6*%
X107980000Y-5800000D03*
%TO.P,DIS1,P$14*%
%TO.N,/DB7*%
X110520000Y-5800000D03*
%TO.P,DIS1,P$15*%
%TO.N,Net-(DIS1-PadP$15)*%
X113060000Y-5800000D03*
%TO.P,DIS1,P$16*%
%TO.N,/GND*%
X115600000Y-5800000D03*
%TD*%
D12*
%TO.P,J7,3*%
%TO.N,N/C*%
X20200000Y-45590000D03*
D13*
%TO.P,J7,2*%
%TO.N,/GND*%
X25000000Y-48990000D03*
D14*
%TO.P,J7,1*%
%TO.N,/12V*%
X25000000Y-42690000D03*
%TD*%
D15*
%TO.P,R8,1*%
%TO.N,/GND*%
X55940000Y-6315000D03*
%TO.P,R8,2*%
%TO.N,/Vo*%
X64940000Y-6315000D03*
%TD*%
%TO.P,R2,1*%
%TO.N,/GND*%
X41740000Y-47350000D03*
%TO.P,R2,2*%
%TO.N,/White_btn*%
X41740000Y-38350000D03*
%TD*%
D16*
%TO.P,J8,4,Pin_4*%
%TO.N,/12V*%
X11590000Y-42690000D03*
%TO.P,J8,3,Pin_3*%
%TO.N,/LED_data*%
X9050000Y-42690000D03*
%TO.P,J8,2,Pin_2*%
%TO.N,/GND*%
X6510000Y-42690000D03*
D17*
%TO.P,J8,1,Pin_1*%
X3970000Y-42690000D03*
%TD*%
D15*
%TO.P,R6,1*%
%TO.N,/GND*%
X196080000Y-49880000D03*
%TO.P,R6,2*%
%TO.N,/Blue_btn*%
X196080000Y-40880000D03*
%TD*%
%TO.P,R7,1*%
%TO.N,/5V*%
X92800000Y-11000000D03*
%TO.P,R7,2*%
%TO.N,Net-(DIS1-PadP$15)*%
X101800000Y-11000000D03*
%TD*%
D18*
%TO.P,A1,1,NC*%
%TO.N,unconnected-(A1-NC-Pad1)*%
X104110000Y-50625000D03*
D19*
%TO.P,A1,2,IOREF*%
%TO.N,unconnected-(A1-IOREF-Pad2)*%
X106650000Y-50625000D03*
%TO.P,A1,3,~{RESET}*%
%TO.N,unconnected-(A1-~{RESET}-Pad3)*%
X109190000Y-50625000D03*
%TO.P,A1,4,3V3*%
%TO.N,unconnected-(A1-3V3-Pad4)*%
X111730000Y-50625000D03*
%TO.P,A1,5,+5V*%
%TO.N,/5V*%
X114270000Y-50625000D03*
%TO.P,A1,6,GND*%
%TO.N,/GND*%
X116810000Y-50625000D03*
%TO.P,A1,7,GND*%
X119350000Y-50625000D03*
%TO.P,A1,8,VIN*%
%TO.N,/12V*%
X121890000Y-50625000D03*
%TO.P,A1,9,A0*%
%TO.N,unconnected-(A1-A0-Pad9)*%
X126970000Y-50625000D03*
%TO.P,A1,10,A1*%
%TO.N,unconnected-(A1-A1-Pad10)*%
X129510000Y-50625000D03*
%TO.P,A1,11,A2*%
%TO.N,unconnected-(A1-A2-Pad11)*%
X132050000Y-50625000D03*
%TO.P,A1,12,A3*%
%TO.N,unconnected-(A1-A3-Pad12)*%
X134590000Y-50625000D03*
%TO.P,A1,13,SDA/A4*%
%TO.N,unconnected-(A1-SDA{slash}A4-Pad13)*%
X137130000Y-50625000D03*
%TO.P,A1,14,SCL/A5*%
%TO.N,unconnected-(A1-SCL{slash}A5-Pad14)*%
X139670000Y-50625000D03*
%TO.P,A1,15,D0/RX*%
%TO.N,unconnected-(A1-D0{slash}RX-Pad15)*%
X139670000Y-2365000D03*
%TO.P,A1,16,D1/TX*%
%TO.N,/RS*%
X137130000Y-2365000D03*
%TO.P,A1,17,D2*%
%TO.N,/Yellow_btn*%
X134590000Y-2365000D03*
%TO.P,A1,18,D3*%
%TO.N,/Red_btn*%
X132050000Y-2365000D03*
%TO.P,A1,19,D4*%
%TO.N,/Blue_btn*%
X129510000Y-2365000D03*
%TO.P,A1,20,D5*%
%TO.N,/Green_btn*%
X126970000Y-2365000D03*
%TO.P,A1,21,D6*%
%TO.N,/White_btn*%
X124430000Y-2365000D03*
%TO.P,A1,22,D7*%
%TO.N,/Black_btn*%
X121890000Y-2365000D03*
%TO.P,A1,23,D8*%
%TO.N,/LED_data*%
X117830000Y-2365000D03*
%TO.P,A1,24,D9*%
%TO.N,/DB7*%
X115290000Y-2365000D03*
%TO.P,A1,25,D10*%
%TO.N,/DB6*%
X112750000Y-2365000D03*
%TO.P,A1,26,D11*%
%TO.N,/DB5*%
X110210000Y-2365000D03*
%TO.P,A1,27,D12*%
%TO.N,/DB4*%
X107670000Y-2365000D03*
%TO.P,A1,28,D13*%
%TO.N,/EN*%
X105130000Y-2365000D03*
%TO.P,A1,29,GND*%
%TO.N,unconnected-(A1-GND-Pad29)*%
X102590000Y-2365000D03*
%TO.P,A1,30,AREF*%
%TO.N,unconnected-(A1-AREF-Pad30)*%
X100050000Y-2365000D03*
%TO.P,A1,31,SDA/A4*%
%TO.N,unconnected-(A1-SDA{slash}A4-Pad31)*%
X97510000Y-2365000D03*
%TO.P,A1,32,SCL/A5*%
%TO.N,unconnected-(A1-SCL{slash}A5-Pad32)*%
X94970000Y-2365000D03*
%TD*%
D15*
%TO.P,R1,1*%
%TO.N,/GND*%
X37020000Y-47350000D03*
%TO.P,R1,2*%
%TO.N,/Black_btn*%
X37020000Y-38350000D03*
%TD*%
%TO.P,R9,1*%
%TO.N,/GND*%
X55950000Y-2655000D03*
%TO.P,R9,2*%
%TO.N,/Vo*%
X64950000Y-2655000D03*
%TD*%
%TO.P,R4,1*%
%TO.N,/GND*%
X205590000Y-49865000D03*
%TO.P,R4,2*%
%TO.N,/Red_btn*%
X205590000Y-40865000D03*
%TD*%
%TO.P,R3,1*%
%TO.N,/GND*%
X210210000Y-49880000D03*
%TO.P,R3,2*%
%TO.N,/Yellow_btn*%
X210210000Y-40880000D03*
%TD*%
%TO.P,R5,1*%
%TO.N,/GND*%
X200900000Y-49880000D03*
%TO.P,R5,2*%
%TO.N,/Green_btn*%
X200900000Y-40880000D03*
%TD*%
D20*
%TO.N,/5V*%
X158720000Y-24000000D02*
X156790000Y-25930000D01*
X185090000Y-47560000D02*
X183440000Y-49210000D01*
X33540000Y-49240000D02*
X63260000Y-49240000D01*
X32000000Y-47700000D02*
X33540000Y-49240000D01*
X172860000Y-9860000D02*
X172860000Y-9840000D01*
X92800000Y-47450000D02*
X94590000Y-49240000D01*
X63260000Y-49240000D02*
X67070000Y-49240000D01*
X156790000Y-47530000D02*
X155110000Y-49210000D01*
X81780000Y-49240000D02*
X81850000Y-49240000D01*
X172860000Y-38130000D02*
X171230000Y-39760000D01*
X112885000Y-49240000D02*
X94590000Y-49240000D01*
X183440000Y-49210000D02*
X169410000Y-49210000D01*
X167500000Y-49210000D02*
X167340000Y-49210000D01*
X171230000Y-47390000D02*
X169410000Y-49210000D01*
X92800000Y-11000000D02*
X92800000Y-47450000D01*
X60280000Y-47590000D02*
X61930000Y-49240000D01*
X115685000Y-49210000D02*
X114270000Y-50625000D01*
X94590000Y-49240000D02*
X81850000Y-49240000D01*
X60280000Y-29020000D02*
X60280000Y-47590000D01*
X185090000Y-25910000D02*
X185090000Y-47560000D01*
X171230000Y-39760000D02*
X171230000Y-47390000D01*
X80040000Y-5800000D02*
X80040000Y-47500000D01*
X81850000Y-49240000D02*
X67070000Y-49240000D01*
X169370000Y-47340000D02*
X167500000Y-49210000D01*
X156790000Y-25930000D02*
X156790000Y-47530000D01*
X187000000Y-24000000D02*
X185090000Y-25910000D01*
X114270000Y-50625000D02*
X112885000Y-49240000D01*
X32000000Y-29020000D02*
X32000000Y-47700000D01*
X61930000Y-49240000D02*
X63260000Y-49240000D01*
X155110000Y-49210000D02*
X115685000Y-49210000D01*
X169370000Y-13330000D02*
X169370000Y-47340000D01*
X169410000Y-49210000D02*
X167340000Y-49210000D01*
X172860000Y-9840000D02*
X169370000Y-13330000D01*
X186990000Y-24000000D02*
X187000000Y-24000000D01*
X80040000Y-47500000D02*
X81780000Y-49240000D01*
X167340000Y-49210000D02*
X155110000Y-49210000D01*
%TO.N,/12V*%
X34590000Y-52280000D02*
X35510000Y-52280000D01*
X25000000Y-42690000D02*
X34590000Y-52280000D01*
X25000000Y-42690000D02*
X11590000Y-42690000D01*
X120235000Y-52280000D02*
X121890000Y-50625000D01*
X35510000Y-52280000D02*
X120235000Y-52280000D01*
%TO.N,/Yellow_btn*%
X172860000Y-14350000D02*
X172860000Y-14330000D01*
%TO.N,/Blue_btn*%
X158730000Y-28490000D02*
X158720000Y-28490000D01*
%TO.N,/RS*%
X86860000Y-8000000D02*
X131480000Y-8000000D01*
X131480000Y-8000000D02*
X137115000Y-2365000D01*
X85120000Y-5800000D02*
X85120000Y-6260000D01*
X85120000Y-6260000D02*
X86860000Y-8000000D01*
X137115000Y-2365000D02*
X137130000Y-2365000D01*
%TO.N,/EN*%
X90200000Y-5800000D02*
X90200000Y-4300000D01*
X90800000Y-3700000D02*
X103795000Y-3700000D01*
X90200000Y-4300000D02*
X90800000Y-3700000D01*
X103795000Y-3700000D02*
X105130000Y-2365000D01*
%TO.N,/DB7*%
X112600000Y-3720000D02*
X113935000Y-3720000D01*
X113935000Y-3720000D02*
X115290000Y-2365000D01*
X110520000Y-5800000D02*
X112600000Y-3720000D01*
%TO.N,/DB6*%
X111395000Y-3720000D02*
X112750000Y-2365000D01*
X110060000Y-3720000D02*
X111395000Y-3720000D01*
X107980000Y-5800000D02*
X110060000Y-3720000D01*
%TO.N,/DB5*%
X105440000Y-5800000D02*
X107520000Y-3720000D01*
X107520000Y-3720000D02*
X108855000Y-3720000D01*
X108855000Y-3720000D02*
X110210000Y-2365000D01*
%TO.N,/DB4*%
X106325000Y-3710000D02*
X107670000Y-2365000D01*
X104990000Y-3710000D02*
X106325000Y-3710000D01*
X102900000Y-5800000D02*
X104990000Y-3710000D01*
%TO.N,/Vo*%
X64970000Y-2635000D02*
X64950000Y-2655000D01*
X79435000Y-2655000D02*
X82580000Y-5800000D01*
X64950000Y-2655000D02*
X64950000Y-6305000D01*
X64950000Y-2655000D02*
X64970000Y-2675000D01*
X64950000Y-6305000D02*
X64940000Y-6315000D01*
X64950000Y-2655000D02*
X79435000Y-2655000D01*
%TD*%
M02*
